{
copyright = "Copyright (c) 2016 ResearchGate";
customParameters = (
{
name = license;
value = "This Font Software is licensed under the SIL Open Font License, Version 1.1. This license is available with a FAQ at: http://scripts.sil.org/OFL";
},
{
name = licenseURL;
value = "http://scripts.sil.org/OFL";
},
{
name = vendorID;
value = "STC ";
},
{
name = glyphOrder;
value = (
    ".notdef",
    uni0000,
    uni000D,
    NULL,
    space,
    exclam,
    quotedbl,
    numbersign,
    dollar,
    percent,
    ampersand,
    quotesingle,
    parenleft,
    parenright,
    asterisk,
    plus,
    comma,
    hyphen,
    period,
    slash,
    zero,
    one,
    two,
    three,
    four,
    five,
    six,
    seven,
    eight,
    nine,
    colon,
    semicolon,
    less,
    equal,
    greater,
    question,
    at,
    A,
    B,
    C,
    D,
    E,
    F,
    G,
    H,
    I,
    J,
    K,
    L,
    M,
    N,
    O,
    P,
    Q,
    R,
    S,
    T,
    U,
    V,
    W,
    X,
    Y,
    Z,
    bracketleft,
    backslash,
    bracketright,
    asciicircum,
    underscore,
    grave,
    a,
    b,
    c,
    d,
    e,
    f,
    g,
    h,
    i,
    j,
    k,
    l,
    m,
    n,
    o,
    p,
    q,
    r,
    s,
    t,
    u,
    v,
    w,
    x,
    y,
    z,
    braceleft,
    bar,
    braceright,
    asciitilde,
    uni00A0,
    exclamdown,
    cent,
    sterling,
    currency,
    yen,
    brokenbar,
    section,
    dieresis,
    copyright,
    ordfeminine,
    guillemotleft,
    logicalnot,
    uni00AD,
    registered,
    macron,
    degree,
    plusminus,
    acute,
    uni00B5,
    paragraph,
    periodcentered,
    cedilla,
    ordmasculine,
    guillemotright,
    onequarter,
    onehalf,
    threequarters,
    questiondown,
    Agrave,
    Aacute,
    Acircumflex,
    Atilde,
    Adieresis,
    Aring,
    AE,
    Ccedilla,
    Egrave,
    Eacute,
    Ecircumflex,
    Edieresis,
    Igrave,
    Iacute,
    Icircumflex,
    Idieresis,
    Eth,
    Ntilde,

glyphs = (
{
glyphname = A;
layers = (
{
layerId = "2D872161-907C-4693-BC79-717BAF554E8F";
name = Regular;
paths = (
{
closed = 1;
nodes = (
"82 117 LINE",
"516 1350 LINE",
"725 1350 LINE",
"1162 117 LINE",
"1274 96 LINE",
"1274 0 LINE",
"791 0 LINE",
"791 96 LINE",
"935 117 LINE",
"851 374 LINE",
"334 374 LINE",
"253 117 LINE",
"404 96 LINE",
"404 0 LINE",
"-29 0 LINE",
"-30 96 LINE"
);
},
{
closed = 1;
nodes = (
"815 486 LINE",
"627 1064 LINE",
"588 1212 LINE",
"549 1062 LINE",
"369 486 LINE"
);
}
);
width = 1246;
}
);
note = A;
unicode = 0041;
},
{
glyphname = Aacute;
layers = (
{
layerId = "2D872161-907C-4693-BC79-717BAF554E8F";
name = Regular;
paths = (
{
closed = 1;
nodes = (
"82 117 LINE",
"516 1350 LINE",
"725 1350 LINE",
"1162 117 LINE",
"1274 96 LINE",
"1274 0 LINE",
"791 0 LINE",
"791 96 LINE",
"935 117 LINE",
"851 374 LINE",
"334 374 LINE",
"253 117 LINE",
"404 96 LINE",
"404 0 LINE",
"-29 0 LINE",
"-30 96 LINE"
);
},
{
closed = 1;
nodes = (
"815 486 LINE",
"627 1064 LINE",
"588 1212 LINE",
"549 1062 LINE",
"369 486 LINE"
);
},
{
closed = 1;
nodes = (
"791 1771 LINE",
"792 1771 LINE",
"926 1659 LINE",
"885 1603 OFFCURVE",
"783 1538 OFFCURVE",
"686 1488 CURVE SMOOTH",
"637 1463 OFFCURVE",
"599 1446 OFFCURVE",
"571 1437 CURVE",
"570 1437 LINE",
"500 1497 LINE"
);
}
);
width = 1246;
}
);
note = Aacute;
unicode = 00C1;
},
{
glyphname = Abreve;
layers = (
{
layerId = "2D872161-907C-4693-BC79-717BAF554E8F";
name = Regular;
paths = (
{
closed = 1;
nodes = (
"82 117 LINE",
"516 1350 LINE",
"725 1350 LINE",
"1162 117 LINE",
"1274 96 LINE",
"1274 0 LINE",
"791 0 LINE",
"791 96 LINE",
"935 117 LINE",
"851 374 LINE",
"334 374 LINE",
"253 117 LINE",
"404 96 LINE",
"404 0 LINE",
"-29 0 LINE",
"-30 96 LINE"
);
},
{
closed = 1;
nodes = (
"815 486 LINE",
"627 1064 LINE",
"588 1212 LINE",
"549 1062 LINE",
"369 486 LINE"
);
},
{
closed = 1;
nodes = (
"326 1738 OFFCURVE",
"327 1750 OFFCURVE",
"328 1758 CURVE",
"434 1758 LINE",
"434 1749 OFFCURVE",
"435 1741 OFFCURVE",
"437 1734 CURVE",
"448 1665 OFFCURVE",
"503 1595 OFFCURVE",
"631 1595 CURVE SMOOTH",
"759 1595 OFFCURVE",
"811 1664 OFFCURVE",
"820 1735 CURVE SMOOTH",
"821 1742 OFFCURVE",
"821 1750 OFFCURVE",
"821 1758 CURVE",
"926 1758 LINE",
"927 1750 OFFCURVE",
"928 1738 OFFCURVE",
"928 1722 CURVE SMOOTH",
"928 1619 OFFCURVE",
"880 1531 OFFCURVE",
"790 1483 CURVE SMOOTH",
"745 1458 OFFCURVE",
"691 1446 OFFCURVE",
"630 1446 CURVE SMOOTH",
"502 1446 OFFCURVE",
"408 1497 OFFCURVE",
"361 1581 CURVE SMOOTH",
"338 1623 OFFCURVE",
"326 1670 OFFCURVE",
"326 1721 CURVE SMOOTH"
);
}
);
width = 1246;
}
);
note = Abreve;
unicode = 0102;
},
{
glyphname = Acircumflex;
layers = (
{
layerId = "2D872161-907C-4693-BC79-717BAF554E8F";
name = Regular;
paths = (
{
closed = 1;
nodes = (
"82 117 LINE",
"516 1350 LINE",
"725 1350 LINE",
"1162 117 LINE",
"1274 96 LINE",
"1274 0 LINE",
"791 0 LINE",
"791 96 LINE",
"935 117 LINE",
"851 374 LINE",
"334 374 LINE",
"253 117 LINE",
"404 96 LINE",
"404 0 LINE",
"-29 0 LINE",
"-30 96 LINE"
);
},
{
closed = 1;
nodes = (
"815 486 LINE",
"627 1064 LINE",
"588 1212 LINE",
"549 1062 LINE",
"369 486 LINE"
);
},
{
closed = 1;
nodes = (
"545 1771 LINE",
"706 1771 LINE",
"948 1509 LINE",
"867 1456 LINE",
"626 1633 LINE",
"382 1456 LINE",
"307 1507 LINE"
);
}
);
width = 1246;
}
);
note = Acircumflex;
unicode = 00C2;
},
{
glyphname = Adieresis;
layers = (
{
layerId = "2D872161-907C-4693-BC79-717BAF554E8F";
name = Regular;
paths = (
{
closed = 1;
nodes = (
"82 117 LINE",
"516 1350 LINE",
"725 1350 LINE",
"1162 117 LINE",
"1274 96 LINE",
"1274 0 LINE",
"791 0 LINE",
"791 96 LINE",
"935 117 LINE",
"851 374 LINE",
"334 374 LINE",
"253 117 LINE",
"404 96 LINE",
"404 0 LINE",
"-29 0 LINE",
"-30 96 LINE"
);
},
{
closed = 1;
nodes = (
"815 486 LINE",
"627 1064 LINE",
"588 1212 LINE",
"549 1062 LINE",
"369 486 LINE"
);
},
{
closed = 1;
nodes = (
"285 1684 OFFCURVE",
"331 1745 OFFCURVE",
"414 1745 CURVE SMOOTH",
"415 1745 LINE SMOOTH",
"463 1745 OFFCURVE",
"500 1720 OFFCURVE",
"518 1683 CURVE SMOOTH",
"527 1664 OFFCURVE",
"531 1645 OFFCURVE",
"531 1624 CURVE SMOOTH",
"531 1543 OFFCURVE",
"483 1485 OFFCURVE",
"395 1485 CURVE SMOOTH",
"395 1485 LINE SMOOTH",
"330 1485 OFFCURVE",
"285 1537 OFFCURVE",
"285 1604 CURVE SMOOTH"
);
},
{
closed = 1;
nodes = (
"725 1684 OFFCURVE",
"772 1745 OFFCURVE",
"853 1745 CURVE SMOOTH",
"854 1745 LINE SMOOTH",
"903 1745 OFFCURVE",
"940 1720 OFFCURVE",
"958 1683 CURVE SMOOTH",
"967 1664 OFFCURVE",
"971 1645 OFFCURVE",
"971 1624 CURVE SMOOTH",
"971 1543 OFFCURVE",
"924 1485 OFFCURVE",
"836 1485 CURVE SMOOTH",
"835 1485 LINE SMOOTH",
"770 1485 OFFCURVE",
"725 1537 OFFCURVE",
"725 1604 CURVE SMOOTH"
);
}
);
width = 1246;
}
);
note = Adieresis;
unicode = 00C4;
},
{
glyphname = Agrave;
layers = (
{
layerId = "2D872161-907C-4693-BC79-717BAF554E8F";
name = Regular;
paths = (
{
closed = 1;
nodes = (
"82 117 LINE",
"516 1350 LINE",
"725 1350 LINE",
"1162 117 LINE",
"1274 96 LINE",
"1274 0 LINE",
"791 0 LINE",
"791 96 LINE",
"935 117 LINE",
"851 374 LINE",
"334 374 LINE",
"253 117 LINE",
"404 96 LINE",
"404 0 LINE",
"-29 0 LINE",
"-30 96 LINE"
);
},
{
closed = 1;
nodes = (
"815 486 LINE",
"627 1064 LINE",
"588 1212 LINE",
"549 1062 LINE",
"369 486 LINE"
);
},
{
closed = 1;
nodes = (
"481 1771 LINE",
"482 1771 LINE",
"774 1497 LINE",
"703 1437 LINE",
"702 1437 LINE",
"645 1456 OFFCURVE",
"532 1512 OFFCURVE",
"443 1573 CURVE SMOOTH",
"398 1604 OFFCURVE",
"367 1632 OFFCURVE",
"348 1659 CURVE"
);
}
);
width = 1246;
}
);
note = Agrave;
unicode = 00C0;
},
{
glyphname = Amacron;
layers = (
{
layerId = "2D872161-907C-4693-BC79-717BAF554E8F";
name = Regular;
paths = (
{
closed = 1;
nodes = (
"82 117 LINE",
"516 1350 LINE",
"725 1350 LINE",
"1162 117 LINE",
"1274 96 LINE",
"1274 0 LINE",
"791 0 LINE",
"791 96 LINE",
"935 117 LINE",
"851 374 LINE",
"334 374 LINE",
"253 117 LINE",
"404 96 LINE",
"404 0 LINE",
"-29 0 LINE",
"-30 96 LINE"
);
},
{
closed = 1;
nodes = (
"815 486 LINE",
"627 1064 LINE",
"588 1212 LINE",
"549 1062 LINE",
"369 486 LINE"
);
},
{
closed = 1;
nodes = (
"882 1676 LINE",
"882 1536 LINE",
"380 1536 LINE",
"380 1676 LINE"
);
}
);
width = 1246;
}
);
note = Amacron;
unicode = 0100;
},
{
glyphname = Aogonek;
layers = (
{
layerId = "2D872161-907C-4693-BC79-717BAF554E8F";
name = Regular;
paths = (
{
closed = 1;
nodes = (
"82 117 LINE",
"516 1350 LINE",
"725 1350 LINE",
"1162 117 LINE",
"1274 96 LINE",
"1274 0 LINE",
"1136 0 LINE",
"1063 -32 OFFCURVE",
"999 -85 OFFCURVE",
"964 -140 CURVE SMOOTH",
"947 -168 OFFCURVE",
"938 -193 OFFCURVE",
"938 -216 CURVE SMOOTH",
"938 -288 OFFCURVE",
"991 -321 OFFCURVE",
"1070 -321 CURVE SMOOTH",
"1109 -321 OFFCURVE",
"1150 -311 OFFCURVE",
"1195 -292 CURVE",
"1195 -389 LINE",
"1146 -426 OFFCURVE",
"1061 -450 OFFCURVE",
"986 -450 CURVE SMOOTH",
"855 -450 OFFCURVE",
"756 -394 OFFCURVE",
"756 -277 CURVE SMOOTH",
"756 -213 OFFCURVE",
"804 -136 OFFCURVE",
"879 -73 CURVE SMOOTH",
"916 -42 OFFCURVE",
"957 -17 OFFCURVE",
"1001 0 CURVE",
"791 0 LINE",
"791 96 LINE",
"935 117 LINE",
"851 374 LINE",
"334 374 LINE",
"253 117 LINE",
"404 96 LINE",
"404 0 LINE",
"-29 0 LINE",
"-30 96 LINE"
);
},
{
closed = 1;
nodes = (
"815 486 LINE",
"627 1064 LINE",
"588 1212 LINE",
"549 1062 LINE",
"369 486 LINE"
);
}
);
width = 1240;
}
);
note = Aogonek;
unicode = 0104;
},
{
glyphname = Aring;
layers = (
{
layerId = "2D872161-907C-4693-BC79-717BAF554E8F";
name = Regular;
paths = (
{
closed = 1;
nodes = (
"1274 96 LINE",
"1274 0 LINE",
"791 0 LINE",
"791 96 LINE",
"935 117 LINE",
"851 374 LINE",
"334 374 LINE",
"253 117 LINE",
"404 96 LINE",
"404 0 LINE",
"-29 0 LINE",
"-30 96 LINE",
"82 117 LINE",
"511 1338 LINE",
"394 1367 OFFCURVE",
"335 1446 OFFCURVE",
"335 1547 CURVE SMOOTH",
"335 1642 OFFCURVE",
"397 1711 OFFCURVE",
"489 1746 CURVE SMOOTH",
"535 1763 OFFCURVE",
"585 1772 OFFCURVE",
"638 1772 CURVE SMOOTH",
"639 1772 LINE SMOOTH",
"760 1772 OFFCURVE",
"848 1732 OFFCURVE",
"890 1665 CURVE SMOOTH",
"911 1631 OFFCURVE",
"921 1592 OFFCURVE",
"921 1548 CURVE SMOOTH",
"921 1441 OFFCURVE",
"846 1365 OFFCURVE",
"730 1337 CURVE",
"1162 117 LINE"
);
},
{
closed = 1;
nodes = (
"631 1684 LINE SMOOTH",
"528 1684 OFFCURVE",
"477 1640 OFFCURVE",
"477 1551 CURVE SMOOTH",
"477 1472 OFFCURVE",
"529 1412 OFFCURVE",
"630 1412 CURVE SMOOTH",
"631 1412 LINE SMOOTH",
"736 1412 OFFCURVE",
"781 1456 OFFCURVE",
"781 1540 CURVE SMOOTH",
"781 1625 OFFCURVE",
"733 1684 OFFCURVE",
"632 1684 CURVE SMOOTH"
);
},
{
closed = 1;
nodes = (
"815 486 LINE",
"627 1064 LINE",
"588 1212 LINE",
"549 1062 LINE",
"369 486 LINE"
);
}
);
width = 1246;
}
);
note = Aring;
unicode = 00C5;
},
{
glyphname = Atilde;
layers = (
{
layerId = "2D872161-907C-4693-BC79-717BAF554E8F";
name = Regular;
paths = (
{
closed = 1;
nodes = (
"82 117 LINE",
"516 1350 LINE",
"725 1350 LINE",
"1162 117 LINE",
"1274 96 LINE",
"1274 0 LINE",
"791 0 LINE",
"791 96 LINE",
"935 117 LINE",
"851 374 LINE",
"334 374 LINE",
"253 117 LINE",
"404 96 LINE",
"404 0 LINE",
"-29 0 LINE",
"-30 96 LINE"
);
},
{
closed = 1;
nodes = (
"815 486 LINE",
"627 1064 LINE",
"588 1212 LINE",
"549 1062 LINE",
"369 486 LINE"
);
},
{
closed = 1;
nodes = (
"410 1629 OFFCURVE",
"373 1583 OFFCURVE",
"354 1552 CURVE",
"344 1537 OFFCURVE",
"338 1527 OFFCURVE",
"336 1524 CURVE",
"251 1580 LINE",
"268 1636 OFFCURVE",
"316 1699 OFFCURVE",
"387 1738 CURVE SMOOTH",
"422 1757 OFFCURVE",
"461 1767 OFFCURVE",
"504 1767 CURVE SMOOTH",
"553 1767 OFFCURVE",
"594 1748 OFFCURVE",
"624 1727 CURVE SMOOTH",
"639 1716 OFFCURVE",
"656 1702 OFFCURVE",
"676 1683 CURVE SMOOTH",
"724 1640 OFFCURVE",
"750 1621 OFFCURVE",
"791 1621 CURVE SMOOTH",
"852 1621 OFFCURVE",
"886 1664 OFFCURVE",
"903 1696 CURVE SMOOTH",
"912 1712 OFFCURVE",
"917 1722 OFFCURVE",
"920 1727 CURVE",
"1006 1670 LINE",
"966 1562 OFFCURVE",
"887 1482 OFFCURVE",
"772 1482 CURVE SMOOTH",
"703 1482 OFFCURVE",
"660 1511 OFFCURVE",
"600 1564 CURVE SMOOTH",
"547 1608 OFFCURVE",
"517 1629 OFFCURVE",
"473 1629 CURVE SMOOTH"
);
}
);
width = 1246;
}
);
note = Atilde;
unicode = 00C3;
},
{
glyphname = AE;
layers = (
{
layerId = "2D872161-907C-4693-BC79-717BAF554E8F";
name = Regular;
paths = (
{
closed = 1;
nodes = (
"716 114 LINE",
"716 382 LINE",
"261 382 LINE",
"154 114 LINE",
"288 93 LINE",
"288 0 LINE",
"-155 0 LINE",
"-155 93 LINE",
"-25 116 LINE",
"463 1221 LINE",
"231 1243 LINE",
"231 1339 LINE",
"1486 1339 LINE",
"1514 1058 LINE",
"1402 1058 LINE",
"1344 1229 LINE",
"921 1240 LINE",
"921 740 LINE",
"1206 745 LINE",
"1233 891 LINE",
"1345 891 LINE",
"1345 479 LINE",
"1233 479 LINE",
"1206 629 LINE",
"921 634 LINE",
"921 108 LINE",
"1411 128 LINE",
"1522 350 LINE",
"1638 317 LINE",
"1572 0 LINE",
"567 0 LINE",
"567 94 LINE"
);
},
{
closed = 1;
nodes = (
"716 496 LINE",
"716 1232 LINE",
"606 1232 LINE",
"512 1003 LINE",
"308 496 LINE"
);
}
);
width = 1660;
}
);
note = AE;
unicode = 00C6;
},
{
glyphname = AEacute;
layers = (
{
layerId = "2D872161-907C-4693-BC79-717BAF554E8F";
name = Regular;
paths = (
{
closed = 1;
nodes = (
"1018 1771 LINE",
"1019 1771 LINE",
"1153 1659 LINE",
"1112 1603 OFFCURVE",
"1010 1538 OFFCURVE",
"913 1488 CURVE SMOOTH",
"864 1463 OFFCURVE",
"826 1446 OFFCURVE",
"798 1437 CURVE",
"797 1437 LINE",
"727 1497 LINE"
);
},
{
closed = 1;
nodes = (
"716 114 LINE",
"716 382 LINE",
"261 382 LINE",
"154 114 LINE",
"288 93 LINE",
"288 0 LINE",
"-155 0 LINE",
"-155 93 LINE",
"-25 116 LINE",
"463 1221 LINE",
"231 1243 LINE",
"231 1339 LINE",
"1486 1339 LINE",
"1514 1058 LINE",
"1402 1058 LINE",
"1344 1229 LINE",
"921 1240 LINE",
"921 740 LINE",
"1206 745 LINE",
"1233 891 LINE",
"1345 891 LINE",
"1345 479 LINE",
"1233 479 LINE",
"1206 629 LINE",
"921 634 LINE",
"921 108 LINE",
"1411 128 LINE",
"1522 350 LINE",
"1638 317 LINE",
"1572 0 LINE",
"567 0 LINE",
"567 94 LINE"
);
},
{
closed = 1;
nodes = (
"716 496 LINE",
"716 1232 LINE",
"606 1232 LINE",
"512 1003 LINE",
"308 496 LINE"
);
}
);
width = 1660;
}
);
note = AEacute;
unicode = 01FC;
},
{
glyphname = B;
layers = (
{
layerId = "2D872161-907C-4693-BC79-717BAF554E8F";
name = Regular;
paths = (
{
closed = 1;
nodes = (
"232 117 LINE",
"232 1220 LINE",
"87 1242 LINE",
"87 1339 LINE",
"326 1339 LINE SMOOTH",
"366 1339 OFFCURVE",
"417 1341 OFFCURVE",
"480 1346 CURVE SMOOTH",
"528 1351 OFFCURVE",
"569 1353 OFFCURVE",
"604 1353 CURVE SMOOTH",
"933 1353 OFFCURVE",
"1074 1249 OFFCURVE",
"1074 1049 CURVE SMOOTH",
"1074 937 OFFCURVE",
"1029 842 OFFCURVE",
"949 781 CURVE SMOOTH",
"908 750 OFFCURVE",
"860 729 OFFCURVE",
"804 718 CURVE",
"951 722 OFFCURVE",
"1064 667 OFFCURVE",
"1124 570 CURVE SMOOTH",
"1154 521 OFFCURVE",
"1169 465 OFFCURVE",
"1169 400 CURVE SMOOTH",
"1169 157 OFFCURVE",
"1012 -11 OFFCURVE",
"617 -11 CURVE SMOOTH",
"573 -11 OFFCURVE",
"517 -7 OFFCURVE",
"497 -6 CURVE SMOOTH",
"426 -2 OFFCURVE",
"370 0 OFFCURVE",
"328 0 CURVE SMOOTH",
"84 0 LINE",
"84 96 LINE"
);
},
{
closed = 1;
nodes = (
"438 758 LINE",
"468 755 OFFCURVE",
"528 754 OFFCURVE",
"619 754 CURVE SMOOTH",
"785 754 OFFCURVE",
"868 840 OFFCURVE",
"868 1012 CURVE SMOOTH",
"868 1123 OFFCURVE",
"835 1190 OFFCURVE",
"755 1225 CURVE SMOOTH",
"715 1242 OFFCURVE",
"661 1251 OFFCURVE",
"593 1251 CURVE SMOOTH",
"551 1251 OFFCURVE",
"516 1250 OFFCURVE",
"488 1247 CURVE SMOOTH",
"459 1244 OFFCURVE",
"443 1242 OFFCURVE",
"438 1241 CURVE"
);
},
{
closed = 1;
nodes = (
"437 108 LINE",
"465 96 OFFCURVE",
"529 92 OFFCURVE",
"612 92 CURVE SMOOTH",
"847 92 OFFCURVE",
"945 190 OFFCURVE",
"945 370 CURVE SMOOTH",
"945 501 OFFCURVE",
"906 579 OFFCURVE",
"818 616 CURVE SMOOTH",
"773 634 OFFCURVE",
"715 643 OFFCURVE",
"642 643 CURVE SMOOTH",
"557 643 LINE SMOOTH",
"496 643 OFFCURVE",
"456 643 OFFCURVE",
"437 642 CURVE"
);
}
);
width = 1232;
}
);
note = B;
unicode = 0042;
},
{
glyphname = C;
layers = (
{
layerId = "2D872161-907C-4693-BC79-717BAF554E8F";
name = Regular;
paths = (
{
closed = 1;
nodes = (
"58 947 OFFCURVE",
"181 1161 OFFCURVE",
"379 1271 CURVE SMOOTH",
"478 1326 OFFCURVE",
"588 1353 OFFCURVE",
"711 1353 CURVE SMOOTH",
"824 1353 OFFCURVE",
"920 1336 OFFCURVE",
"1052 1309 CURVE SMOOTH",
"1100 1299 LINE",
"1083 970 LINE",
"952 970 LINE",
"903 1194 LINE",
"890 1211 OFFCURVE",
"865 1224 OFFCURVE",
"828 1234 CURVE SMOOTH",
"791 1243 OFFCURVE",
"741 1248 OFFCURVE",
"680 1248 CURVE SMOOTH",
"531 1248 OFFCURVE",
"410 1161 OFFCURVE",
"346 994 CURVE SMOOTH",
"313 911 OFFCURVE",
"297 810 OFFCURVE",
"297 692 CURVE SMOOTH",
"297 473 OFFCURVE",
"354 281 OFFCURVE",
"475 169 CURVE SMOOTH",
"536 112 OFFCURVE",
"611 84 OFFCURVE",
"702 84 CURVE SMOOTH",
"797 84 OFFCURVE",
"865 106 OFFCURVE",
"906 150 CURVE",
"982 335 LINE",
"1107 319 LINE",
"1068 49 LINE",
"1037 48 OFFCURVE",
"1013 40 OFFCURVE",
"965 24 CURVE SMOOTH",
"886 -4 OFFCURVE",
"823 -20 OFFCURVE",
"716 -20 CURVE SMOOTH",
"437 -20 OFFCURVE",
"237 92 OFFCURVE",
"135 299 CURVE SMOOTH",
"84 402 OFFCURVE",
"58 526 OFFCURVE",
"58 671 CURVE SMOOTH"
);
}
);
width = 1174;
}
);
note = C;
unicode = 0043;
},
{
glyphname = Cacute;
layers = (
{
layerId = "2D872161-907C-4693-BC79-717BAF554E8F";
name = Regular;
paths = (
{
closed = 1;
nodes = (
"58 947 OFFCURVE",
"181 1161 OFFCURVE",
"379 1271 CURVE SMOOTH",
"478 1326 OFFCURVE",
"588 1353 OFFCURVE",
"711 1353 CURVE SMOOTH",
"824 1353 OFFCURVE",
"920 1336 OFFCURVE",
"1052 1309 CURVE SMOOTH",
"1100 1299 LINE",
"1083 970 LINE",
"952 970 LINE",
"903 1194 LINE",
"890 1211 OFFCURVE",
"865 1224 OFFCURVE",
"828 1234 CURVE SMOOTH",
"791 1243 OFFCURVE",
"741 1248 OFFCURVE",
"680 1248 CURVE SMOOTH",
"531 1248 OFFCURVE",
"410 1161 OFFCURVE",
"346 994 CURVE SMOOTH",
"313 911 OFFCURVE",
"297 810 OFFCURVE",
"297 692 CURVE SMOOTH",
"297 473 OFFCURVE",
"354 281 OFFCURVE",
"475 169 CURVE SMOOTH",
"536 112 OFFCURVE",
"611 84 OFFCURVE",
"702 84 CURVE SMOOTH",
"797 84 OFFCURVE",
"865 106 OFFCURVE",
"906 150 CURVE",
"982 335 LINE",
"1107 319 LINE",
"1068 49 LINE",
"1037 48 OFFCURVE",
"1013 40 OFFCURVE",
"965 24 CURVE SMOOTH",
"886 -4 OFFCURVE",
"823 -20 OFFCURVE",
"716 -20 CURVE SMOOTH",
"437 -20 OFFCURVE",
"237 92 OFFCURVE",
"135 299 CURVE SMOOTH",
"84 402 OFFCURVE",
"58 526 OFFCURVE",
"58 671 CURVE SMOOTH"
);
},
{
closed = 1;
nodes = (
"854 1771 LINE",
"855 1771 LINE",
"989 1659 LINE",
"948 1603 OFFCURVE",
"846 1538 OFFCURVE",
"749 1488 CURVE SMOOTH",
"700 1463 OFFCURVE",
"662 1446 OFFCURVE",
"634 1437 CURVE",
"633 1437 LINE",
"563 1497 LINE"
);
}
);
width = 1174;
}
);
note = Cacute;
unicode = 0106;
},
{
glyphname = Ccaron;
layers = (
{
layerId = "2D872161-907C-4693-BC79-717BAF554E8F";
name = Regular;
paths = (
{
closed = 1;
nodes = (
"58 947 OFFCURVE",
"181 1161 OFFCURVE",
"379 1271 CURVE SMOOTH",
"478 1326 OFFCURVE",
"588 1353 OFFCURVE",
"711 1353 CURVE SMOOTH",
"824 1353 OFFCURVE",
"920 1336 OFFCURVE",
"1052 1309 CURVE SMOOTH",
"1100 1299 LINE",
"1083 970 LINE",
"952 970 LINE",
"903 1194 LINE",
"890 1211 OFFCURVE",
"865 1224 OFFCURVE",
"828 1234 CURVE SMOOTH",
"791 1243 OFFCURVE",
"741 1248 OFFCURVE",
"680 1248 CURVE SMOOTH",
"531 1248 OFFCURVE",
"410 1161 OFFCURVE",
"346 994 CURVE SMOOTH",
"313 911 OFFCURVE",
"297 810 OFFCURVE",
"297 692 CURVE SMOOTH",
"297 473 OFFCURVE",
"354 281 OFFCURVE",
"475 169 CURVE SMOOTH",
"536 112 OFFCURVE",
"611 84 OFFCURVE",
"702 84 CURVE SMOOTH",
"797 84 OFFCURVE",
"865 106 OFFCURVE",
"906 150 CURVE",
"982 335 LINE",
"1107 319 LINE",
"1068 49 LINE",
"1037 48 OFFCURVE",
"1013 40 OFFCURVE",
"965 24 CURVE SMOOTH",
"886 -4 OFFCURVE",
"823 -20 OFFCURVE",
"716 -20 CURVE SMOOTH",
"437 -20 OFFCURVE",
"237 92 OFFCURVE",
"135 299 CURVE SMOOTH",
"84 402 OFFCURVE",
"58 526 OFFCURVE",
"58 671 CURVE SMOOTH"
);
},
{
closed = 1;
nodes = (
"466 1771 LINE",
"690 1605 LINE",
"923 1771 LINE",
"997 1720 LINE",
"771 1475 LINE",
"610 1475 LINE",
"386 1718 LINE"
);
}
);
width = 1174;
}
);
note = Ccaron;
unicode = 010C;
},
{
glyphname = Ccedilla;
layers = (
{
layerId = "2D872161-907C-4693-BC79-717BAF554E8F";
name = Regular;
paths = (
{
closed = 1;
nodes = (
"1068 49 LINE",
"1037 48 OFFCURVE",
"1013 40 OFFCURVE",
"965 24 CURVE SMOOTH",
"886 -4 OFFCURVE",
"823 -20 OFFCURVE",
"716 -20 CURVE SMOOTH",
"707 -20 LINE",
"756 -79 OFFCURVE",
"801 -165 OFFCURVE",
"801 -246 CURVE SMOOTH",
"801 -382 OFFCURVE",
"724 -435 OFFCURVE",
"568 -435 CURVE SMOOTH",
"568 -435 LINE SMOOTH",
"527 -435 OFFCURVE",
"472 -426 OFFCURVE",
"441 -411 CURVE",
"442 -276 LINE",
"463 -284 OFFCURVE",
"500 -289 OFFCURVE",
"517 -289 CURVE SMOOTH",
"518 -289 LINE SMOOTH",
"579 -289 OFFCURVE",
"612 -281 OFFCURVE",
"630 -245 CURVE SMOOTH",
"639 -227 OFFCURVE",
"643 -200 OFFCURVE",
"643 -165 CURVE SMOOTH",
"643 -116 OFFCURVE",
"621 -56 OFFCURVE",
"598 -13 CURVE",
"366 16 OFFCURVE",
"204 136 OFFCURVE",
"121 330 CURVE SMOOTH",
"79 427 OFFCURVE",
"58 540 OFFCURVE",
"58 671 CURVE SMOOTH",
"58 947 OFFCURVE",
"181 1161 OFFCURVE",
"379 1271 CURVE SMOOTH",
"478 1326 OFFCURVE",
"588 1353 OFFCURVE",
"711 1353 CURVE SMOOTH",
"824 1353 OFFCURVE",
"920 1336 OFFCURVE",
"1052 1309 CURVE SMOOTH",
"1100 1299 LINE",
"1083 970 LINE",
"952 970 LINE",
"903 1194 LINE",
"890 1211 OFFCURVE",
"865 1224 OFFCURVE",
"828 1234 CURVE SMOOTH",
"791 1243 OFFCURVE",
"741 1248 OFFCURVE",
"680 1248 CURVE SMOOTH",
"531 1248 OFFCURVE",
"410 1161 OFFCURVE",
"346 994 CURVE SMOOTH",
"313 911 OFFCURVE",
"297 810 OFFCURVE",
"297 692 CURVE SMOOTH",
"297 473 OFFCURVE",
"354 281 OFFCURVE",
"475 169 CURVE SMOOTH",
"536 112 OFFCURVE",
"611 84 OFFCURVE",
"702 84 CURVE SMOOTH",
"797 84 OFFCURVE",
"865 106 OFFCURVE",
"906 150 CURVE",
"982 335 LINE",
"1107 319 LINE"
);
}
);
width = 1174;
}
);
note = Ccedilla;
unicode = 00C7;
},
{
glyphname = Ccircumflex;
layers = (
{
layerId = "2D872161-907C-4693-BC79-717BAF554E8F";
name = Regular;
paths = (
{
closed = 1;
nodes = (
"58 947 OFFCURVE",
"181 1161 OFFCURVE",
"379 1271 CURVE SMOOTH",
"478 1326 OFFCURVE",
"588 1353 OFFCURVE",
"711 1353 CURVE SMOOTH",
"824 1353 OFFCURVE",
"920 1336 OFFCURVE",
"1052 1309 CURVE SMOOTH",
"1100 1299 LINE",
"1083 970 LINE",
"952 970 LINE",
"903 1194 LINE",
"890 1211 OFFCURVE",
"865 1224 OFFCURVE",
"828 1234 CURVE SMOOTH",
"791 1243 OFFCURVE",
"741 1248 OFFCURVE",
"680 1248 CURVE SMOOTH",
"531 1248 OFFCURVE",
"410 1161 OFFCURVE",
"346 994 CURVE SMOOTH",
"313 911 OFFCURVE",
"297 810 OFFCURVE",
"297 692 CURVE SMOOTH",
"297 473 OFFCURVE",
"354 281 OFFCURVE",
"475 169 CURVE SMOOTH",
"536 112 OFFCURVE",
"611 84 OFFCURVE",
"702 84 CURVE SMOOTH",
"797 84 OFFCURVE",
"865 106 OFFCURVE",
"906 150 CURVE",
"982 335 LINE",
"1107 319 LINE",
"1068 49 LINE",
"1037 48 OFFCURVE",
"1013 40 OFFCURVE",
"965 24 CURVE SMOOTH",
"886 -4 OFFCURVE",
"823 -20 OFFCURVE",
"716 -20 CURVE SMOOTH",
"437 -20 OFFCURVE",
"237 92 OFFCURVE",
"135 299 CURVE SMOOTH",
"84 402 OFFCURVE",
"58 526 OFFCURVE",
"58 671 CURVE SMOOTH"
);
},
{
closed = 1;
nodes = (
"608 1771 LINE",
"769 1771 LINE",
"1011 1509 LINE",
"930 1456 LINE",
"689 1633 LINE",
"445 1456 LINE",
"370 1507 LINE"
);
}
);
width = 1174;
}
);
note = Ccircumflex;
unicode = 0108;
},
{
glyphname = Cdotaccent;
layers = (
{
layerId = "2D872161-907C-4693-BC79-717BAF554E8F";
name = Regular;
paths = (
{
closed = 1;
nodes = (
"564 1688 OFFCURVE",
"613 1748 OFFCURVE",
"694 1748 CURVE SMOOTH",
"695 1748 LINE SMOOTH",
"770 1748 OFFCURVE",
"816 1692 OFFCURVE",
"816 1627 CURVE SMOOTH",
"816 1546 OFFCURVE",
"768 1490 OFFCURVE",
"680 1490 CURVE SMOOTH",
"679 1490 LINE SMOOTH",
"611 1490 OFFCURVE",
"564 1541 OFFCURVE",
"564 1609 CURVE SMOOTH"
);
},
{
closed = 1;
nodes = (
"58 947 OFFCURVE",
"181 1161 OFFCURVE",
"379 1271 CURVE SMOOTH",
"478 1326 OFFCURVE",
"588 1353 OFFCURVE",
"711 1353 CURVE SMOOTH",
"824 1353 OFFCURVE",
"920 1336 OFFCURVE",
"1052 1309 CURVE SMOOTH",
"1100 1299 LINE",
"1083 970 LINE",
"952 970 LINE",
"903 1194 LINE",
"890 1211 OFFCURVE",
"865 1224 OFFCURVE",
"828 1234 CURVE SMOOTH",
"791 1243 OFFCURVE",
"741 1248 OFFCURVE",
"680 1248 CURVE SMOOTH",
"531 1248 OFFCURVE",
"410 1161 OFFCURVE",
"346 994 CURVE SMOOTH",
"313 911 OFFCURVE",
"297 810 OFFCURVE",
"297 692 CURVE SMOOTH",
"297 473 OFFCURVE",
"354 281 OFFCURVE",
"475 169 CURVE SMOOTH",
"536 112 OFFCURVE",
"611 84 OFFCURVE",
"702 84 CURVE SMOOTH",
"797 84 OFFCURVE",
"865 106 OFFCURVE",
"906 150 CURVE",
"982 335 LINE",
"1107 319 LINE",
"1068 49 LINE",
"1037 48 OFFCURVE",
"1013 40 OFFCURVE",
"965 24 CURVE SMOOTH",
"886 -4 OFFCURVE",
"823 -20 OFFCURVE",
"716 -20 CURVE SMOOTH",
"437 -20 OFFCURVE",
"237 92 OFFCURVE",
"135 299 CURVE SMOOTH",
"84 402 OFFCURVE",
"58 526 OFFCURVE",
"58 671 CURVE SMOOTH"
);
}
);
width = 1174;
}
);
note = Cdotaccent;
unicode = 010A;
},
{
glyphname = D;
layers = (
{
layerId = "2D872161-907C-4693-BC79-717BAF554E8F";
name = Regular;
paths = (
{
closed = 1;
nodes = (
"232 117 LINE",
"232 1219 LINE",
"93 1242 LINE",
"93 1339 LINE",
"328 1339 LINE SMOOTH",
"387 1339 OFFCURVE",
"465 1345 OFFCURVE",
"485 1346 CURVE SMOOTH",
"554 1351 OFFCURVE",
"608 1353 OFFCURVE",
"645 1353 CURVE SMOOTH",
"1094 1353 OFFCURVE",
"1310 1117 OFFCURVE",
"1310 712 CURVE SMOOTH",
"1310 427 OFFCURVE",
"1193 200 OFFCURVE",
"992 78 CURVE SMOOTH",
"891 17 OFFCURVE",
"776 -14 OFFCURVE",
"645 -14 CURVE SMOOTH",
"615 -14 OFFCURVE",
"565 -12 OFFCURVE",
"495 -7 CURVE SMOOTH",
"422 -2 OFFCURVE",
"369 0 OFFCURVE",
"337 0 CURVE SMOOTH",
"84 0 LINE",
"84 96 LINE"
);
},
{
closed = 1;
nodes = (
"438 108 LINE",
"487 96 OFFCURVE",
"538 92 OFFCURVE",
"605 92 CURVE SMOOTH",
"646 92 LINE SMOOTH",
"819 95 OFFCURVE",
"955 184 OFFCURVE",
"1030 357 CURVE SMOOTH",
"1067 444 OFFCURVE",
"1086 549 OFFCURVE",
"1086 674 CURVE SMOOTH",
"1086 1053 OFFCURVE",
"925 1249 OFFCURVE",
"598 1249 CURVE SMOOTH",
"563 1249 OFFCURVE",
"519 1246 OFFCURVE",
"466 1240 CURVE SMOOTH",
"438 1237 LINE"
);
}
);
width = 1373;
}
);
note = D;
unicode = 0044;
},
{
glyphname = Eth;
layers = (
{
layerId = "2D872161-907C-4693-BC79-717BAF554E8F";
name = Regular;
paths = (
{
closed = 1;
nodes = (
"232 749 LINE",
"232 1219 LINE",
"93 1242 LINE",
"93 1339 LINE",
"328 1339 LINE SMOOTH",
"387 1339 OFFCURVE",
"465 1345 OFFCURVE",
"485 1346 CURVE SMOOTH",
"554 1351 OFFCURVE",
"608 1353 OFFCURVE",
"645 1353 CURVE SMOOTH",
"1094 1353 OFFCURVE",
"1310 1117 OFFCURVE",
"1310 712 CURVE SMOOTH",
"1310 427 OFFCURVE",
"1193 200 OFFCURVE",
"992 78 CURVE SMOOTH",
"891 17 OFFCURVE",
"776 -14 OFFCURVE",
"645 -14 CURVE SMOOTH",
"615 -14 OFFCURVE",
"565 -12 OFFCURVE",
"495 -7 CURVE SMOOTH",
"422 -2 OFFCURVE",
"369 0 OFFCURVE",
"337 0 CURVE SMOOTH",
"84 0 LINE",
"84 96 LINE",
"232 117 LINE",
"232 647 LINE",
"99 647 LINE",
"99 749 LINE"
);
},
{
closed = 1;
nodes = (
"738 749 LINE",
"738 647 LINE",
"438 647 LINE",
"438 108 LINE",
"487 96 OFFCURVE",
"538 92 OFFCURVE",
"605 92 CURVE SMOOTH",
"646 92 LINE SMOOTH",
"819 95 OFFCURVE",
"955 184 OFFCURVE",
"1030 357 CURVE SMOOTH",
"1067 444 OFFCURVE",
"1086 549 OFFCURVE",
"1086 674 CURVE SMOOTH",
"1086 1053 OFFCURVE",
"925 1249 OFFCURVE",
"598 1249 CURVE SMOOTH",
"563 1249 OFFCURVE",
"519 1246 OFFCURVE",
"466 1240 CURVE SMOOTH",
"438 1237 LINE",
"438 749 LINE"
);
}
);
width = 1373;
}
);
note = Eth;
unicode = 00D0;
},
{
glyphname = Dcaron;
layers = (
{
layerId = "2D872161-907C-4693-BC79-717BAF554E8F";
name = Regular;
paths = (
{
closed = 1;
nodes = (
"483 1771 LINE",
"707 1605 LINE",
"940 1771 LINE",
"1014 1720 LINE",
"788 1475 LINE",
"627 1475 LINE",
"403 1718 LINE"
);
},
{
closed = 1;
nodes = (
"232 117 LINE",
"232 1219 LINE",
"93 1242 LINE",
"93 1339 LINE",
"328 1339 LINE SMOOTH",
"387 1339 OFFCURVE",
"465 1345 OFFCURVE",
"485 1346 CURVE SMOOTH",
"554 1351 OFFCURVE",
"608 1353 OFFCURVE",
"645 1353 CURVE SMOOTH",
"1094 1353 OFFCURVE",
"1310 1117 OFFCURVE",
"1310 712 CURVE SMOOTH",
"1310 427 OFFCURVE",
"1193 200 OFFCURVE",
"992 78 CURVE SMOOTH",
"891 17 OFFCURVE",
"776 -14 OFFCURVE",
"645 -14 CURVE SMOOTH",
"615 -14 OFFCURVE",
"565 -12 OFFCURVE",
"495 -7 CURVE SMOOTH",
"422 -2 OFFCURVE",
"369 0 OFFCURVE",
"337 0 CURVE SMOOTH",
"84 0 LINE",
"84 96 LINE"
);
},
{
closed = 1;
nodes = (
"438 108 LINE",
"487 96 OFFCURVE",
"538 92 OFFCURVE",
"605 92 CURVE SMOOTH",
"646 92 LINE SMOOTH",
"819 95 OFFCURVE",
"955 184 OFFCURVE",
"1030 357 CURVE SMOOTH",
"1067 444 OFFCURVE",
"1086 549 OFFCURVE",
"1086 674 CURVE SMOOTH",
"1086 1053 OFFCURVE",
"925 1249 OFFCURVE",
"598 1249 CURVE SMOOTH",
"563 1249 OFFCURVE",
"519 1246 OFFCURVE",
"466 1240 CURVE SMOOTH",
"438 1237 LINE"
);
}
);
width = 1373;
}
);
note = Dcaron;
unicode = 010E;
},
{
glyphname = Dcroat;
layers = (
{
layerId = "2D872161-907C-4693-BC79-717BAF554E8F";
name = Regular;
paths = (
{
closed = 1;
nodes = (
"232 744 LINE",
"232 1219 LINE",
"93 1242 LINE",
"93 1339 LINE",
"328 1339 LINE SMOOTH",
"387 1339 OFFCURVE",
"465 1345 OFFCURVE",
"485 1346 CURVE SMOOTH",
"554 1351 OFFCURVE",
"608 1353 OFFCURVE",
"645 1353 CURVE SMOOTH",
"1094 1353 OFFCURVE",
"1310 1117 OFFCURVE",
"1310 712 CURVE SMOOTH",
"1310 427 OFFCURVE",
"1193 200 OFFCURVE",
"992 78 CURVE SMOOTH",
"891 17 OFFCURVE",
"776 -14 OFFCURVE",
"645 -14 CURVE SMOOTH",
"615 -14 OFFCURVE",
"565 -12 OFFCURVE",
"495 -7 CURVE SMOOTH",
"422 -2 OFFCURVE",
"369 0 OFFCURVE",
"337 0 CURVE SMOOTH",
"84 0 LINE",
"84 96 LINE",
"232 117 LINE",
"232 630 LINE",
"95 630 LINE",
"95 744 LINE"
);
},
{
closed = 1;
nodes = (
"736 744 LINE",
"736 630 LINE",
"438 630 LINE",
"438 108 LINE",
"487 96 OFFCURVE",
"538 92 OFFCURVE",
"605 92 CURVE SMOOTH",
"646 92 LINE SMOOTH",
"819 95 OFFCURVE",
"955 184 OFFCURVE",
"1030 357 CURVE SMOOTH",
"1067 444 OFFCURVE",
"1086 549 OFFCURVE",
"1086 674 CURVE SMOOTH",
"1086 1053 OFFCURVE",
"925 1249 OFFCURVE",
"598 1249 CURVE SMOOTH",
"563 1249 OFFCURVE",
"519 1246 OFFCURVE",
"466 1240 CURVE SMOOTH",
"438 1237 LINE",
"438 744 LINE"
);
}
);
width = 1373;
}
);
note = Dcroat;
unicode = 0110;
},
{
glyphname = E;
layers = (
{
layerId = "2D872161-907C-4693-BC79-717BAF554E8F";
name = Regular;
paths = (
{
closed = 1;
nodes = (
"232 117 LINE",
"232 1220 LINE",
"87 1242 LINE",
"87 1339 LINE",
"1004 1339 LINE",
"1029 1060 LINE",
"915 1060 LINE",
"861 1228 LINE",
"439 1239 LINE",
"439 742 LINE",
"725 747 LINE",
"752 893 LINE",
"865 893 LINE",
"865 476 LINE",
"752 476 LINE",
"726 631 LINE",
"439 635 LINE",
"439 109 LINE",
"923 128 LINE",
"1023 349 LINE",
"1135 316 LINE",
"1083 0 LINE",
"84 0 LINE",
"84 96 LINE"
);
}
);
width = 1178;
}
);
note = E;
unicode = 0045;
},
{
glyphname = Eacute;
layers = (
{
layerId = "2D872161-907C-4693-BC79-717BAF554E8F";
name = Regular;
paths = (
{
closed = 1;
nodes = (
"775 1771 LINE",
"776 1771 LINE",
"910 1659 LINE",
"869 1603 OFFCURVE",
"767 1538 OFFCURVE",
"670 1488 CURVE SMOOTH",
"621 1463 OFFCURVE",
"583 1446 OFFCURVE",
"555 1437 CURVE",
"554 1437 LINE",
"484 1497 LINE"
);
},
{
closed = 1;
nodes = (
"232 117 LINE",
"232 1220 LINE",
"87 1242 LINE",
"87 1339 LINE",
"1004 1339 LINE",
"1029 1060 LINE",
"915 1060 LINE",
"861 1228 LINE",
"439 1239 LINE",
"439 742 LINE",
"725 747 LINE",
"752 893 LINE",
"865 893 LINE",
"865 476 LINE",
"752 476 LINE",
"726 631 LINE",
"439 635 LINE",
"439 109 LINE",
"923 128 LINE",
"1023 349 LINE",
"1135 316 LINE",
"1083 0 LINE",
"84 0 LINE",
"84 96 LINE"
);
}
);
width = 1178;
}
);
note = Eacute;
unicode = 00C9;
},
{
glyphname = Ebreve;
layers = (
{
layerId = "2D872161-907C-4693-BC79-717BAF554E8F";
name = Regular;
paths = (
{
closed = 1;
nodes = (
"312 1738 OFFCURVE",
"313 1750 OFFCURVE",
"314 1758 CURVE",
"420 1758 LINE",
"420 1749 OFFCURVE",
"421 1741 OFFCURVE",
"423 1734 CURVE",
"434 1665 OFFCURVE",
"489 1595 OFFCURVE",
"617 1595 CURVE SMOOTH",
"745 1595 OFFCURVE",
"797 1664 OFFCURVE",
"806 1735 CURVE SMOOTH",
"807 1742 OFFCURVE",
"807 1750 OFFCURVE",
"807 1758 CURVE",
"912 1758 LINE",
"913 1750 OFFCURVE",
"914 1738 OFFCURVE",
"914 1722 CURVE SMOOTH",
"914 1619 OFFCURVE",
"866 1531 OFFCURVE",
"776 1483 CURVE SMOOTH",
"731 1458 OFFCURVE",
"677 1446 OFFCURVE",
"616 1446 CURVE SMOOTH",
"488 1446 OFFCURVE",
"394 1497 OFFCURVE",
"347 1581 CURVE SMOOTH",
"324 1623 OFFCURVE",
"312 1670 OFFCURVE",
"312 1721 CURVE SMOOTH"
);
},
{
closed = 1;
nodes = (
"232 117 LINE",
"232 1220 LINE",
"87 1242 LINE",
"87 1339 LINE",
"1004 1339 LINE",
"1029 1060 LINE",
"915 1060 LINE",
"861 1228 LINE",
"439 1239 LINE",
"439 742 LINE",
"725 747 LINE",
"752 893 LINE",
"865 893 LINE",
"865 476 LINE",
"752 476 LINE",
"726 631 LINE",
"439 635 LINE",
"439 109 LINE",
"923 128 LINE",
"1023 349 LINE",
"1135 316 LINE",
"1083 0 LINE",
"84 0 LINE",
"84 96 LINE"
);
}
);
width = 1178;
}
);
note = Ebreve;
unicode = 0114;
},
{
glyphname = Ecaron;
layers = (
{
layerId = "2D872161-907C-4693-BC79-717BAF554E8F";
name = Regular;
paths = (
{
closed = 1;
nodes = (
"391 1771 LINE",
"615 1605 LINE",
"848 1771 LINE",
"922 1720 LINE",
"696 1475 LINE",
"535 1475 LINE",
"311 1718 LINE"
);
},
{
closed = 1;
nodes = (
"232 117 LINE",
"232 1220 LINE",
"87 1242 LINE",
"87 1339 LINE",
"1004 1339 LINE",
"1029 1060 LINE",
"915 1060 LINE",
"861 1228 LINE",
"439 1239 LINE",
"439 742 LINE",
"725 747 LINE",
"752 893 LINE",
"865 893 LINE",
"865 476 LINE",
"752 476 LINE",
"726 631 LINE",
"439 635 LINE",
"439 109 LINE",
"923 128 LINE",
"1023 349 LINE",
"1135 316 LINE",
"1083 0 LINE",
"84 0 LINE",
"84 96 LINE"
);
}
);
width = 1178;
}
);
note = Ecaron;
unicode = 011A;
},
{
glyphname = Ecircumflex;
layers = (
{
layerId = "2D872161-907C-4693-BC79-717BAF554E8F";
name = Regular;
paths = (
{
closed = 1;
nodes = (
"232 117 LINE",
"232 1220 LINE",
"87 1242 LINE",
"87 1339 LINE",
"1004 1339 LINE",
"1029 1060 LINE",
"915 1060 LINE",
"861 1228 LINE",
"439 1239 LINE",
"439 742 LINE",
"725 747 LINE",
"752 893 LINE",
"865 893 LINE",
"865 476 LINE",
"752 476 LINE",
"726 631 LINE",
"439 635 LINE",
"439 109 LINE",
"923 128 LINE",
"1023 349 LINE",
"1135 316 LINE",
"1083 0 LINE",
"84 0 LINE",
"84 96 LINE"
);
},
{
closed = 1;
nodes = (
"532 1771 LINE",
"693 1771 LINE",
"935 1509 LINE",
"854 1456 LINE",
"613 1633 LINE",
"369 1456 LINE",
"294 1507 LINE"
);
}
);
width = 1178;
}
);
note = Ecircumflex;
unicode = 00CA;
},
{
glyphname = Edieresis;
layers = (
{
layerId = "2D872161-907C-4693-BC79-717BAF554E8F";
name = Regular;
paths = (
{
closed = 1;
nodes = (
"271 1684 OFFCURVE",
"317 1745 OFFCURVE",
"400 1745 CURVE SMOOTH",
"401 1745 LINE SMOOTH",
"449 1745 OFFCURVE",
"486 1720 OFFCURVE",
"504 1683 CURVE SMOOTH",
"513 1664 OFFCURVE",
"517 1645 OFFCURVE",
"517 1624 CURVE SMOOTH",
"517 1543 OFFCURVE",
"469 1485 OFFCURVE",
"381 1485 CURVE SMOOTH",
"381 1485 LINE SMOOTH",
"316 1485 OFFCURVE",
"271 1537 OFFCURVE",
"271 1604 CURVE SMOOTH"
);
},
{
closed = 1;
nodes = (
"711 1684 OFFCURVE",
"758 1745 OFFCURVE",
"839 1745 CURVE SMOOTH",
"840 1745 LINE SMOOTH",
"889 1745 OFFCURVE",
"926 1720 OFFCURVE",
"944 1683 CURVE SMOOTH",
"953 1664 OFFCURVE",
"957 1645 OFFCURVE",
"957 1624 CURVE SMOOTH",
"957 1543 OFFCURVE",
"910 1485 OFFCURVE",
"822 1485 CURVE SMOOTH",
"821 1485 LINE SMOOTH",
"756 1485 OFFCURVE",
"711 1537 OFFCURVE",
"711 1604 CURVE SMOOTH"
);
},
{
closed = 1;
nodes = (
"232 117 LINE",
"232 1220 LINE",
"87 1242 LINE",
"87 1339 LINE",
"1004 1339 LINE",
"1029 1060 LINE",
"915 1060 LINE",
"861 1228 LINE",
"439 1239 LINE",
"439 742 LINE",
"725 747 LINE",
"752 893 LINE",
"865 893 LINE",
"865 476 LINE",
"752 476 LINE",
"726 631 LINE",
"439 635 LINE",
"439 109 LINE",
"923 128 LINE",
"1023 349 LINE",
"1135 316 LINE",
"1083 0 LINE",
"84 0 LINE",
"84 96 LINE"
);
}
);
width = 1178;
}
);
note = Edieresis;
unicode = 00CB;
},
{
glyphname = Edotaccent;
layers = (
{
layerId = "2D872161-907C-4693-BC79-717BAF554E8F";
name = Regular;
paths = (
{
closed = 1;
nodes = (
"487 1688 OFFCURVE",
"536 1748 OFFCURVE",
"617 1748 CURVE SMOOTH",
"618 1748 LINE SMOOTH",
"693 1748 OFFCURVE",
"739 1692 OFFCURVE",
"739 1627 CURVE SMOOTH",
"739 1546 OFFCURVE",
"691 1490 OFFCURVE",
"603 1490 CURVE SMOOTH",
"602 1490 LINE SMOOTH",
"534 1490 OFFCURVE",
"487 1541 OFFCURVE",
"487 1609 CURVE SMOOTH"
);
},
{
closed = 1;
nodes = (
"232 117 LINE",
"232 1220 LINE",
"87 1242 LINE",
"87 1339 LINE",
"1004 1339 LINE",
"1029 1060 LINE",
"915 1060 LINE",
"861 1228 LINE",
"439 1239 LINE",
"439 742 LINE",
"725 747 LINE",
"752 893 LINE",
"865 893 LINE",
"865 476 LINE",
"752 476 LINE",
"726 631 LINE",
"439 635 LINE",
"439 109 LINE",
"923 128 LINE",
"1023 349 LINE",
"1135 316 LINE",
"1083 0 LINE",
"84 0 LINE",
"84 96 LINE"
);
}
);
width = 1178;
}
);
note = Edotaccent;
unicode = 0116;
},
{
glyphname = Egrave;
layers = (
{
layerId = "2D872161-907C-4693-BC79-717BAF554E8F";
name = Regular;
paths = (
{
closed = 1;
nodes = (
"447 1771 LINE",
"448 1771 LINE",
"740 1497 LINE",
"669 1437 LINE",
"668 1437 LINE",
"611 1456 OFFCURVE",
"498 1512 OFFCURVE",
"409 1573 CURVE SMOOTH",
"364 1604 OFFCURVE",
"333 1632 OFFCURVE",
"314 1659 CURVE"
);
},
{
closed = 1;
nodes = (
"232 117 LINE",
"232 1220 LINE",
"87 1242 LINE",
"87 1339 LINE",
"1004 1339 LINE",
"1029 1060 LINE",
"915 1060 LINE",
"861 1228 LINE",
"439 1239 LINE",
"439 742 LINE",
"725 747 LINE",
"752 893 LINE",
"865 893 LINE",
"865 476 LINE",
"752 476 LINE",
"726 631 LINE",
"439 635 LINE",
"439 109 LINE",
"923 128 LINE",
"1023 349 LINE",
"1135 316 LINE",
"1083 0 LINE",
"84 0 LINE",
"84 96 LINE"
);
}
);
width = 1178;
}
);
note = Egrave;
unicode = 00C8;
},
{
glyphname = Emacron;
layers = (
{
layerId = "2D872161-907C-4693-BC79-717BAF554E8F";
name = Regular;
paths = (
{
closed = 1;
nodes = (
"868 1676 LINE",
"868 1536 LINE",
"366 1536 LINE",
"366 1676 LINE"
);
},
{
closed = 1;
nodes = (
"232 117 LINE",
"232 1220 LINE",
"87 1242 LINE",
"87 1339 LINE",
"1004 1339 LINE",
"1029 1060 LINE",
"915 1060 LINE",
"861 1228 LINE",
"439 1239 LINE",
"439 742 LINE",
"725 747 LINE",
"752 893 LINE",
"865 893 LINE",
"865 476 LINE",
"752 476 LINE",
"726 631 LINE",
"439 635 LINE",
"439 109 LINE",
"923 128 LINE",
"1023 349 LINE",
"1135 316 LINE",
"1083 0 LINE",
"84 0 LINE",
"84 96 LINE"
);
}
);
width = 1178;
}
);
note = Emacron;
unicode = 0112;
},
{
glyphname = Eogonek;
layers = (
{
layerId = "2D872161-907C-4693-BC79-717BAF554E8F";
name = Regular;
paths = (
{
closed = 1;
nodes = (
"232 117 LINE",
"232 1220 LINE",
"87 1242 LINE",
"87 1339 LINE",
"1004 1339 LINE",
"1029 1060 LINE",
"915 1060 LINE",
"861 1228 LINE",
"439 1239 LINE",
"439 742 LINE",
"725 747 LINE",
"752 893 LINE",
"865 893 LINE",
"865 476 LINE",
"752 476 LINE",
"726 631 LINE",
"439 635 LINE",
"439 109 LINE",
"923 128 LINE",
"1023 349 LINE",
"1135 316 LINE",
"1083 0 LINE",
"1070 0 LINE",
"995 -12 OFFCURVE",
"911 -68 OFFCURVE",
"862 -131 CURVE SMOOTH",
"837 -162 OFFCURVE",
"825 -190 OFFCURVE",
"825 -215 CURVE SMOOTH",
"825 -286 OFFCURVE",
"877 -321 OFFCURVE",
"956 -321 CURVE SMOOTH",
"995 -321 OFFCURVE",
"1037 -311 OFFCURVE",
"1080 -292 CURVE",
"1080 -389 LINE",
"1031 -426 OFFCURVE",
"947 -450 OFFCURVE",
"871 -450 CURVE SMOOTH",
"740 -450 OFFCURVE",
"642 -394 OFFCURVE",
"642 -277 CURVE SMOOTH",
"642 -212 OFFCURVE",
"690 -136 OFFCURVE",
"767 -73 CURVE SMOOTH",
"806 -42 OFFCURVE",
"848 -17 OFFCURVE",
"895 0 CURVE",
"84 0 LINE",
"84 96 LINE"
);
}
);
width = 1178;
}
);
note = Eogonek;
unicode = 0118;
},
{
glyphname = F;
layers = (
{
layerId = "2D872161-907C-4693-BC79-717BAF554E8F";
name = Regular;
paths = (
{
closed = 1;
nodes = (
"232 117 LINE",
"232 1220 LINE",
"84 1242 LINE",
"84 1339 LINE",
"1045 1339 LINE",
"1064 1031 LINE",
"936 1031 LINE",
"878 1227 LINE",
"439 1239 LINE",
"439 726 LINE",
"745 730 LINE",
"781 877 LINE",
"889 877 LINE",
"889 458 LINE",
"781 458 LINE",
"745 608 LINE",
"439 616 LINE",
"439 117 LINE",
"707 96 LINE",
"707 0 LINE",
"87 0 LINE",
"87 96 LINE"
);
}
);
width = 1117;
}
);
note = F;
unicode = 0046;
},
{
glyphname = G;
layers = (
{
layerId = "2D872161-907C-4693-BC79-717BAF554E8F";
name = Regular;
paths = (
{
closed = 1;
nodes = (
"77 940 OFFCURVE",
"204 1157 OFFCURVE",
"412 1270 CURVE SMOOTH",
"516 1326 OFFCURVE",
"633 1354 OFFCURVE",
"762 1354 CURVE SMOOTH",
"925 1354 OFFCURVE",
"1064 1327 OFFCURVE",
"1184 1298 CURVE",
"1167 986 LINE",
"1031 986 LINE",
"984 1194 LINE",
"969 1209 OFFCURVE",
"943 1222 OFFCURVE",
"906 1234 CURVE SMOOTH",
"868 1245 OFFCURVE",
"815 1251 OFFCURVE",
"748 1251 CURVE SMOOTH",
"577 1251 OFFCURVE",
"442 1168 OFFCURVE",
"369 1001 CURVE SMOOTH",
"332 918 OFFCURVE",
"314 816 OFFCURVE",
"314 697 CURVE SMOOTH",
"314 477 OFFCURVE",
"375 282 OFFCURVE",
"503 169 CURVE SMOOTH",
"566 112 OFFCURVE",
"644 84 OFFCURVE",
"737 84 CURVE SMOOTH",
"842 84 OFFCURVE",
"942 110 OFFCURVE",
"993 159 CURVE",
"993 545 LINE",
"777 565 LINE",
"777 678 LINE",
"1302 678 LINE",
"1302 565 LINE",
"1199 546 LINE",
"1199 72 LINE",
"1170 71 OFFCURVE",
"1133 61 OFFCURVE",
"1074 42 CURVE SMOOTH",
"949 3 OFFCURVE",
"851 -20 OFFCURVE",
"719 -20 CURVE SMOOTH",
"455 -20 OFFCURVE",
"257 102 OFFCURVE",
"154 306 CURVE SMOOTH",
"103 407 OFFCURVE",
"77 522 OFFCURVE",
"77 649 CURVE SMOOTH"
);
}
);
width = 1339;
}
);
note = G;
unicode = 0047;
},
{
glyphname = Gbreve;
layers = (
{
layerId = "2D872161-907C-4693-BC79-717BAF554E8F";
name = Regular;
paths = (
{
closed = 1;
nodes = (
"437 1738 OFFCURVE",
"438 1750 OFFCURVE",
"439 1758 CURVE",
"545 1758 LINE",
"545 1749 OFFCURVE",
"546 1741 OFFCURVE",
"548 1734 CURVE",
"559 1665 OFFCURVE",
"614 1595 OFFCURVE",
"742 1595 CURVE SMOOTH",
"870 1595 OFFCURVE",
"922 1664 OFFCURVE",
"931 1735 CURVE SMOOTH",
"932 1742 OFFCURVE",
"932 1750 OFFCURVE",
"932 1758 CURVE",
"1037 1758 LINE",
"1038 1750 OFFCURVE",
"1039 1738 OFFCURVE",
"1039 1722 CURVE SMOOTH",
"1039 1619 OFFCURVE",
"991 1531 OFFCURVE",
"901 1483 CURVE SMOOTH",
"856 1458 OFFCURVE",
"802 1446 OFFCURVE",
"741 1446 CURVE SMOOTH",
"613 1446 OFFCURVE",
"519 1497 OFFCURVE",
"472 1581 CURVE SMOOTH",
"449 1623 OFFCURVE",
"437 1670 OFFCURVE",
"437 1721 CURVE SMOOTH"
);
},
{
closed = 1;
nodes = (
"82 940 OFFCURVE",
"209 1157 OFFCURVE",
"417 1270 CURVE SMOOTH",
"521 1326 OFFCURVE",
"638 1354 OFFCURVE",
"767 1354 CURVE SMOOTH",
"930 1354 OFFCURVE",
"1069 1327 OFFCURVE",
"1189 1298 CURVE",
"1172 986 LINE",
"1036 986 LINE",
"989 1194 LINE",
"974 1209 OFFCURVE",
"948 1222 OFFCURVE",
"911 1234 CURVE SMOOTH",
"873 1245 OFFCURVE",
"820 1251 OFFCURVE",
"753 1251 CURVE SMOOTH",
"582 1251 OFFCURVE",
"447 1168 OFFCURVE",
"374 1001 CURVE SMOOTH",
"337 918 OFFCURVE",
"319 816 OFFCURVE",
"319 697 CURVE SMOOTH",
"319 477 OFFCURVE",
"380 282 OFFCURVE",
"508 169 CURVE SMOOTH",
"571 112 OFFCURVE",
"649 84 OFFCURVE",
"742 84 CURVE SMOOTH",
"847 84 OFFCURVE",
"947 110 OFFCURVE",
"998 159 CURVE",
"998 545 LINE",
"782 565 LINE",
"782 678 LINE",
"1307 678 LINE",
"1307 565 LINE",
"1204 546 LINE",
"1204 72 LINE",
"1175 71 OFFCURVE",
"1138 61 OFFCURVE",
"1079 42 CURVE SMOOTH",
"954 3 OFFCURVE",
"856 -20 OFFCURVE",
"724 -20 CURVE SMOOTH",
"460 -20 OFFCURVE",
"262 102 OFFCURVE",
"159 306 CURVE SMOOTH",
"108 407 OFFCURVE",
"82 522 OFFCURVE",
"82 649 CURVE SMOOTH"
);
}
);
width = 1343;
}
);
note = Gbreve;
unicode = 011E;
},
{
glyphname = Gcaron;
layers = (
{
layerId = "2D872161-907C-4693-BC79-717BAF554E8F";
name = Regular;
paths = (
{
closed = 1;
nodes = (
"77 940 OFFCURVE",
"204 1157 OFFCURVE",
"412 1270 CURVE SMOOTH",
"516 1326 OFFCURVE",
"633 1354 OFFCURVE",
"762 1354 CURVE SMOOTH",
"925 1354 OFFCURVE",
"1064 1327 OFFCURVE",
"1184 1298 CURVE",
"1167 986 LINE",
"1031 986 LINE",
"984 1194 LINE",
"969 1209 OFFCURVE",
"943 1222 OFFCURVE",
"906 1234 CURVE SMOOTH",
"868 1245 OFFCURVE",
"815 1251 OFFCURVE",
"748 1251 CURVE SMOOTH",
"577 1251 OFFCURVE",
"442 1168 OFFCURVE",
"369 1001 CURVE SMOOTH",
"332 918 OFFCURVE",
"314 816 OFFCURVE",
"314 697 CURVE SMOOTH",
"314 477 OFFCURVE",
"375 282 OFFCURVE",
"503 169 CURVE SMOOTH",
"566 112 OFFCURVE",
"644 84 OFFCURVE",
"737 84 CURVE SMOOTH",
"842 84 OFFCURVE",
"942 110 OFFCURVE",
"993 159 CURVE",
"993 545 LINE",
"777 565 LINE",
"777 678 LINE",
"1302 678 LINE",
"1302 565 LINE",
"1199 546 LINE",
"1199 72 LINE",
"1170 71 OFFCURVE",
"1133 61 OFFCURVE",
"1074 42 CURVE SMOOTH",
"949 3 OFFCURVE",
"851 -20 OFFCURVE",
"719 -20 CURVE SMOOTH",
"455 -20 OFFCURVE",
"257 102 OFFCURVE",
"154 306 CURVE SMOOTH",
"103 407 OFFCURVE",
"77 522 OFFCURVE",
"77 649 CURVE SMOOTH"
);
},
{
closed = 1;
nodes = (
"511 1771 LINE",
"735 1605 LINE",
"968 1771 LINE",
"1042 1720 LINE",
"816 1475 LINE",
"655 1475 LINE",
"431 1718 LINE"
);
}
);
width = 1339;
}
);
note = Gcaron;
unicode = 01E6;
},
{
glyphname = Gcircumflex;
layers = (
{
layerId = "2D872161-907C-4693-BC79-717BAF554E8F";
name = Regular;
paths = (
{
closed = 1;
nodes = (
"77 940 OFFCURVE",
"204 1157 OFFCURVE",
"412 1270 CURVE SMOOTH",
"516 1326 OFFCURVE",
"633 1354 OFFCURVE",
"762 1354 CURVE SMOOTH",
"925 1354 OFFCURVE",
"1064 1327 OFFCURVE",
"1184 1298 CURVE",
"1167 986 LINE",
"1031 986 LINE",
"984 1194 LINE",
"969 1209 OFFCURVE",
"943 1222 OFFCURVE",
"906 1234 CURVE SMOOTH",
"868 1245 OFFCURVE",
"815 1251 OFFCURVE",
"748 1251 CURVE SMOOTH",
"577 1251 OFFCURVE",
"442 1168 OFFCURVE",
"369 1001 CURVE SMOOTH",
"332 918 OFFCURVE",
"314 816 OFFCURVE",
"314 697 CURVE SMOOTH",
"314 477 OFFCURVE",
"375 282 OFFCURVE",
"503 169 CURVE SMOOTH",
"566 112 OFFCURVE",
"644 84 OFFCURVE",
"737 84 CURVE SMOOTH",
"842 84 OFFCURVE",
"942 110 OFFCURVE",
"993 159 CURVE",
"993 545 LINE",
"777 565 LINE",
"777 678 LINE",
"1302 678 LINE",
"1302 565 LINE",
"1199 546 LINE",
"1199 72 LINE",
"1170 71 OFFCURVE",
"1133 61 OFFCURVE",
"1074 42 CURVE SMOOTH",
"949 3 OFFCURVE",
"851 -20 OFFCURVE",
"719 -20 CURVE SMOOTH",
"455 -20 OFFCURVE",
"257 102 OFFCURVE",
"154 306 CURVE SMOOTH",
"103 407 OFFCURVE",
"77 522 OFFCURVE",
"77 649 CURVE SMOOTH"
);
},
{
closed = 1;
nodes = (
"653 1771 LINE",
"814 1771 LINE",
"1056 1509 LINE",
"975 1456 LINE",
"734 1633 LINE",
"490 1456 LINE",
"415 1507 LINE"
);
}
);
width = 1339;
}
);
note = Gcircumflex;
unicode = 011C;
},
{
glyphname = Gcommaaccent;
layers = (
{
layerId = "2D872161-907C-4693-BC79-717BAF554E8F";
name = Regular;
paths = (
{
closed = 1;
nodes = (
"689 -493 LINE",
"620 -458 LINE",
"619 -443 LINE",
"651 -428 OFFCURVE",
"671 -378 OFFCURVE",
"671 -330 CURVE SMOOTH",
"671 -301 OFFCURVE",
"656 -285 OFFCURVE",
"632 -268 CURVE",
"609 -255 OFFCURVE",
"597 -233 OFFCURVE",
"597 -192 CURVE SMOOTH",
"597 -144 OFFCURVE",
"626 -117 OFFCURVE",
"659 -105 CURVE",
"675 -100 OFFCURVE",
"690 -97 OFFCURVE",
"704 -97 CURVE SMOOTH",
"713 -97 LINE SMOOTH",
"789 -97 OFFCURVE",
"836 -150 OFFCURVE",
"836 -239 CURVE SMOOTH",
"836 -326 OFFCURVE",
"791 -405 OFFCURVE",
"743 -453 CURVE SMOOTH",
"719 -478 OFFCURVE",
"702 -491 OFFCURVE",
"692 -493 CURVE"
);
},
{
closed = 1;
nodes = (
"83 940 OFFCURVE",
"210 1157 OFFCURVE",
"418 1270 CURVE SMOOTH",
"522 1326 OFFCURVE",
"639 1354 OFFCURVE",
"768 1354 CURVE SMOOTH",
"931 1354 OFFCURVE",
"1070 1327 OFFCURVE",
"1190 1298 CURVE",
"1173 986 LINE",
"1037 986 LINE",
"990 1194 LINE",
"975 1209 OFFCURVE",
"949 1222 OFFCURVE",
"912 1234 CURVE SMOOTH",
"874 1245 OFFCURVE",
"821 1251 OFFCURVE",
"754 1251 CURVE SMOOTH",
"583 1251 OFFCURVE",
"448 1168 OFFCURVE",
"375 1001 CURVE SMOOTH",
"338 918 OFFCURVE",
"320 816 OFFCURVE",
"320 697 CURVE SMOOTH",
"320 477 OFFCURVE",
"381 282 OFFCURVE",
"509 169 CURVE SMOOTH",
"572 112 OFFCURVE",
"650 84 OFFCURVE",
"743 84 CURVE SMOOTH",
"848 84 OFFCURVE",
"948 110 OFFCURVE",
"999 159 CURVE",
"999 545 LINE",
"783 565 LINE",
"783 678 LINE",
"1308 678 LINE",
"1308 565 LINE",
"1205 546 LINE",
"1205 72 LINE",
"1176 71 OFFCURVE",
"1139 61 OFFCURVE",
"1080 42 CURVE SMOOTH",
"955 3 OFFCURVE",
"857 -20 OFFCURVE",
"725 -20 CURVE SMOOTH",
"461 -20 OFFCURVE",
"263 102 OFFCURVE",
"160 306 CURVE SMOOTH",
"109 407 OFFCURVE",
"83 522 OFFCURVE",
"83 649 CURVE SMOOTH"
);
}
);
width = 1345;
}
);
note = Gcommaaccent;
unicode = 0122;
},
{
glyphname = Gdotaccent;
layers = (
{
layerId = "2D872161-907C-4693-BC79-717BAF554E8F";
name = Regular;
paths = (
{
closed = 1;
nodes = (
"614 1688 OFFCURVE",
"663 1748 OFFCURVE",
"744 1748 CURVE SMOOTH",
"745 1748 LINE SMOOTH",
"820 1748 OFFCURVE",
"866 1692 OFFCURVE",
"866 1627 CURVE SMOOTH",
"866 1546 OFFCURVE",
"818 1490 OFFCURVE",
"730 1490 CURVE SMOOTH",
"729 1490 LINE SMOOTH",
"661 1490 OFFCURVE",
"614 1541 OFFCURVE",
"614 1609 CURVE SMOOTH"
);
},
{
closed = 1;
nodes = (
"82 940 OFFCURVE",
"209 1157 OFFCURVE",
"417 1270 CURVE SMOOTH",
"521 1326 OFFCURVE",
"638 1354 OFFCURVE",
"767 1354 CURVE SMOOTH",
"930 1354 OFFCURVE",
"1069 1327 OFFCURVE",
"1189 1298 CURVE",
"1172 986 LINE",
"1036 986 LINE",
"989 1194 LINE",
"974 1209 OFFCURVE",
"948 1222 OFFCURVE",
"911 1234 CURVE SMOOTH",
"873 1245 OFFCURVE",
"820 1251 OFFCURVE",
"753 1251 CURVE SMOOTH",
"582 1251 OFFCURVE",
"447 1168 OFFCURVE",
"374 1001 CURVE SMOOTH",
"337 918 OFFCURVE",
"319 816 OFFCURVE",
"319 697 CURVE SMOOTH",
"319 477 OFFCURVE",
"380 282 OFFCURVE",
"508 169 CURVE SMOOTH",
"571 112 OFFCURVE",
"649 84 OFFCURVE",
"742 84 CURVE SMOOTH",
"847 84 OFFCURVE",
"947 110 OFFCURVE",
"998 159 CURVE",
"998 545 LINE",
"782 565 LINE",
"782 678 LINE",
"1307 678 LINE",
"1307 565 LINE",
"1204 546 LINE",
"1204 72 LINE",
"1175 71 OFFCURVE",
"1138 61 OFFCURVE",
"1079 42 CURVE SMOOTH",
"954 3 OFFCURVE",
"856 -20 OFFCURVE",
"724 -20 CURVE SMOOTH",
"460 -20 OFFCURVE",
"262 102 OFFCURVE",
"159 306 CURVE SMOOTH",
"108 407 OFFCURVE",
"82 522 OFFCURVE",
"82 649 CURVE SMOOTH"
);
}
);
width = 1343;
}
);
note = Gdotaccent;
unicode = 0120;
},
{
glyphname = H;
layers = (
{
layerId = "2D872161-907C-4693-BC79-717BAF554E8F";
name = Regular;
paths = (
{
closed = 1;
nodes = (
"233 117 LINE",
"233 1219 LINE",
"93 1242 LINE",
"93 1339 LINE",
"591 1339 LINE",
"591 1242 LINE",
"440 1220 LINE",
"440 744 LINE",
"1056 744 LINE",
"1056 1220 LINE",
"912 1242 LINE",
"912 1339 LINE",
"1404 1339 LINE",
"1404 1242 LINE",
"1263 1220 LINE",
"1263 116 LINE",
"1404 96 LINE",
"1404 0 LINE",
"913 0 LINE",
"913 96 LINE",
"1056 116 LINE",
"1056 628 LINE",
"440 628 LINE",
"440 117 LINE",
"591 96 LINE",
"591 0 LINE",
"88 0 LINE",
"88 96 LINE"
);
}
);
width = 1496;
}
);
note = H;
unicode = 0048;
},
{
glyphname = Hbar;
layers = (
{
layerId = "2D872161-907C-4693-BC79-717BAF554E8F";
name = Regular;
paths = (
{
closed = 1;
nodes = (
"233 999 LINE",
"233 1219 LINE",
"91 1242 LINE",
"91 1339 LINE",
"590 1339 LINE",
"590 1242 LINE",
"438 1220 LINE",
"438 999 LINE",
"1057 999 LINE",
"1057 1220 LINE",
"913 1242 LINE",
"913 1339 LINE",
"1405 1339 LINE",
"1405 1242 LINE",
"1263 1220 LINE",
"1263 999 LINE",
"1454 999 LINE",
"1454 900 LINE",
"1263 900 LINE",
"1263 118 LINE",
"1404 95 LINE",
"1404 0 LINE",
"914 0 LINE",
"914 95 LINE",
"1057 117 LINE",
"1057 539 LINE",
"438 539 LINE",
"438 117 LINE",
"590 96 LINE",
"590 0 LINE",
"85 0 LINE",
"85 96 LINE",
"233 117 LINE",
"233 900 LINE",
"46 900 LINE",
"46 999 LINE"
);
},
{
closed = 1;
nodes = (
"1057 900 LINE",
"438 900 LINE",
"438 654 LINE",
"1057 654 LINE"
);
}
);
width = 1495;
}
);
note = Hbar;
unicode = 0126;
},
{
glyphname = Hcircumflex;
layers = (
{
layerId = "2D872161-907C-4693-BC79-717BAF554E8F";
name = Regular;
paths = (
{
closed = 1;
nodes = (
"233 117 LINE",
"233 1219 LINE",
"93 1242 LINE",
"93 1339 LINE",
"591 1339 LINE",
"591 1242 LINE",
"440 1220 LINE",
"440 744 LINE",
"1056 744 LINE",
"1056 1220 LINE",
"912 1242 LINE",
"912 1339 LINE",
"1404 1339 LINE",
"1404 1242 LINE",
"1263 1220 LINE",
"1263 116 LINE",
"1404 96 LINE",
"1404 0 LINE",
"913 0 LINE",
"913 96 LINE",
"1056 116 LINE",
"1056 628 LINE",
"440 628 LINE",
"440 117 LINE",
"591 96 LINE",
"591 0 LINE",
"88 0 LINE",
"88 96 LINE"
);
},
{
closed = 1;
nodes = (
"666 1771 LINE",
"827 1771 LINE",
"1069 1509 LINE",
"988 1456 LINE",
"747 1633 LINE",
"503 1456 LINE",
"428 1507 LINE"
);
}
);
width = 1496;
}
);
note = Hcircumflex;
unicode = 0124;
},
{
glyphname = I;
layers = (
{
layerId = "2D872161-907C-4693-BC79-717BAF554E8F";
name = Regular;
paths = (
{
closed = 1;
nodes = (
"260 117 LINE",
"260 1219 LINE",
"99 1242 LINE",
"99 1339 LINE",
"628 1339 LINE",
"628 1242 LINE",
"467 1220 LINE",
"467 117 LINE",
"631 93 LINE",
"631 0 LINE",
"99 0 LINE",
"99 96 LINE"
);
}
);
width = 727;
}
);
note = I;
unicode = 0049;
},
{
glyphname = IJ;
layers = (
{
layerId = "2D872161-907C-4693-BC79-717BAF554E8F";
name = Regular;
paths = (
{
closed = 1;
nodes = (
"260 117 LINE",
"260 1219 LINE",
"99 1242 LINE",
"99 1339 LINE",
"628 1339 LINE",
"628 1242 LINE",
"467 1220 LINE",
"467 117 LINE",
"631 93 LINE",
"631 0 LINE",
"99 0 LINE",
"99 96 LINE"
);
},
{
closed = 1;
nodes = (
"717 -243 LINE",
"776 -227 OFFCURVE",
"839 -182 OFFCURVE",
"889 -114 CURVE SMOOTH",
"939 -47 OFFCURVE",
"963 38 OFFCURVE",
"974 157 CURVE SMOOTH",
"979 216 OFFCURVE",
"982 306 OFFCURVE",
"982 427 CURVE SMOOTH",
"982 1219 LINE",
"817 1242 LINE",
"817 1339 LINE",
"1347 1339 LINE",
"1347 1242 LINE",
"1187 1219 LINE",
"1187 497 LINE",
"1187 396 LINE SMOOTH",
"1187 221 OFFCURVE",
"1183 120 OFFCURVE",
"1166 40 CURVE SMOOTH",
"1137 -96 OFFCURVE",
"1049 -198 OFFCURVE",
"939 -259 CURVE SMOOTH",
"884 -290 OFFCURVE",
"827 -311 OFFCURVE",
"768 -324 CURVE"
);
}
);
width = 1414;
}
);
note = IJ;
unicode = 0132;
},
{
glyphname = Iacute;
layers = (
{
layerId = "2D872161-907C-4693-BC79-717BAF554E8F";
name = Regular;
paths = (
{
closed = 1;
nodes = (
"260 117 LINE",
"260 1219 LINE",
"99 1242 LINE",
"99 1339 LINE",
"628 1339 LINE",
"628 1242 LINE",
"467 1220 LINE",
"467 117 LINE",
"631 93 LINE",
"631 0 LINE",
"99 0 LINE",
"99 96 LINE"
);
},
{
closed = 1;
nodes = (
"530 1771 LINE",
"531 1771 LINE",
"665 1659 LINE",
"624 1603 OFFCURVE",
"522 1538 OFFCURVE",
"425 1488 CURVE SMOOTH",
"376 1463 OFFCURVE",
"338 1446 OFFCURVE",
"310 1437 CURVE",
"309 1437 LINE",
"239 1497 LINE"
);
}
);
width = 727;
}
);
note = Iacute;
unicode = 00CD;
},
{
glyphname = Ibreve;
layers = (
{
layerId = "2D872161-907C-4693-BC79-717BAF554E8F";
name = Regular;
paths = (
{
closed = 1;
nodes = (
"260 117 LINE",
"260 1219 LINE",
"99 1242 LINE",
"99 1339 LINE",
"628 1339 LINE",
"628 1242 LINE",
"467 1220 LINE",
"467 117 LINE",
"631 93 LINE",
"631 0 LINE",
"99 0 LINE",
"99 96 LINE"
);
},
{
closed = 1;
nodes = (
"64 1738 OFFCURVE",
"65 1750 OFFCURVE",
"66 1758 CURVE",
"172 1758 LINE",
"172 1749 OFFCURVE",
"173 1741 OFFCURVE",
"175 1734 CURVE",
"186 1665 OFFCURVE",
"241 1595 OFFCURVE",
"369 1595 CURVE SMOOTH",
"497 1595 OFFCURVE",
"549 1664 OFFCURVE",
"558 1735 CURVE SMOOTH",
"559 1742 OFFCURVE",
"559 1750 OFFCURVE",
"559 1758 CURVE",
"664 1758 LINE",
"665 1750 OFFCURVE",
"666 1738 OFFCURVE",
"666 1722 CURVE SMOOTH",
"666 1619 OFFCURVE",
"618 1531 OFFCURVE",
"528 1483 CURVE SMOOTH",
"483 1458 OFFCURVE",
"429 1446 OFFCURVE",
"368 1446 CURVE SMOOTH",
"240 1446 OFFCURVE",
"146 1497 OFFCURVE",
"99 1581 CURVE SMOOTH",
"76 1623 OFFCURVE",
"64 1670 OFFCURVE",
"64 1721 CURVE SMOOTH"
);
}
);
width = 727;
}
);
note = Ibreve;
unicode = 012C;
},
{
glyphname = Icircumflex;
layers = (
{
layerId = "2D872161-907C-4693-BC79-717BAF554E8F";
name = Regular;
paths = (
{
closed = 1;
nodes = (
"260 117 LINE",
"260 1219 LINE",
"99 1242 LINE",
"99 1339 LINE",
"628 1339 LINE",
"628 1242 LINE",
"467 1220 LINE",
"467 117 LINE",
"631 93 LINE",
"631 0 LINE",
"99 0 LINE",
"99 96 LINE"
);
},
{
closed = 1;
nodes = (
"284 1771 LINE",
"445 1771 LINE",
"687 1509 LINE",
"606 1456 LINE",
"365 1633 LINE",
"121 1456 LINE",
"46 1507 LINE"
);
}
);
width = 727;
}
);
note = Icircumflex;
unicode = 00CE;
},
{
glyphname = Idieresis;
layers = (
{
layerId = "2D872161-907C-4693-BC79-717BAF554E8F";
name = Regular;
paths = (
{
closed = 1;
nodes = (
"260 117 LINE",
"260 1219 LINE",
"99 1242 LINE",
"99 1339 LINE",
"628 1339 LINE",
"628 1242 LINE",
"467 1220 LINE",
"467 117 LINE",
"631 93 LINE",
"631 0 LINE",
"99 0 LINE",
"99 96 LINE"
);
},
{
closed = 1;
nodes = (
"23 1684 OFFCURVE",
"69 1745 OFFCURVE",
"152 1745 CURVE SMOOTH",
"153 1745 LINE SMOOTH",
"201 1745 OFFCURVE",
"238 1720 OFFCURVE",
"256 1683 CURVE SMOOTH",
"265 1664 OFFCURVE",
"269 1645 OFFCURVE",
"269 1624 CURVE SMOOTH",
"269 1543 OFFCURVE",
"221 1485 OFFCURVE",
"133 1485 CURVE SMOOTH",
"133 1485 LINE SMOOTH",
"68 1485 OFFCURVE",
"23 1537 OFFCURVE",
"23 1604 CURVE SMOOTH"
);
},
{
closed = 1;
nodes = (
"463 1684 OFFCURVE",
"510 1745 OFFCURVE",
"591 1745 CURVE SMOOTH",
"592 1745 LINE SMOOTH",
"641 1745 OFFCURVE",
"678 1720 OFFCURVE",
"696 1683 CURVE SMOOTH",
"705 1664 OFFCURVE",
"709 1645 OFFCURVE",
"709 1624 CURVE SMOOTH",
"709 1543 OFFCURVE",
"662 1485 OFFCURVE",
"574 1485 CURVE SMOOTH",
"573 1485 LINE SMOOTH",
"508 1485 OFFCURVE",
"463 1537 OFFCURVE",
"463 1604 CURVE SMOOTH"
);
}
);
width = 727;
}
);
note = Idieresis;
unicode = 00CF;
},
{
glyphname = Idotaccent;
layers = (
{
layerId = "2D872161-907C-4693-BC79-717BAF554E8F";
name = Regular;
paths = (
{
closed = 1;
nodes = (
"260 117 LINE",
"260 1219 LINE",
"99 1242 LINE",
"99 1339 LINE",
"628 1339 LINE",
"628 1242 LINE",
"467 1220 LINE",
"467 117 LINE",
"631 93 LINE",
"631 0 LINE",
"99 0 LINE",
"99 96 LINE"
);
},
{
closed = 1;
nodes = (
"241 1688 OFFCURVE",
"290 1748 OFFCURVE",
"371 1748 CURVE SMOOTH",
"372 1748 LINE SMOOTH",
"447 1748 OFFCURVE",
"493 1692 OFFCURVE",
"493 1627 CURVE SMOOTH",
"493 1546 OFFCURVE",
"445 1490 OFFCURVE",
"357 1490 CURVE SMOOTH",
"356 1490 LINE SMOOTH",
"288 1490 OFFCURVE",
"241 1541 OFFCURVE",
"241 1609 CURVE SMOOTH"
);
}
);
width = 727;
}
);
note = Idotaccent;
unicode = 0130;
},
{
glyphname = Igrave;
layers = (
{
layerId = "2D872161-907C-4693-BC79-717BAF554E8F";
name = Regular;
paths = (
{
closed = 1;
nodes = (
"260 117 LINE",
"260 1219 LINE",
"99 1242 LINE",
"99 1339 LINE",
"628 1339 LINE",
"628 1242 LINE",
"467 1220 LINE",
"467 117 LINE",
"631 93 LINE",
"631 0 LINE",
"99 0 LINE",
"99 96 LINE"
);
},
{
closed = 1;
nodes = (
"220 1771 LINE",
"221 1771 LINE",
"513 1497 LINE",
"442 1437 LINE",
"441 1437 LINE",
"384 1456 OFFCURVE",
"271 1512 OFFCURVE",
"182 1573 CURVE SMOOTH",
"137 1604 OFFCURVE",
"106 1632 OFFCURVE",
"87 1659 CURVE"
);
}
);
width = 727;
}
);
note = Igrave;
unicode = 00CC;
},
{
glyphname = Imacron;
layers = (
{
layerId = "2D872161-907C-4693-BC79-717BAF554E8F";
name = Regular;
paths = (
{
closed = 1;
nodes = (
"260 117 LINE",
"260 1219 LINE",
"99 1242 LINE",
"99 1339 LINE",
"628 1339 LINE",
"628 1242 LINE",
"467 1220 LINE",
"467 117 LINE",
"631 93 LINE",
"631 0 LINE",
"99 0 LINE",
"99 96 LINE"
);
},
{
closed = 1;
nodes = (
"621 1676 LINE",
"621 1536 LINE",
"119 1536 LINE",
"119 1676 LINE"
);
}
);
width = 727;
}
);
note = Imacron;
unicode = 012A;
},
{
glyphname = Iogonek;
layers = (
{
layerId = "2D872161-907C-4693-BC79-717BAF554E8F";
name = Regular;
paths = (
{
closed = 1;
nodes = (
"260 117 LINE",
"260 1219 LINE",
"99 1242 LINE",
"99 1339 LINE",
"628 1339 LINE",
"628 1242 LINE",
"467 1220 LINE",
"467 117 LINE",
"631 93 LINE",
"631 0 LINE",
"464 0 LINE",
"399 -32 OFFCURVE",
"342 -85 OFFCURVE",
"310 -140 CURVE SMOOTH",
"294 -167 OFFCURVE",
"286 -192 OFFCURVE",
"286 -215 CURVE SMOOTH",
"286 -286 OFFCURVE",
"339 -321 OFFCURVE",
"420 -321 CURVE SMOOTH",
"458 -321 OFFCURVE",
"499 -311 OFFCURVE",
"544 -292 CURVE",
"544 -389 LINE",
"493 -426 OFFCURVE",
"410 -450 OFFCURVE",
"334 -450 CURVE SMOOTH",
"205 -450 OFFCURVE",
"104 -393 OFFCURVE",
"104 -277 CURVE SMOOTH",
"104 -213 OFFCURVE",
"148 -137 OFFCURVE",
"215 -74 CURVE SMOOTH",
"248 -43 OFFCURVE",
"284 -18 OFFCURVE",
"321 0 CURVE",
"99 0 LINE",
"99 96 LINE"
);
}
);
width = 727;
}
);
note = Iogonek;
unicode = 012E;
},
{
glyphname = Itilde;
layers = (
{
layerId = "2D872161-907C-4693-BC79-717BAF554E8F";
name = Regular;
paths = (
{
closed = 1;
nodes = (
"260 117 LINE",
"260 1219 LINE",
"99 1242 LINE",
"99 1339 LINE",
"628 1339 LINE",
"628 1242 LINE",
"467 1220 LINE",
"467 117 LINE",
"631 93 LINE",
"631 0 LINE",
"99 0 LINE",
"99 96 LINE"
);
},
{
closed = 1;
nodes = (
"148 1629 OFFCURVE",
"111 1583 OFFCURVE",
"92 1552 CURVE",
"82 1537 OFFCURVE",
"76 1527 OFFCURVE",
"74 1524 CURVE",
"-11 1580 LINE",
"6 1636 OFFCURVE",
"54 1699 OFFCURVE",
"125 1738 CURVE SMOOTH",
"160 1757 OFFCURVE",
"199 1767 OFFCURVE",
"242 1767 CURVE SMOOTH",
"291 1767 OFFCURVE",
"332 1748 OFFCURVE",
"362 1727 CURVE SMOOTH",
"377 1716 OFFCURVE",
"394 1702 OFFCURVE",
"414 1683 CURVE SMOOTH",
"462 1640 OFFCURVE",
"488 1621 OFFCURVE",
"529 1621 CURVE SMOOTH",
"590 1621 OFFCURVE",
"624 1664 OFFCURVE",
"641 1696 CURVE SMOOTH",
"650 1712 OFFCURVE",
"655 1722 OFFCURVE",
"658 1727 CURVE",
"744 1670 LINE",
"704 1562 OFFCURVE",
"625 1482 OFFCURVE",
"510 1482 CURVE SMOOTH",
"441 1482 OFFCURVE",
"398 1511 OFFCURVE",
"338 1564 CURVE SMOOTH",
"285 1608 OFFCURVE",
"255 1629 OFFCURVE",
"211 1629 CURVE SMOOTH"
);
}
);
width = 727;
}
);
note = Itilde;
unicode = 0128;
},
{
glyphname = J;
layers = (
{
layerId = "2D872161-907C-4693-BC79-717BAF554E8F";
name = Regular;
paths = (
{
closed = 1;
nodes = (
"-11 -243 LINE",
"48 -227 OFFCURVE",
"111 -182 OFFCURVE",
"161 -114 CURVE SMOOTH",
"211 -47 OFFCURVE",
"235 38 OFFCURVE",
"246 157 CURVE SMOOTH",
"251 216 OFFCURVE",
"254 306 OFFCURVE",
"254 427 CURVE SMOOTH",
"254 1219 LINE",
"89 1242 LINE",
"89 1339 LINE",
"619 1339 LINE",
"619 1242 LINE",
"459 1219 LINE",
"459 497 LINE",
"459 396 LINE SMOOTH",
"459 221 OFFCURVE",
"455 120 OFFCURVE",
"438 40 CURVE SMOOTH",
"409 -96 OFFCURVE",
"321 -198 OFFCURVE",
"211 -259 CURVE SMOOTH",
"156 -290 OFFCURVE",
"99 -311 OFFCURVE",
"40 -324 CURVE"
);
}
);
width = 686;
}
);
note = J;
unicode = 004A;
},
{
glyphname = Jcircumflex;
layers = (
{
layerId = "2D872161-907C-4693-BC79-717BAF554E8F";
name = Regular;
paths = (
{
closed = 1;
nodes = (
"-11 -243 LINE",
"48 -227 OFFCURVE",
"111 -182 OFFCURVE",
"161 -114 CURVE SMOOTH",
"211 -47 OFFCURVE",
"235 38 OFFCURVE",
"246 157 CURVE SMOOTH",
"251 216 OFFCURVE",
"254 306 OFFCURVE",
"254 427 CURVE SMOOTH",
"254 1219 LINE",
"89 1242 LINE",
"89 1339 LINE",
"619 1339 LINE",
"619 1242 LINE",
"459 1219 LINE",
"459 497 LINE",
"459 396 LINE SMOOTH",
"459 221 OFFCURVE",
"455 120 OFFCURVE",
"438 40 CURVE SMOOTH",
"409 -96 OFFCURVE",
"321 -198 OFFCURVE",
"211 -259 CURVE SMOOTH",
"156 -290 OFFCURVE",
"99 -311 OFFCURVE",
"40 -324 CURVE"
);
},
{
closed = 1;
nodes = (
"270 1771 LINE",
"431 1771 LINE",
"673 1509 LINE",
"592 1456 LINE",
"351 1633 LINE",
"107 1456 LINE",
"32 1507 LINE"
);
}
);
width = 686;
}
);
note = Jcircumflex;
unicode = 0134;
},
{
glyphname = K;
layers = (
{
layerId = "2D872161-907C-4693-BC79-717BAF554E8F";
name = Regular;
paths = (
{
closed = 1;
nodes = (
"1041 0 LINE SMOOTH",
"1020 0 OFFCURVE",
"993 25 OFFCURVE",
"961 75 CURVE SMOOTH",
"929 125 OFFCURVE",
"885 201 OFFCURVE",
"830 304 CURVE SMOOTH",
"735 480 OFFCURVE",
"676 585 OFFCURVE",
"616 652 CURVE",
"441 451 LINE",
"441 116 LINE",
"606 95 LINE",
"606 0 LINE",
"85 0 LINE",
"85 96 LINE",
"234 117 LINE",
"234 1220 LINE",
"89 1242 LINE",
"89 1339 LINE",
"583 1339 LINE",
"583 1242 LINE",
"441 1219 LINE",
"441 603 LINE",
"950 1220 LINE",
"804 1242 LINE",
"803 1339 LINE",
"1252 1339 LINE",
"1252 1243 LINE",
"1115 1220 LINE",
"737 792 LINE",
"817 721 OFFCURVE",
"909 586 OFFCURVE",
"1038 379 CURVE SMOOTH",
"1093 290 OFFCURVE",
"1136 225 OFFCURVE",
"1165 184 CURVE SMOOTH",
"1194 142 OFFCURVE",
"1217 120 OFFCURVE",
"1232 117 CURVE",
"1311 95 LINE",
"1311 0 LINE"
);
}
);
width = 1310;
}
);
note = K;
unicode = 004B;
},
{
glyphname = Kcommaaccent;
layers = (
{
layerId = "2D872161-907C-4693-BC79-717BAF554E8F";
name = Regular;
paths = (
{
closed = 1;
nodes = (
"689 -493 LINE",
"620 -458 LINE",
"619 -443 LINE",
"651 -428 OFFCURVE",
"671 -378 OFFCURVE",
"671 -330 CURVE SMOOTH",
"671 -301 OFFCURVE",
"656 -285 OFFCURVE",
"632 -268 CURVE",
"609 -255 OFFCURVE",
"597 -233 OFFCURVE",
"597 -192 CURVE SMOOTH",
"597 -144 OFFCURVE",
"626 -117 OFFCURVE",
"659 -105 CURVE",
"675 -100 OFFCURVE",
"690 -97 OFFCURVE",
"704 -97 CURVE SMOOTH",
"713 -97 LINE SMOOTH",
"789 -97 OFFCURVE",
"836 -150 OFFCURVE",
"836 -239 CURVE SMOOTH",
"836 -326 OFFCURVE",
"791 -405 OFFCURVE",
"743 -453 CURVE SMOOTH",
"719 -478 OFFCURVE",
"702 -491 OFFCURVE",
"692 -493 CURVE"
);
},
{
closed = 1;
nodes = (
"1041 0 LINE SMOOTH",
"1020 0 OFFCURVE",
"993 25 OFFCURVE",
"961 75 CURVE SMOOTH",
"929 125 OFFCURVE",
"885 201 OFFCURVE",
"830 304 CURVE SMOOTH",
"735 480 OFFCURVE",
"676 585 OFFCURVE",
"616 652 CURVE",
"441 451 LINE",
"441 116 LINE",
"606 95 LINE",
"606 0 LINE",
"85 0 LINE",
"85 96 LINE",
"234 117 LINE",
"234 1220 LINE",
"89 1242 LINE",
"89 1339 LINE",
"583 1339 LINE",
"583 1242 LINE",
"441 1219 LINE",
"441 603 LINE",
"950 1220 LINE",
"804 1242 LINE",
"803 1339 LINE",
"1252 1339 LINE",
"1252 1243 LINE",
"1115 1220 LINE",
"737 792 LINE",
"817 721 OFFCURVE",
"909 586 OFFCURVE",
"1038 379 CURVE SMOOTH",
"1093 290 OFFCURVE",
"1136 225 OFFCURVE",
"1165 184 CURVE SMOOTH",
"1194 142 OFFCURVE",
"1217 120 OFFCURVE",
"1232 117 CURVE",
"1311 95 LINE",
"1311 0 LINE"
);
}
);
width = 1310;
}
);
note = Kcommaaccent;
unicode = 0136;
},
{
glyphname = L;
layers = (
{
layerId = "2D872161-907C-4693-BC79-717BAF554E8F";
name = Regular;
paths = (
{
closed = 1;
nodes = (
"234 117 LINE",
"234 1220 LINE",
"89 1242 LINE",
"89 1339 LINE",
"612 1339 LINE",
"612 1242 LINE",
"443 1219 LINE",
"443 116 LINE",
"887 134 LINE",
"994 428 LINE",
"1112 407 LINE",
"1052 0 LINE",
"86 0 LINE",
"86 96 LINE"
);
}
);
width = 1144;
}
);
note = L;
unicode = 004C;
},
{
glyphname = Lacute;
layers = (
{
layerId = "2D872161-907C-4693-BC79-717BAF554E8F";
name = Regular;
paths = (
{
closed = 1;
nodes = (
"603 1771 LINE",
"604 1771 LINE",
"738 1659 LINE",
"697 1603 OFFCURVE",
"595 1538 OFFCURVE",
"498 1488 CURVE SMOOTH",
"449 1463 OFFCURVE",
"411 1446 OFFCURVE",
"383 1437 CURVE",
"382 1437 LINE",
"312 1497 LINE"
);
},
{
closed = 1;
nodes = (
"234 117 LINE",
"234 1220 LINE",
"89 1242 LINE",
"89 1339 LINE",
"612 1339 LINE",
"612 1242 LINE",
"443 1219 LINE",
"443 116 LINE",
"887 134 LINE",
"994 428 LINE",
"1112 407 LINE",
"1052 0 LINE",
"86 0 LINE",
"86 96 LINE"
);
}
);
width = 1144;
}
);
note = Lacute;
unicode = 0139;
},
{
glyphname = Lcaron;
layers = (
{
layerId = "2D872161-907C-4693-BC79-717BAF554E8F";
name = Regular;
paths = (
{
closed = 1;
nodes = (
"234 117 LINE",
"234 1220 LINE",
"89 1242 LINE",
"89 1339 LINE",
"612 1339 LINE",
"612 1242 LINE",
"443 1219 LINE",
"443 116 LINE",
"887 134 LINE",
"994 428 LINE",
"1112 407 LINE",
"1052 0 LINE",
"86 0 LINE",
"86 96 LINE"
);
},
{
closed = 1;
nodes = (
"812 955 LINE",
"831 1023 OFFCURVE",
"841 1100 OFFCURVE",
"841 1185 CURVE SMOOTH",
"841 1286 OFFCURVE",
"817 1383 OFFCURVE",
"794 1412 CURVE",
"807 1448 LINE",
"954 1483 LINE",
"987 1450 OFFCURVE",
"1010 1360 OFFCURVE",
"1010 1267 CURVE SMOOTH",
"1010 1168 OFFCURVE",
"987 1063 OFFCURVE",
"953 987 CURVE SMOOTH",
"936 948 OFFCURVE",
"918 921 OFFCURVE",
"900 904 CURVE",
"815 934 LINE"
);
}
);
width = 1144;
}
);
note = Lcaron;
unicode = 013D;
},
{
glyphname = Lcommaaccent;
layers = (
{
layerId = "2D872161-907C-4693-BC79-717BAF554E8F";
name = Regular;
paths = (
{
closed = 1;
nodes = (
"601 -493 LINE",
"532 -458 LINE",
"531 -443 LINE",
"563 -428 OFFCURVE",
"583 -378 OFFCURVE",
"583 -330 CURVE SMOOTH",
"583 -301 OFFCURVE",
"568 -285 OFFCURVE",
"544 -268 CURVE",
"521 -255 OFFCURVE",
"509 -233 OFFCURVE",
"509 -192 CURVE SMOOTH",
"509 -144 OFFCURVE",
"538 -117 OFFCURVE",
"571 -105 CURVE",
"587 -100 OFFCURVE",
"602 -97 OFFCURVE",
"616 -97 CURVE SMOOTH",
"625 -97 LINE SMOOTH",
"701 -97 OFFCURVE",
"748 -150 OFFCURVE",
"748 -239 CURVE SMOOTH",
"748 -326 OFFCURVE",
"703 -405 OFFCURVE",
"655 -453 CURVE SMOOTH",
"631 -478 OFFCURVE",
"614 -491 OFFCURVE",
"604 -493 CURVE"
);
},
{
closed = 1;
nodes = (
"234 117 LINE",
"234 1220 LINE",
"89 1242 LINE",
"89 1339 LINE",
"612 1339 LINE",
"612 1242 LINE",
"443 1219 LINE",
"443 116 LINE",
"887 134 LINE",
"994 428 LINE",
"1112 407 LINE",
"1052 0 LINE",
"86 0 LINE",
"86 96 LINE"
);
}
);
width = 1144;
}
);
note = Lcommaaccent;
unicode = 013B;
},
{
glyphname = Ldot;
layers = (
{
layerId = "2D872161-907C-4693-BC79-717BAF554E8F";
name = Regular;
paths = (
{
closed = 1;
nodes = (
"234 117 LINE",
"234 1220 LINE",
"89 1242 LINE",
"89 1339 LINE",
"612 1339 LINE",
"612 1242 LINE",
"443 1219 LINE",
"443 116 LINE",
"887 134 LINE",
"994 428 LINE",
"1112 407 LINE",
"1052 0 LINE",
"86 0 LINE",
"86 96 LINE"
);
},
{
closed = 1;
nodes = (
"728 801 OFFCURVE",
"758 846 OFFCURVE",
"803 871 CURVE SMOOTH",
"825 883 OFFCURVE",
"848 889 OFFCURVE",
"873 889 CURVE SMOOTH",
"954 889 OFFCURVE",
"998 837 OFFCURVE",
"998 769 CURVE SMOOTH",
"998 714 OFFCURVE",
"969 670 OFFCURVE",
"924 647 CURVE SMOOTH",
"901 635 OFFCURVE",
"877 629 OFFCURVE",
"851 629 CURVE SMOOTH",
"807 629 OFFCURVE",
"768 650 OFFCURVE",
"745 687 CURVE SMOOTH",
"734 705 OFFCURVE",
"728 726 OFFCURVE",
"728 749 CURVE SMOOTH"
);
}
);
width = 1155;
}
);
note = Ldot;
unicode = 013F;
},
{
glyphname = Lslash;
layers = (
{
layerId = "2D872161-907C-4693-BC79-717BAF554E8F";
name = Regular;
paths = (
{
closed = 1;
nodes = (
"234 653 LINE",
"234 1220 LINE",
"89 1242 LINE",
"89 1339 LINE",
"612 1339 LINE",
"612 1242 LINE",
"443 1219 LINE",
"443 738 LINE",
"780 886 LINE",
"780 771 LINE",
"443 627 LINE",
"443 116 LINE",
"887 134 LINE",
"994 428 LINE",
"1112 407 LINE",
"1052 0 LINE",
"86 0 LINE",
"86 96 LINE",
"234 117 LINE",
"234 543 LINE",
"41 461 LINE",
"41 569 LINE"
);
}
);
width = 1144;
}
);
note = Lslash;
unicode = 0141;
},
{
glyphname = M;
layers = (
{
layerId = "2D872161-907C-4693-BC79-717BAF554E8F";
name = Regular;
paths = (
{
closed = 1;
nodes = (
"158 116 LINE",
"290 1220 LINE",
"101 1242 LINE",
"101 1339 LINE",
"582 1339 LINE",
"858 532 LINE",
"904 330 LINE",
"943 532 LINE",
"1187 1339 LINE",
"1668 1339 LINE",
"1668 1242 LINE",
"1472 1219 LINE",
"1643 117 LINE",
"1800 96 LINE",
"1800 0 LINE",
"1278 0 LINE",
"1278 96 LINE",
"1434 116 LINE",
"1323 915 LINE",
"1284 1266 LINE",
"1223 1025 LINE",
"936 60 LINE",
"823 60 LINE",
"505 927 LINE",
"407 1265 LINE",
"379 916 LINE",
"308 117 LINE",
"481 96 LINE",
"481 0 LINE",
"1 0 LINE",
"1 96 LINE"
);
}
);
width = 1800;
}
);
note = M;
unicode = 004D;
},
{
glyphname = N;
layers = (
{
layerId = "2D872161-907C-4693-BC79-717BAF554E8F";
name = Regular;
paths = (
{
closed = 1;
nodes = (
"231 116 LINE",
"231 1219 LINE",
"86 1242 LINE",
"86 1339 LINE",
"434 1339 LINE",
"1026 474 LINE",
"1119 300 LINE",
"1119 1220 LINE",
"962 1242 LINE",
"962 1339 LINE",
"1398 1339 LINE",
"1398 1242 LINE",
"1252 1219 LINE",
"1252 0 LINE",
"1108 0 LINE",
"502 883 LINE",
"364 1122 LINE",
"364 117 LINE",
"532 96 LINE",
"532 0 LINE",
"86 0 LINE",
"86 96 LINE"
);
}
);
width = 1441;
}
);
note = N;
unicode = 004E;
},
{
glyphname = Nacute;
layers = (
{
layerId = "2D872161-907C-4693-BC79-717BAF554E8F";
name = Regular;
paths = (
{
closed = 1;
nodes = (
"924 1771 LINE",
"925 1771 LINE",
"1059 1659 LINE",
"1018 1603 OFFCURVE",
"916 1538 OFFCURVE",
"819 1488 CURVE SMOOTH",
"770 1463 OFFCURVE",
"732 1446 OFFCURVE",
"704 1437 CURVE",
"703 1437 LINE",
"633 1497 LINE"
);
},
{
closed = 1;
nodes = (
"231 116 LINE",
"231 1219 LINE",
"86 1242 LINE",
"86 1339 LINE",
"434 1339 LINE",
"1026 474 LINE",
"1119 300 LINE",
"1119 1220 LINE",
"962 1242 LINE",
"962 1339 LINE",
"1398 1339 LINE",
"1398 1242 LINE",
"1252 1219 LINE",
"1252 0 LINE",
"1108 0 LINE",
"502 883 LINE",
"364 1122 LINE",
"364 117 LINE",
"532 96 LINE",
"532 0 LINE",
"86 0 LINE",
"86 96 LINE"
);
}
);
width = 1443;
}
);
note = Nacute;
unicode = 0143;
},
{
glyphname = Ncaron;
layers = (
{
layerId = "2D872161-907C-4693-BC79-717BAF554E8F";
name = Regular;
paths = (
{
closed = 1;
nodes = (
"528 1771 LINE",
"752 1605 LINE",
"985 1771 LINE",
"1059 1720 LINE",
"833 1475 LINE",
"672 1475 LINE",
"448 1718 LINE"
);
},
{
closed = 1;
nodes = (
"231 116 LINE",
"231 1219 LINE",
"86 1242 LINE",
"86 1339 LINE",
"434 1339 LINE",
"1026 474 LINE",
"1119 300 LINE",
"1119 1220 LINE",
"962 1242 LINE",
"962 1339 LINE",
"1398 1339 LINE",
"1398 1242 LINE",
"1252 1219 LINE",
"1252 0 LINE",
"1108 0 LINE",
"502 883 LINE",
"364 1122 LINE",
"364 117 LINE",
"532 96 LINE",
"532 0 LINE",
"86 0 LINE",
"86 96 LINE"
);
}
);
width = 1443;
}
);
note = Ncaron;
unicode = 0147;
},
{
glyphname = Ncommaaccent;
layers = (
{
layerId = "2D872161-907C-4693-BC79-717BAF554E8F";
name = Regular;
paths = (
{
closed = 1;
nodes = (
"741 -493 LINE",
"672 -458 LINE",
"671 -443 LINE",
"703 -428 OFFCURVE",
"723 -378 OFFCURVE",
"723 -330 CURVE SMOOTH",
"723 -301 OFFCURVE",
"708 -285 OFFCURVE",
"684 -268 CURVE",
"661 -255 OFFCURVE",
"649 -233 OFFCURVE",
"649 -192 CURVE SMOOTH",
"649 -144 OFFCURVE",
"678 -117 OFFCURVE",
"711 -105 CURVE",
"727 -100 OFFCURVE",
"742 -97 OFFCURVE",
"756 -97 CURVE SMOOTH",
"765 -97 LINE SMOOTH",
"841 -97 OFFCURVE",
"888 -150 OFFCURVE",
"888 -239 CURVE SMOOTH",
"888 -326 OFFCURVE",
"843 -405 OFFCURVE",
"795 -453 CURVE SMOOTH",
"771 -478 OFFCURVE",
"754 -491 OFFCURVE",
"744 -493 CURVE"
);
},
{
closed = 1;
nodes = (
"231 116 LINE",
"231 1219 LINE",
"86 1242 LINE",
"86 1339 LINE",
"434 1339 LINE",
"1026 474 LINE",
"1119 300 LINE",
"1119 1220 LINE",
"962 1242 LINE",
"962 1339 LINE",
"1398 1339 LINE",
"1398 1242 LINE",
"1252 1219 LINE",
"1252 0 LINE",
"1108 0 LINE",
"502 883 LINE",
"364 1122 LINE",
"364 117 LINE",
"532 96 LINE",
"532 0 LINE",
"86 0 LINE",
"86 96 LINE"
);
}
);
width = 1443;
}
);
note = Ncommaaccent;
unicode = 0145;
},
{
glyphname = Eng;
layers = (
{
layerId = "2D872161-907C-4693-BC79-717BAF554E8F";
name = Regular;
paths = (
{
closed = 1;
nodes = (
"234 115 LINE",
"234 1223 LINE",
"87 1248 LINE",
"87 1339 LINE",
"440 1339 LINE",
"994 474 LINE",
"1121 233 LINE",
"1121 1221 LINE",
"968 1244 LINE",
"968 1339 LINE",
"1402 1339 LINE",
"1402 1244 LINE",
"1254 1221 LINE",
"1254 355 LINE SMOOTH",
"1254 150 OFFCURVE",
"1227 22 OFFCURVE",
"1190 -51 CURVE SMOOTH",
"1153 -124 OFFCURVE",
"1075 -219 OFFCURVE",
"972 -270 CURVE SMOOTH",
"920 -295 OFFCURVE",
"861 -312 OFFCURVE",
"796 -319 CURVE",
"748 -242 LINE",
"859 -213 OFFCURVE",
"950 -154 OFFCURVE",
"1007 -69 CURVE SMOOTH",
"1025 -41 OFFCURVE",
"1040 -11 OFFCURVE",
"1052 22 CURVE",
"491 887 LINE",
"368 1126 LINE",
"368 115 LINE",
"533 94 LINE",
"533 0 LINE",
"87 0 LINE",
"87 94 LINE"
);
}
);
width = 1419;
}
);
note = Eng;
unicode = 014A;
},
{
glyphname = Ntilde;
layers = (
{
layerId = "2D872161-907C-4693-BC79-717BAF554E8F";
name = Regular;
paths = (
{
closed = 1;
nodes = (
"512 1629 OFFCURVE",
"475 1583 OFFCURVE",
"456 1552 CURVE",
"446 1537 OFFCURVE",
"440 1527 OFFCURVE",
"438 1524 CURVE",
"353 1580 LINE",
"370 1636 OFFCURVE",
"418 1699 OFFCURVE",
"489 1738 CURVE SMOOTH",
"524 1757 OFFCURVE",
"563 1767 OFFCURVE",
"606 1767 CURVE SMOOTH",
"655 1767 OFFCURVE",
"696 1748 OFFCURVE",
"726 1727 CURVE SMOOTH",
"741 1716 OFFCURVE",
"758 1702 OFFCURVE",
"778 1683 CURVE SMOOTH",
"826 1640 OFFCURVE",
"852 1621 OFFCURVE",
"893 1621 CURVE SMOOTH",
"954 1621 OFFCURVE",
"988 1664 OFFCURVE",
"1005 1696 CURVE SMOOTH",
"1014 1712 OFFCURVE",
"1019 1722 OFFCURVE",
"1022 1727 CURVE",
"1108 1670 LINE",
"1068 1562 OFFCURVE",
"989 1482 OFFCURVE",
"874 1482 CURVE SMOOTH",
"805 1482 OFFCURVE",
"762 1511 OFFCURVE",
"702 1564 CURVE SMOOTH",
"649 1608 OFFCURVE",
"619 1629 OFFCURVE",
"575 1629 CURVE SMOOTH"
);
},
{
closed = 1;
nodes = (
"231 116 LINE",
"231 1219 LINE",
"86 1242 LINE",
"86 1339 LINE",
"434 1339 LINE",
"1026 474 LINE",
"1119 300 LINE",
"1119 1220 LINE",
"962 1242 LINE",
"962 1339 LINE",
"1398 1339 LINE",
"1398 1242 LINE",
"1252 1219 LINE",
"1252 0 LINE",
"1108 0 LINE",
"502 883 LINE",
"364 1122 LINE",
"364 117 LINE",
"532 96 LINE",
"532 0 LINE",
"86 0 LINE",
"86 96 LINE"
);
}
);
width = 1443;
}
);
note = Ntilde;
unicode = 00D1;
},
{
glyphname = O;
layers = (
{
layerId = "2D872161-907C-4693-BC79-717BAF554E8F";
name = Regular;
paths = (
{
closed = 1;
nodes = (
"58 937 OFFCURVE",
"170 1155 OFFCURVE",
"355 1269 CURVE SMOOTH",
"448 1326 OFFCURVE",
"552 1354 OFFCURVE",
"667 1354 CURVE SMOOTH",
"918 1354 OFFCURVE",
"1093 1240 OFFCURVE",
"1179 1040 CURVE SMOOTH",
"1222 939 OFFCURVE",
"1243 821 OFFCURVE",
"1243 684 CURVE SMOOTH",
"1243 403 OFFCURVE",
"1131 183 OFFCURVE",
"944 67 CURVE SMOOTH",
"850 9 OFFCURVE",
"744 -20 OFFCURVE",
"627 -20 CURVE SMOOTH",
"383 -20 OFFCURVE",
"210 99 OFFCURVE",
"123 304 CURVE SMOOTH",
"80 406 OFFCURVE",
"58 525 OFFCURVE",
"58 660 CURVE SMOOTH"
);
},
{
closed = 1;
nodes = (
"287 426 OFFCURVE",
"346 247 OFFCURVE",
"455 154 CURVE SMOOTH",
"510 107 OFFCURVE",
"575 84 OFFCURVE",
"651 84 CURVE SMOOTH",
"800 84 OFFCURVE",
"911 172 OFFCURVE",
"971 352 CURVE SMOOTH",
"1001 441 OFFCURVE",
"1016 552 OFFCURVE",
"1016 683 CURVE SMOOTH",
"1016 918 OFFCURVE",
"957 1092 OFFCURVE",
"848 1183 CURVE SMOOTH",
"793 1228 OFFCURVE",
"728 1251 OFFCURVE",
"652 1251 CURVE SMOOTH",
"501 1251 OFFCURVE",
"391 1166 OFFCURVE",
"332 990 CURVE SMOOTH",
"302 902 OFFCURVE",
"287 792 OFFCURVE",
"287 661 CURVE SMOOTH"
);
}
);
width = 1302;
}
);
note = O;
unicode = 004F;
},
{
glyphname = Oacute;
layers = (
{
layerId = "2D872161-907C-4693-BC79-717BAF554E8F";
name = Regular;
paths = (
{
closed = 1;
nodes = (
"819 1771 LINE",
"820 1771 LINE",
"954 1659 LINE",
"913 1603 OFFCURVE",
"811 1538 OFFCURVE",
"714 1488 CURVE SMOOTH",
"665 1463 OFFCURVE",
"627 1446 OFFCURVE",
"599 1437 CURVE",
"598 1437 LINE",
"528 1497 LINE"
);
},
{
closed = 1;
nodes = (
"58 937 OFFCURVE",
"170 1155 OFFCURVE",
"355 1269 CURVE SMOOTH",
"448 1326 OFFCURVE",
"552 1354 OFFCURVE",
"667 1354 CURVE SMOOTH",
"918 1354 OFFCURVE",
"1093 1240 OFFCURVE",
"1179 1040 CURVE SMOOTH",
"1222 939 OFFCURVE",
"1243 821 OFFCURVE",
"1243 684 CURVE SMOOTH",
"1243 403 OFFCURVE",
"1131 183 OFFCURVE",
"944 67 CURVE SMOOTH",
"850 9 OFFCURVE",
"744 -20 OFFCURVE",
"627 -20 CURVE SMOOTH",
"383 -20 OFFCURVE",
"210 99 OFFCURVE",
"123 304 CURVE SMOOTH",
"80 406 OFFCURVE",
"58 525 OFFCURVE",
"58 660 CURVE SMOOTH"
);
},
{
closed = 1;
nodes = (
"287 426 OFFCURVE",
"346 247 OFFCURVE",
"455 154 CURVE SMOOTH",
"510 107 OFFCURVE",
"575 84 OFFCURVE",
"651 84 CURVE SMOOTH",
"800 84 OFFCURVE",
"911 172 OFFCURVE",
"971 352 CURVE SMOOTH",
"1001 441 OFFCURVE",
"1016 552 OFFCURVE",
"1016 683 CURVE SMOOTH",
"1016 918 OFFCURVE",
"957 1092 OFFCURVE",
"848 1183 CURVE SMOOTH",
"793 1228 OFFCURVE",
"728 1251 OFFCURVE",
"652 1251 CURVE SMOOTH",
"501 1251 OFFCURVE",
"391 1166 OFFCURVE",
"332 990 CURVE SMOOTH",
"302 902 OFFCURVE",
"287 792 OFFCURVE",
"287 661 CURVE SMOOTH"
);
}
);
width = 1302;
}
);
note = Oacute;
unicode = 00D3;
},
{
glyphname = Obreve;
layers = (
{
layerId = "2D872161-907C-4693-BC79-717BAF554E8F";
name = Regular;
paths = (
{
closed = 1;
nodes = (
"354 1738 OFFCURVE",
"355 1750 OFFCURVE",
"356 1758 CURVE",
"462 1758 LINE",
"462 1749 OFFCURVE",
"463 1741 OFFCURVE",
"465 1734 CURVE",
"476 1665 OFFCURVE",
"531 1595 OFFCURVE",
"659 1595 CURVE SMOOTH",
"787 1595 OFFCURVE",
"839 1664 OFFCURVE",
"848 1735 CURVE SMOOTH",
"849 1742 OFFCURVE",
"849 1750 OFFCURVE",
"849 1758 CURVE",
"954 1758 LINE",
"955 1750 OFFCURVE",
"956 1738 OFFCURVE",
"956 1722 CURVE SMOOTH",
"956 1619 OFFCURVE",
"908 1531 OFFCURVE",
"818 1483 CURVE SMOOTH",
"773 1458 OFFCURVE",
"719 1446 OFFCURVE",
"658 1446 CURVE SMOOTH",
"530 1446 OFFCURVE",
"436 1497 OFFCURVE",
"389 1581 CURVE SMOOTH",
"366 1623 OFFCURVE",
"354 1670 OFFCURVE",
"354 1721 CURVE SMOOTH"
);
},
{
closed = 1;
nodes = (
"58 937 OFFCURVE",
"170 1155 OFFCURVE",
"355 1269 CURVE SMOOTH",
"448 1326 OFFCURVE",
"552 1354 OFFCURVE",
"667 1354 CURVE SMOOTH",
"918 1354 OFFCURVE",
"1093 1240 OFFCURVE",
"1179 1040 CURVE SMOOTH",
"1222 939 OFFCURVE",
"1243 821 OFFCURVE",
"1243 684 CURVE SMOOTH",
"1243 403 OFFCURVE",
"1131 183 OFFCURVE",
"944 67 CURVE SMOOTH",
"850 9 OFFCURVE",
"744 -20 OFFCURVE",
"627 -20 CURVE SMOOTH",
"383 -20 OFFCURVE",
"210 99 OFFCURVE",
"123 304 CURVE SMOOTH",
"80 406 OFFCURVE",
"58 525 OFFCURVE",
"58 660 CURVE SMOOTH"
);
},
{
closed = 1;
nodes = (
"287 426 OFFCURVE",
"346 247 OFFCURVE",
"455 154 CURVE SMOOTH",
"510 107 OFFCURVE",
"575 84 OFFCURVE",
"651 84 CURVE SMOOTH",
"800 84 OFFCURVE",
"911 172 OFFCURVE",
"971 352 CURVE SMOOTH",
"1001 441 OFFCURVE",
"1016 552 OFFCURVE",
"1016 683 CURVE SMOOTH",
"1016 918 OFFCURVE",
"957 1092 OFFCURVE",
"848 1183 CURVE SMOOTH",
"793 1228 OFFCURVE",
"728 1251 OFFCURVE",
"652 1251 CURVE SMOOTH",
"501 1251 OFFCURVE",
"391 1166 OFFCURVE",
"332 990 CURVE SMOOTH",
"302 902 OFFCURVE",
"287 792 OFFCURVE",
"287 661 CURVE SMOOTH"
);
}
);
width = 1302;
}
);
note = Obreve;
unicode = 014E;
},
{
glyphname = Ocircumflex;
layers = (
{
layerId = "2D872161-907C-4693-BC79-717BAF554E8F";
name = Regular;
paths = (
{
closed = 1;
nodes = (
"58 937 OFFCURVE",
"170 1155 OFFCURVE",
"355 1269 CURVE SMOOTH",
"448 1326 OFFCURVE",
"552 1354 OFFCURVE",
"667 1354 CURVE SMOOTH",
"918 1354 OFFCURVE",
"1093 1240 OFFCURVE",
"1179 1040 CURVE SMOOTH",
"1222 939 OFFCURVE",
"1243 821 OFFCURVE",
"1243 684 CURVE SMOOTH",
"1243 403 OFFCURVE",
"1131 183 OFFCURVE",
"944 67 CURVE SMOOTH",
"850 9 OFFCURVE",
"744 -20 OFFCURVE",
"627 -20 CURVE SMOOTH",
"383 -20 OFFCURVE",
"210 99 OFFCURVE",
"123 304 CURVE SMOOTH",
"80 406 OFFCURVE",
"58 525 OFFCURVE",
"58 660 CURVE SMOOTH"
);
},
{
closed = 1;
nodes = (
"287 426 OFFCURVE",
"346 247 OFFCURVE",
"455 154 CURVE SMOOTH",
"510 107 OFFCURVE",
"575 84 OFFCURVE",
"651 84 CURVE SMOOTH",
"800 84 OFFCURVE",
"911 172 OFFCURVE",
"971 352 CURVE SMOOTH",
"1001 441 OFFCURVE",
"1016 552 OFFCURVE",
"1016 683 CURVE SMOOTH",
"1016 918 OFFCURVE",
"957 1092 OFFCURVE",
"848 1183 CURVE SMOOTH",
"793 1228 OFFCURVE",
"728 1251 OFFCURVE",
"652 1251 CURVE SMOOTH",
"501 1251 OFFCURVE",
"391 1166 OFFCURVE",
"332 990 CURVE SMOOTH",
"302 902 OFFCURVE",
"287 792 OFFCURVE",
"287 661 CURVE SMOOTH"
);
},
{
closed = 1;
nodes = (
"573 1771 LINE",
"734 1771 LINE",
"976 1509 LINE",
"895 1456 LINE",
"654 1633 LINE",
"410 1456 LINE",
"335 1507 LINE"
);
}
);
width = 1302;
}
);
note = Ocircumflex;
unicode = 00D4;
},
{
glyphname = Odieresis;
layers = (
{
layerId = "2D872161-907C-4693-BC79-717BAF554E8F";
name = Regular;
paths = (
{
closed = 1;
nodes = (
"313 1684 OFFCURVE",
"359 1745 OFFCURVE",
"442 1745 CURVE SMOOTH",
"443 1745 LINE SMOOTH",
"491 1745 OFFCURVE",
"528 1720 OFFCURVE",
"546 1683 CURVE SMOOTH",
"555 1664 OFFCURVE",
"559 1645 OFFCURVE",
"559 1624 CURVE SMOOTH",
"559 1543 OFFCURVE",
"511 1485 OFFCURVE",
"423 1485 CURVE SMOOTH",
"423 1485 LINE SMOOTH",
"358 1485 OFFCURVE",
"313 1537 OFFCURVE",
"313 1604 CURVE SMOOTH"
);
},
{
closed = 1;
nodes = (
"753 1684 OFFCURVE",
"800 1745 OFFCURVE",
"881 1745 CURVE SMOOTH",
"882 1745 LINE SMOOTH",
"931 1745 OFFCURVE",
"968 1720 OFFCURVE",
"986 1683 CURVE SMOOTH",
"995 1664 OFFCURVE",
"999 1645 OFFCURVE",
"999 1624 CURVE SMOOTH",
"999 1543 OFFCURVE",
"952 1485 OFFCURVE",
"864 1485 CURVE SMOOTH",
"863 1485 LINE SMOOTH",
"798 1485 OFFCURVE",
"753 1537 OFFCURVE",
"753 1604 CURVE SMOOTH"
);
},
{
closed = 1;
nodes = (
"58 937 OFFCURVE",
"170 1155 OFFCURVE",
"355 1269 CURVE SMOOTH",
"448 1326 OFFCURVE",
"552 1354 OFFCURVE",
"667 1354 CURVE SMOOTH",
"918 1354 OFFCURVE",
"1093 1240 OFFCURVE",
"1179 1040 CURVE SMOOTH",
"1222 939 OFFCURVE",
"1243 821 OFFCURVE",
"1243 684 CURVE SMOOTH",
"1243 403 OFFCURVE",
"1131 183 OFFCURVE",
"944 67 CURVE SMOOTH",
"850 9 OFFCURVE",
"744 -20 OFFCURVE",
"627 -20 CURVE SMOOTH",
"383 -20 OFFCURVE",
"210 99 OFFCURVE",
"123 304 CURVE SMOOTH",
"80 406 OFFCURVE",
"58 525 OFFCURVE",
"58 660 CURVE SMOOTH"
);
},
{
closed = 1;
nodes = (
"287 426 OFFCURVE",
"346 247 OFFCURVE",
"455 154 CURVE SMOOTH",
"510 107 OFFCURVE",
"575 84 OFFCURVE",
"651 84 CURVE SMOOTH",
"800 84 OFFCURVE",
"911 172 OFFCURVE",
"971 352 CURVE SMOOTH",
"1001 441 OFFCURVE",
"1016 552 OFFCURVE",
"1016 683 CURVE SMOOTH",
"1016 918 OFFCURVE",
"957 1092 OFFCURVE",
"848 1183 CURVE SMOOTH",
"793 1228 OFFCURVE",
"728 1251 OFFCURVE",
"652 1251 CURVE SMOOTH",
"501 1251 OFFCURVE",
"391 1166 OFFCURVE",
"332 990 CURVE SMOOTH",
"302 902 OFFCURVE",
"287 792 OFFCURVE",
"287 661 CURVE SMOOTH"
);
}
);
width = 1302;
}
);
note = Odieresis;
unicode = 00D6;
},
{
glyphname = Ograve;
layers = (
{
layerId = "2D872161-907C-4693-BC79-717BAF554E8F";
name = Regular;
paths = (
{
closed = 1;
nodes = (
"508 1771 LINE",
"509 1771 LINE",
"801 1497 LINE",
"730 1437 LINE",
"729 1437 LINE",
"672 1456 OFFCURVE",
"559 1512 OFFCURVE",
"470 1573 CURVE SMOOTH",
"425 1604 OFFCURVE",
"394 1632 OFFCURVE",
"375 1659 CURVE"
);
},
{
closed = 1;
nodes = (
"58 937 OFFCURVE",
"170 1155 OFFCURVE",
"355 1269 CURVE SMOOTH",
"448 1326 OFFCURVE",
"552 1354 OFFCURVE",
"667 1354 CURVE SMOOTH",
"918 1354 OFFCURVE",
"1093 1240 OFFCURVE",
"1179 1040 CURVE SMOOTH",
"1222 939 OFFCURVE",
"1243 821 OFFCURVE",
"1243 684 CURVE SMOOTH",
"1243 403 OFFCURVE",
"1131 183 OFFCURVE",
"944 67 CURVE SMOOTH",
"850 9 OFFCURVE",
"744 -20 OFFCURVE",
"627 -20 CURVE SMOOTH",
"383 -20 OFFCURVE",
"210 99 OFFCURVE",
"123 304 CURVE SMOOTH",
"80 406 OFFCURVE",
"58 525 OFFCURVE",
"58 660 CURVE SMOOTH"
);
},
{
closed = 1;
nodes = (
"287 426 OFFCURVE",
"346 247 OFFCURVE",
"455 154 CURVE SMOOTH",
"510 107 OFFCURVE",
"575 84 OFFCURVE",
"651 84 CURVE SMOOTH",
"800 84 OFFCURVE",
"911 172 OFFCURVE",
"971 352 CURVE SMOOTH",
"1001 441 OFFCURVE",
"1016 552 OFFCURVE",
"1016 683 CURVE SMOOTH",
"1016 918 OFFCURVE",
"957 1092 OFFCURVE",
"848 1183 CURVE SMOOTH",
"793 1228 OFFCURVE",
"728 1251 OFFCURVE",
"652 1251 CURVE SMOOTH",
"501 1251 OFFCURVE",
"391 1166 OFFCURVE",
"332 990 CURVE SMOOTH",
"302 902 OFFCURVE",
"287 792 OFFCURVE",
"287 661 CURVE SMOOTH"
);
}
);
width = 1302;
}
);
note = Ograve;
unicode = 00D2;
},
{
glyphname = Ohungarumlaut;
layers = (
{
layerId = "2D872161-907C-4693-BC79-717BAF554E8F";
name = Regular;
paths = (
{
closed = 1;
nodes = (
"58 937 OFFCURVE",
"170 1155 OFFCURVE",
"355 1269 CURVE SMOOTH",
"448 1326 OFFCURVE",
"552 1354 OFFCURVE",
"667 1354 CURVE SMOOTH",
"918 1354 OFFCURVE",
"1093 1240 OFFCURVE",
"1179 1040 CURVE SMOOTH",
"1222 939 OFFCURVE",
"1243 821 OFFCURVE",
"1243 684 CURVE SMOOTH",
"1243 403 OFFCURVE",
"1131 183 OFFCURVE",
"944 67 CURVE SMOOTH",
"850 9 OFFCURVE",
"744 -20 OFFCURVE",
"627 -20 CURVE SMOOTH",
"383 -20 OFFCURVE",
"210 99 OFFCURVE",
"123 304 CURVE SMOOTH",
"80 406 OFFCURVE",
"58 525 OFFCURVE",
"58 660 CURVE SMOOTH"
);
},
{
closed = 1;
nodes = (
"287 426 OFFCURVE",
"346 247 OFFCURVE",
"455 154 CURVE SMOOTH",
"510 107 OFFCURVE",
"575 84 OFFCURVE",
"651 84 CURVE SMOOTH",
"800 84 OFFCURVE",
"911 172 OFFCURVE",
"971 352 CURVE SMOOTH",
"1001 441 OFFCURVE",
"1016 552 OFFCURVE",
"1016 683 CURVE SMOOTH",
"1016 918 OFFCURVE",
"957 1092 OFFCURVE",
"848 1183 CURVE SMOOTH",
"793 1228 OFFCURVE",
"728 1251 OFFCURVE",
"652 1251 CURVE SMOOTH",
"501 1251 OFFCURVE",
"391 1166 OFFCURVE",
"332 990 CURVE SMOOTH",
"302 902 OFFCURVE",
"287 792 OFFCURVE",
"287 661 CURVE SMOOTH"
);
},
{
closed = 1;
nodes = (
"566 1772 LINE",
"694 1667 LINE",
"618 1580 OFFCURVE",
"500 1493 OFFCURVE",
"405 1441 CURVE",
"321 1513 LINE"
);
},
{
closed = 1;
nodes = (
"1025 1771 LINE",
"1143 1665 LINE",
"1076 1586 OFFCURVE",
"947 1492 OFFCURVE",
"850 1441 CURVE",
"767 1513 LINE"
);
}
);
width = 1302;
}
);
note = Ohungarumlaut;
unicode = 0150;
},
{
glyphname = Omacron;
layers = (
{
layerId = "2D872161-907C-4693-BC79-717BAF554E8F";
name = Regular;
paths = (
{
closed = 1;
nodes = (
"910 1676 LINE",
"910 1536 LINE",
"408 1536 LINE",
"408 1676 LINE"
);
},
{
closed = 1;
nodes = (
"58 937 OFFCURVE",
"170 1155 OFFCURVE",
"355 1269 CURVE SMOOTH",
"448 1326 OFFCURVE",
"552 1354 OFFCURVE",
"667 1354 CURVE SMOOTH",
"918 1354 OFFCURVE",
"1093 1240 OFFCURVE",
"1179 1040 CURVE SMOOTH",
"1222 939 OFFCURVE",
"1243 821 OFFCURVE",
"1243 684 CURVE SMOOTH",
"1243 403 OFFCURVE",
"1131 183 OFFCURVE",
"944 67 CURVE SMOOTH",
"850 9 OFFCURVE",
"744 -20 OFFCURVE",
"627 -20 CURVE SMOOTH",
"383 -20 OFFCURVE",
"210 99 OFFCURVE",
"123 304 CURVE SMOOTH",
"80 406 OFFCURVE",
"58 525 OFFCURVE",
"58 660 CURVE SMOOTH"
);
},
{
closed = 1;
nodes = (
"287 426 OFFCURVE",
"346 247 OFFCURVE",
"455 154 CURVE SMOOTH",
"510 107 OFFCURVE",
"575 84 OFFCURVE",
"651 84 CURVE SMOOTH",
"800 84 OFFCURVE",
"911 172 OFFCURVE",
"971 352 CURVE SMOOTH",
"1001 441 OFFCURVE",
"1016 552 OFFCURVE",
"1016 683 CURVE SMOOTH",
"1016 918 OFFCURVE",
"957 1092 OFFCURVE",
"848 1183 CURVE SMOOTH",
"793 1228 OFFCURVE",
"728 1251 OFFCURVE",
"652 1251 CURVE SMOOTH",
"501 1251 OFFCURVE",
"391 1166 OFFCURVE",
"332 990 CURVE SMOOTH",
"302 902 OFFCURVE",
"287 792 OFFCURVE",
"287 661 CURVE SMOOTH"
);
}
);
width = 1302;
}
);
note = Omacron;
unicode = 014C;
},
{
glyphname = Oslash;
layers = (
{
layerId = "2D872161-907C-4693-BC79-717BAF554E8F";
name = Regular;
paths = (
{
closed = 1;
nodes = (
"362 38 LINE",
"163 139 OFFCURVE",
"58 363 OFFCURVE",
"58 660 CURVE SMOOTH",
"58 937 OFFCURVE",
"170 1155 OFFCURVE",
"355 1269 CURVE SMOOTH",
"448 1326 OFFCURVE",
"552 1354 OFFCURVE",
"667 1354 CURVE SMOOTH",
"733 1354 OFFCURVE",
"795 1346 OFFCURVE",
"854 1330 CURVE",
"924 1513 LINE",
"1017 1481 LINE",
"942 1295 LINE",
"1141 1196 OFFCURVE",
"1243 980 OFFCURVE",
"1243 684 CURVE SMOOTH",
"1243 407 OFFCURVE",
"1134 187 OFFCURVE",
"951 70 CURVE SMOOTH",
"767 -47 OFFCURVE",
"570 -29 OFFCURVE",
"453 2 CURVE",
"374 -190 LINE",
"279 -161 LINE"
);
},
{
closed = 1;
nodes = (
"287 442 OFFCURVE",
"338 274 OFFCURVE",
"431 177 CURVE",
"808 1211 LINE",
"762 1238 OFFCURVE",
"710 1251 OFFCURVE",
"652 1251 CURVE SMOOTH",
"501 1251 OFFCURVE",
"391 1166 OFFCURVE",
"332 990 CURVE SMOOTH",
"302 902 OFFCURVE",
"287 792 OFFCURVE",
"287 661 CURVE SMOOTH"
);
},
{
closed = 1;
nodes = (
"500 122 LINE",
"545 97 OFFCURVE",
"595 84 OFFCURVE",
"651 84 CURVE SMOOTH",
"800 84 OFFCURVE",
"911 172 OFFCURVE",
"971 352 CURVE SMOOTH",
"1001 441 OFFCURVE",
"1016 552 OFFCURVE",
"1016 683 CURVE SMOOTH",
"1016 895 OFFCURVE",
"967 1060 OFFCURVE",
"876 1155 CURVE"
);
}
);
width = 1302;
}
);
note = Oslash;
unicode = 00D8;
},
{
glyphname = Oslashacute;
layers = (
{
layerId = "2D872161-907C-4693-BC79-717BAF554E8F";
name = Regular;
paths = (
{
closed = 1;
nodes = (
"362 38 LINE",
"163 139 OFFCURVE",
"58 363 OFFCURVE",
"58 660 CURVE SMOOTH",
"58 937 OFFCURVE",
"170 1155 OFFCURVE",
"355 1269 CURVE SMOOTH",
"448 1326 OFFCURVE",
"552 1354 OFFCURVE",
"667 1354 CURVE SMOOTH",
"733 1354 OFFCURVE",
"795 1346 OFFCURVE",
"854 1330 CURVE",
"924 1513 LINE",
"1017 1481 LINE",
"942 1295 LINE",
"1141 1196 OFFCURVE",
"1243 980 OFFCURVE",
"1243 684 CURVE SMOOTH",
"1243 407 OFFCURVE",
"1134 187 OFFCURVE",
"951 70 CURVE SMOOTH",
"767 -47 OFFCURVE",
"570 -29 OFFCURVE",
"453 2 CURVE",
"374 -190 LINE",
"279 -161 LINE"
);
},
{
closed = 1;
nodes = (
"287 442 OFFCURVE",
"338 274 OFFCURVE",
"431 177 CURVE",
"808 1211 LINE",
"762 1238 OFFCURVE",
"710 1251 OFFCURVE",
"652 1251 CURVE SMOOTH",
"501 1251 OFFCURVE",
"391 1166 OFFCURVE",
"332 990 CURVE SMOOTH",
"302 902 OFFCURVE",
"287 792 OFFCURVE",
"287 661 CURVE SMOOTH"
);
},
{
closed = 1;
nodes = (
"500 122 LINE",
"545 97 OFFCURVE",
"595 84 OFFCURVE",
"651 84 CURVE SMOOTH",
"800 84 OFFCURVE",
"911 172 OFFCURVE",
"971 352 CURVE SMOOTH",
"1001 441 OFFCURVE",
"1016 552 OFFCURVE",
"1016 683 CURVE SMOOTH",
"1016 895 OFFCURVE",
"967 1060 OFFCURVE",
"876 1155 CURVE"
);
},
{
closed = 1;
nodes = (
"783 1771 LINE",
"784 1771 LINE",
"918 1659 LINE",
"877 1603 OFFCURVE",
"775 1538 OFFCURVE",
"678 1488 CURVE SMOOTH",
"629 1463 OFFCURVE",
"591 1446 OFFCURVE",
"563 1437 CURVE",
"562 1437 LINE",
"492 1497 LINE"
);
}
);
width = 1302;
}
);
note = Oslashacute;
unicode = 01FE;
},
{
glyphname = Otilde;
layers = (
{
layerId = "2D872161-907C-4693-BC79-717BAF554E8F";
name = Regular;
paths = (
{
closed = 1;
nodes = (
"438 1629 OFFCURVE",
"401 1583 OFFCURVE",
"382 1552 CURVE",
"372 1537 OFFCURVE",
"366 1527 OFFCURVE",
"364 1524 CURVE",
"279 1580 LINE",
"296 1636 OFFCURVE",
"344 1699 OFFCURVE",
"415 1738 CURVE SMOOTH",
"450 1757 OFFCURVE",
"489 1767 OFFCURVE",
"532 1767 CURVE SMOOTH",
"581 1767 OFFCURVE",
"622 1748 OFFCURVE",
"652 1727 CURVE SMOOTH",
"667 1716 OFFCURVE",
"684 1702 OFFCURVE",
"704 1683 CURVE SMOOTH",
"752 1640 OFFCURVE",
"778 1621 OFFCURVE",
"819 1621 CURVE SMOOTH",
"880 1621 OFFCURVE",
"914 1664 OFFCURVE",
"931 1696 CURVE SMOOTH",
"940 1712 OFFCURVE",
"945 1722 OFFCURVE",
"948 1727 CURVE",
"1034 1670 LINE",
"994 1562 OFFCURVE",
"915 1482 OFFCURVE",
"800 1482 CURVE SMOOTH",
"731 1482 OFFCURVE",
"688 1511 OFFCURVE",
"628 1564 CURVE SMOOTH",
"575 1608 OFFCURVE",
"545 1629 OFFCURVE",
"501 1629 CURVE SMOOTH"
);
},
{
closed = 1;
nodes = (
"58 937 OFFCURVE",
"170 1155 OFFCURVE",
"355 1269 CURVE SMOOTH",
"448 1326 OFFCURVE",
"552 1354 OFFCURVE",
"667 1354 CURVE SMOOTH",
"918 1354 OFFCURVE",
"1093 1240 OFFCURVE",
"1179 1040 CURVE SMOOTH",
"1222 939 OFFCURVE",
"1243 821 OFFCURVE",
"1243 684 CURVE SMOOTH",
"1243 403 OFFCURVE",
"1131 183 OFFCURVE",
"944 67 CURVE SMOOTH",
"850 9 OFFCURVE",
"744 -20 OFFCURVE",
"627 -20 CURVE SMOOTH",
"383 -20 OFFCURVE",
"210 99 OFFCURVE",
"123 304 CURVE SMOOTH",
"80 406 OFFCURVE",
"58 525 OFFCURVE",
"58 660 CURVE SMOOTH"
);
},
{
closed = 1;
nodes = (
"287 426 OFFCURVE",
"346 247 OFFCURVE",
"455 154 CURVE SMOOTH",
"510 107 OFFCURVE",
"575 84 OFFCURVE",
"651 84 CURVE SMOOTH",
"800 84 OFFCURVE",
"911 172 OFFCURVE",
"971 352 CURVE SMOOTH",
"1001 441 OFFCURVE",
"1016 552 OFFCURVE",
"1016 683 CURVE SMOOTH",
"1016 918 OFFCURVE",
"957 1092 OFFCURVE",
"848 1183 CURVE SMOOTH",
"793 1228 OFFCURVE",
"728 1251 OFFCURVE",
"652 1251 CURVE SMOOTH",
"501 1251 OFFCURVE",
"391 1166 OFFCURVE",
"332 990 CURVE SMOOTH",
"302 902 OFFCURVE",
"287 792 OFFCURVE",
"287 661 CURVE SMOOTH"
);
}
);
width = 1302;
}
);
note = Otilde;
unicode = 00D5;
},
{
glyphname = OE;
layers = (
{
layerId = "2D872161-907C-4693-BC79-717BAF554E8F";
name = Regular;
paths = (
{
closed = 1;
nodes = (
"904 52 LINE",
"825 8 OFFCURVE",
"737 -14 OFFCURVE",
"641 -14 CURVE SMOOTH",
"398 -14 OFFCURVE",
"224 105 OFFCURVE",
"136 309 CURVE SMOOTH",
"91 410 OFFCURVE",
"69 528 OFFCURVE",
"69 662 CURVE SMOOTH",
"69 938 OFFCURVE",
"180 1155 OFFCURVE",
"365 1270 CURVE SMOOTH",
"549 1385 OFFCURVE",
"777 1371 OFFCURVE",
"904 1316 CURVE",
"904 1339 LINE",
"1677 1339 LINE",
"1701 1059 LINE",
"1589 1059 LINE",
"1535 1227 LINE",
"1110 1238 LINE",
"1110 740 LINE",
"1398 746 LINE",
"1425 891 LINE",
"1539 891 LINE",
"1539 479 LINE",
"1425 479 LINE",
"1398 629 LINE",
"1110 634 LINE",
"1110 108 LINE",
"1602 128 LINE",
"1717 348 LINE",
"1829 316 LINE",
"1762 0 LINE",
"904 0 LINE"
);
},
{
closed = 1;
nodes = (
"904 1159 LINE",
"848 1226 OFFCURVE",
"768 1259 OFFCURVE",
"663 1259 CURVE SMOOTH",
"508 1259 OFFCURVE",
"397 1168 OFFCURVE",
"338 989 CURVE SMOOTH",
"309 900 OFFCURVE",
"294 791 OFFCURVE",
"294 663 CURVE SMOOTH",
"294 443 OFFCURVE",
"354 262 OFFCURVE",
"466 162 CURVE SMOOTH",
"522 112 OFFCURVE",
"588 87 OFFCURVE",
"664 87 CURVE SMOOTH",
"765 87 OFFCURVE",
"845 126 OFFCURVE",
"904 205 CURVE"
);
}
);
width = 1858;
}
);
note = OE;
unicode = 0152;
},
{
glyphname = P;
layers = (
{
layerId = "2D872161-907C-4693-BC79-717BAF554E8F";
name = Regular;
paths = (
{
closed = 1;
nodes = (
"234 116 LINE",
"234 1219 LINE",
"96 1242 LINE",
"96 1339 LINE",
"313 1339 LINE SMOOTH",
"345 1339 OFFCURVE",
"388 1341 OFFCURVE",
"442 1345 CURVE SMOOTH",
"505 1350 OFFCURVE",
"566 1352 OFFCURVE",
"624 1352 CURVE SMOOTH",
"872 1352 OFFCURVE",
"1014 1291 OFFCURVE",
"1077 1179 CURVE SMOOTH",
"1108 1122 OFFCURVE",
"1124 1051 OFFCURVE",
"1124 966 CURVE SMOOTH",
"1124 773 OFFCURVE",
"1030 627 OFFCURVE",
"872 552 CURVE SMOOTH",
"793 515 OFFCURVE",
"702 496 OFFCURVE",
"601 496 CURVE SMOOTH",
"538 496 OFFCURVE",
"457 501 OFFCURVE",
"441 504 CURVE",
"441 116 LINE",
"678 96 LINE",
"678 0 LINE",
"86 0 LINE",
"86 96 LINE"
);
},
{
closed = 1;
nodes = (
"778 600 OFFCURVE",
"902 703 OFFCURVE",
"902 964 CURVE SMOOTH",
"902 1168 OFFCURVE",
"806 1250 OFFCURVE",
"598 1250 CURVE SMOOTH",
"562 1250 OFFCURVE",
"526 1248 OFFCURVE",
"489 1243 CURVE SMOOTH",
"470 1240 OFFCURVE",
"453 1239 OFFCURVE",
"440 1239 CURVE",
"440 608 LINE",
"468 603 OFFCURVE",
"522 600 OFFCURVE",
"601 600 CURVE SMOOTH"
);
}
);
width = 1168;
}
);
note = P;
unicode = 0050;
},
{
glyphname = Thorn;
layers = (
{
layerId = "2D872161-907C-4693-BC79-717BAF554E8F";
name = Regular;
paths = (
{
closed = 1;
nodes = (
"231 115 LINE",
"231 1221 LINE",
"86 1245 LINE",
"86 1339 LINE",
"590 1339 LINE",
"590 1245 LINE",
"436 1221 LINE",
"436 1024 LINE",
"496 1030 LINE SMOOTH",
"584 1038 OFFCURVE",
"640 1042 OFFCURVE",
"709 1042 CURVE SMOOTH",
"972 1042 OFFCURVE",
"1117 922 OFFCURVE",
"1117 690 CURVE SMOOTH",
"1117 423 OFFCURVE",
"948 295 OFFCURVE",
"651 295 CURVE SMOOTH",
"562 295 OFFCURVE",
"491 297 OFFCURVE",
"436 302 CURVE",
"436 115 LINE",
"627 94 LINE",
"627 0 LINE",
"84 0 LINE",
"84 94 LINE"
);
},
{
closed = 1;
nodes = (
"893 850 OFFCURVE",
"803 935 OFFCURVE",
"622 935 CURVE SMOOTH",
"568 935 OFFCURVE",
"506 930 OFFCURVE",
"436 920 CURVE",
"436 402 LINE",
"481 397 OFFCURVE",
"537 394 OFFCURVE",
"602 394 CURVE SMOOTH",
"632 394 LINE SMOOTH",
"792 394 OFFCURVE",
"893 479 OFFCURVE",
"893 679 CURVE SMOOTH"
);
}
);
width = 1167;
}
);
note = Thorn;
unicode = 00DE;
},
{
glyphname = Q;
layers = (
{
layerId = "2D872161-907C-4693-BC79-717BAF554E8F";
name = Regular;
paths = (
{
closed = 1;
nodes = (
"67 937 OFFCURVE",
"179 1155 OFFCURVE",
"364 1269 CURVE SMOOTH",
"456 1326 OFFCURVE",
"560 1354 OFFCURVE",
"676 1354 CURVE SMOOTH",
"927 1354 OFFCURVE",
"1102 1240 OFFCURVE",
"1188 1040 CURVE SMOOTH",
"1231 939 OFFCURVE",
"1252 821 OFFCURVE",
"1252 684 CURVE SMOOTH",
"1252 481 OFFCURVE",
"1193 308 OFFCURVE",
"1089 185 CURVE SMOOTH",
"1036 123 OFFCURVE",
"975 75 OFFCURVE",
"905 40 CURVE",
"977 37 OFFCURVE",
"1058 7 OFFCURVE",
"1127 -28 CURVE SMOOTH",
"1162 -45 OFFCURVE",
"1206 -69 OFFCURVE",
"1261 -99 CURVE SMOOTH",
"1402 -180 OFFCURVE",
"1486 -221 OFFCURVE",
"1566 -221 CURVE SMOOTH",
"1568 -221 LINE SMOOTH",
"1593 -221 OFFCURVE",
"1609 -221 OFFCURVE",
"1617 -220 CURVE",
"1646 -317 LINE",
"1607 -346 OFFCURVE",
"1556 -374 OFFCURVE",
"1459 -374 CURVE SMOOTH",
"1449 -374 LINE SMOOTH",
"1341 -374 OFFCURVE",
"1246 -332 OFFCURVE",
"1173 -278 CURVE SMOOTH",
"1136 -251 OFFCURVE",
"1093 -216 OFFCURVE",
"1043 -172 CURVE SMOOTH",
"963 -104 OFFCURVE",
"920 -68 OFFCURVE",
"858 -37 CURVE SMOOTH",
"827 -22 OFFCURVE",
"795 -12 OFFCURVE",
"763 -8 CURVE",
"721 -16 OFFCURVE",
"679 -20 OFFCURVE",
"636 -20 CURVE SMOOTH",
"392 -20 OFFCURVE",
"219 99 OFFCURVE",
"132 304 CURVE SMOOTH",
"89 406 OFFCURVE",
"67 525 OFFCURVE",
"67 660 CURVE SMOOTH"
);
},
{
closed = 1;
nodes = (
"296 426 OFFCURVE",
"355 247 OFFCURVE",
"464 154 CURVE SMOOTH",
"519 107 OFFCURVE",
"584 84 OFFCURVE",
"660 84 CURVE SMOOTH",
"809 84 OFFCURVE",
"920 172 OFFCURVE",
"980 352 CURVE SMOOTH",
"1009 441 OFFCURVE",
"1024 552 OFFCURVE",
"1024 683 CURVE SMOOTH",
"1024 918 OFFCURVE",
"966 1092 OFFCURVE",
"857 1183 CURVE SMOOTH",
"802 1228 OFFCURVE",
"737 1251 OFFCURVE",
"661 1251 CURVE SMOOTH",
"510 1251 OFFCURVE",
"400 1166 OFFCURVE",
"341 990 CURVE SMOOTH",
"311 902 OFFCURVE",
"296 792 OFFCURVE",
"296 661 CURVE SMOOTH"
);
}
);
width = 1321;
}
);
note = Q;
unicode = 0051;
},
{
glyphname = R;
layers = (
{
layerId = "2D872161-907C-4693-BC79-717BAF554E8F";
name = Regular;
paths = (
{
closed = 1;
nodes = (
"232 115 LINE",
"232 1221 LINE",
"93 1243 LINE",
"93 1339 LINE",
"335 1339 LINE SMOOTH",
"387 1339 OFFCURVE",
"454 1345 OFFCURVE",
"471 1346 CURVE SMOOTH",
"531 1351 OFFCURVE",
"578 1353 OFFCURVE",
"612 1353 CURVE SMOOTH",
"849 1353 OFFCURVE",
"989 1301 OFFCURVE",
"1053 1198 CURVE SMOOTH",
"1085 1146 OFFCURVE",
"1101 1080 OFFCURVE",
"1101 999 CURVE SMOOTH",
"1101 890 OFFCURVE",
"1058 782 OFFCURVE",
"979 706 CURVE SMOOTH",
"940 667 OFFCURVE",
"893 639 OFFCURVE",
"838 622 CURVE",
"889 593 OFFCURVE",
"940 526 OFFCURVE",
"981 456 CURVE SMOOTH",
"1001 421 OFFCURVE",
"1026 375 OFFCURVE",
"1056 320 CURVE SMOOTH",
"1091 254 OFFCURVE",
"1120 205 OFFCURVE",
"1141 172 CURVE SMOOTH",
"1162 139 OFFCURVE",
"1182 121 OFFCURVE",
"1201 116 CURVE",
"1270 95 LINE",
"1270 0 LINE",
"1009 0 LINE SMOOTH",
"989 0 OFFCURVE",
"967 21 OFFCURVE",
"944 63 CURVE SMOOTH",
"920 104 OFFCURVE",
"888 169 OFFCURVE",
"848 257 CURVE SMOOTH",
"807 350 OFFCURVE",
"771 424 OFFCURVE",
"741 478 CURVE SMOOTH",
"711 532 OFFCURVE",
"681 568 OFFCURVE",
"651 586 CURVE",
"534 586 OFFCURVE",
"463 587 OFFCURVE",
"438 589 CURVE",
"438 115 LINE",
"612 96 LINE",
"612 0 LINE",
"84 0 LINE",
"84 96 LINE"
);
},
{
closed = 1;
nodes = (
"637 690 LINE SMOOTH",
"789 690 OFFCURVE",
"876 789 OFFCURVE",
"876 985 CURVE SMOOTH",
"876 1153 OFFCURVE",
"799 1250 OFFCURVE",
"590 1250 CURVE SMOOTH",
"545 1250 OFFCURVE",
"504 1247 OFFCURVE",
"466 1242 CURVE SMOOTH",
"438 1239 LINE",
"438 692 LINE",
"457 690 OFFCURVE",
"486 689 OFFCURVE",
"527 689 CURVE SMOOTH"
);
}
);
width = 1267;
}
);
note = R;
unicode = 0052;
},
{
glyphname = Racute;
layers = (
{
layerId = "2D872161-907C-4693-BC79-717BAF554E8F";
name = Regular;
paths = (
{
closed = 1;
nodes = (
"232 115 LINE",
"232 1221 LINE",
"93 1243 LINE",
"93 1339 LINE",
"335 1339 LINE SMOOTH",
"387 1339 OFFCURVE",
"454 1345 OFFCURVE",
"471 1346 CURVE SMOOTH",
"531 1351 OFFCURVE",
"578 1353 OFFCURVE",
"612 1353 CURVE SMOOTH",
"849 1353 OFFCURVE",
"989 1301 OFFCURVE",
"1053 1198 CURVE SMOOTH",
"1085 1146 OFFCURVE",
"1101 1080 OFFCURVE",
"1101 999 CURVE SMOOTH",
"1101 890 OFFCURVE",
"1058 782 OFFCURVE",
"979 706 CURVE SMOOTH",
"940 667 OFFCURVE",
"893 639 OFFCURVE",
"838 622 CURVE",
"889 593 OFFCURVE",
"940 526 OFFCURVE",
"981 456 CURVE SMOOTH",
"1001 421 OFFCURVE",
"1026 375 OFFCURVE",
"1056 320 CURVE SMOOTH",
"1091 254 OFFCURVE",
"1120 205 OFFCURVE",
"1141 172 CURVE SMOOTH",
"1162 139 OFFCURVE",
"1182 121 OFFCURVE",
"1201 116 CURVE",
"1270 95 LINE",
"1270 0 LINE",
"1009 0 LINE SMOOTH",
"989 0 OFFCURVE",
"967 21 OFFCURVE",
"944 63 CURVE SMOOTH",
"920 104 OFFCURVE",
"888 169 OFFCURVE",
"848 257 CURVE SMOOTH",
"807 350 OFFCURVE",
"771 424 OFFCURVE",
"741 478 CURVE SMOOTH",
"711 532 OFFCURVE",
"681 568 OFFCURVE",
"651 586 CURVE",
"534 586 OFFCURVE",
"463 587 OFFCURVE",
"438 589 CURVE",
"438 115 LINE",
"612 96 LINE",
"612 0 LINE",
"84 0 LINE",
"84 96 LINE"
);
},
{
closed = 1;
nodes = (
"637 690 LINE SMOOTH",
"789 690 OFFCURVE",
"876 789 OFFCURVE",
"876 985 CURVE SMOOTH",
"876 1153 OFFCURVE",
"799 1250 OFFCURVE",
"590 1250 CURVE SMOOTH",
"545 1250 OFFCURVE",
"504 1247 OFFCURVE",
"466 1242 CURVE SMOOTH",
"438 1239 LINE",
"438 692 LINE",
"457 690 OFFCURVE",
"486 689 OFFCURVE",
"527 689 CURVE SMOOTH"
);
},
{
closed = 1;
nodes = (
"799 1771 LINE",
"800 1771 LINE",
"934 1659 LINE",
"893 1603 OFFCURVE",
"791 1538 OFFCURVE",
"694 1488 CURVE SMOOTH",
"645 1463 OFFCURVE",
"607 1446 OFFCURVE",
"579 1437 CURVE",
"578 1437 LINE",
"508 1497 LINE"
);
}
);
width = 1267;
}
);
note = Racute;
unicode = 0154;
},
{
glyphname = Rcaron;
layers = (
{
layerId = "2D872161-907C-4693-BC79-717BAF554E8F";
name = Regular;
paths = (
{
closed = 1;
nodes = (
"412 1771 LINE",
"636 1605 LINE",
"869 1771 LINE",
"943 1720 LINE",
"717 1475 LINE",
"556 1475 LINE",
"332 1718 LINE"
);
},
{
closed = 1;
nodes = (
"232 115 LINE",
"232 1221 LINE",
"93 1243 LINE",
"93 1339 LINE",
"335 1339 LINE SMOOTH",
"387 1339 OFFCURVE",
"454 1345 OFFCURVE",
"471 1346 CURVE SMOOTH",
"531 1351 OFFCURVE",
"578 1353 OFFCURVE",
"612 1353 CURVE SMOOTH",
"849 1353 OFFCURVE",
"989 1301 OFFCURVE",
"1053 1198 CURVE SMOOTH",
"1085 1146 OFFCURVE",
"1101 1080 OFFCURVE",
"1101 999 CURVE SMOOTH",
"1101 890 OFFCURVE",
"1058 782 OFFCURVE",
"979 706 CURVE SMOOTH",
"940 667 OFFCURVE",
"893 639 OFFCURVE",
"838 622 CURVE",
"889 593 OFFCURVE",
"940 526 OFFCURVE",
"981 456 CURVE SMOOTH",
"1001 421 OFFCURVE",
"1026 375 OFFCURVE",
"1056 320 CURVE SMOOTH",
"1091 254 OFFCURVE",
"1120 205 OFFCURVE",
"1141 172 CURVE SMOOTH",
"1162 139 OFFCURVE",
"1182 121 OFFCURVE",
"1201 116 CURVE",
"1270 95 LINE",
"1270 0 LINE",
"1009 0 LINE SMOOTH",
"989 0 OFFCURVE",
"967 21 OFFCURVE",
"944 63 CURVE SMOOTH",
"920 104 OFFCURVE",
"888 169 OFFCURVE",
"848 257 CURVE SMOOTH",
"807 350 OFFCURVE",
"771 424 OFFCURVE",
"741 478 CURVE SMOOTH",
"711 532 OFFCURVE",
"681 568 OFFCURVE",
"651 586 CURVE",
"534 586 OFFCURVE",
"463 587 OFFCURVE",
"438 589 CURVE",
"438 115 LINE",
"612 96 LINE",
"612 0 LINE",
"84 0 LINE",
"84 96 LINE"
);
},
{
closed = 1;
nodes = (
"637 690 LINE SMOOTH",
"789 690 OFFCURVE",
"876 789 OFFCURVE",
"876 985 CURVE SMOOTH",
"876 1153 OFFCURVE",
"799 1250 OFFCURVE",
"590 1250 CURVE SMOOTH",
"545 1250 OFFCURVE",
"504 1247 OFFCURVE",
"466 1242 CURVE SMOOTH",
"438 1239 LINE",
"438 692 LINE",
"457 690 OFFCURVE",
"486 689 OFFCURVE",
"527 689 CURVE SMOOTH"
);
}
);
width = 1267;
}
);
note = Rcaron;
unicode = 0158;
},
{
glyphname = Rcommaaccent;
layers = (
{
layerId = "2D872161-907C-4693-BC79-717BAF554E8F";
name = Regular;
paths = (
{
closed = 1;
nodes = (
"667 -493 LINE",
"598 -458 LINE",
"597 -443 LINE",
"629 -428 OFFCURVE",
"649 -378 OFFCURVE",
"649 -330 CURVE SMOOTH",
"649 -301 OFFCURVE",
"634 -285 OFFCURVE",
"610 -268 CURVE",
"587 -255 OFFCURVE",
"575 -233 OFFCURVE",
"575 -192 CURVE SMOOTH",
"575 -144 OFFCURVE",
"604 -117 OFFCURVE",
"637 -105 CURVE",
"653 -100 OFFCURVE",
"668 -97 OFFCURVE",
"682 -97 CURVE SMOOTH",
"691 -97 LINE SMOOTH",
"767 -97 OFFCURVE",
"814 -150 OFFCURVE",
"814 -239 CURVE SMOOTH",
"814 -326 OFFCURVE",
"769 -405 OFFCURVE",
"721 -453 CURVE SMOOTH",
"697 -478 OFFCURVE",
"680 -491 OFFCURVE",
"670 -493 CURVE"
);
},
{
closed = 1;
nodes = (
"232 115 LINE",
"232 1221 LINE",
"93 1243 LINE",
"93 1339 LINE",
"335 1339 LINE SMOOTH",
"387 1339 OFFCURVE",
"454 1345 OFFCURVE",
"471 1346 CURVE SMOOTH",
"531 1351 OFFCURVE",
"578 1353 OFFCURVE",
"612 1353 CURVE SMOOTH",
"849 1353 OFFCURVE",
"989 1301 OFFCURVE",
"1053 1198 CURVE SMOOTH",
"1085 1146 OFFCURVE",
"1101 1080 OFFCURVE",
"1101 999 CURVE SMOOTH",
"1101 890 OFFCURVE",
"1058 782 OFFCURVE",
"979 706 CURVE SMOOTH",
"940 667 OFFCURVE",
"893 639 OFFCURVE",
"838 622 CURVE",
"889 593 OFFCURVE",
"940 526 OFFCURVE",
"981 456 CURVE SMOOTH",
"1001 421 OFFCURVE",
"1026 375 OFFCURVE",
"1056 320 CURVE SMOOTH",
"1091 254 OFFCURVE",
"1120 205 OFFCURVE",
"1141 172 CURVE SMOOTH",
"1162 139 OFFCURVE",
"1182 121 OFFCURVE",
"1201 116 CURVE",
"1270 95 LINE",
"1270 0 LINE",
"1009 0 LINE SMOOTH",
"989 0 OFFCURVE",
"967 21 OFFCURVE",
"944 63 CURVE SMOOTH",
"920 104 OFFCURVE",
"888 169 OFFCURVE",
"848 257 CURVE SMOOTH",
"807 350 OFFCURVE",
"771 424 OFFCURVE",
"741 478 CURVE SMOOTH",
"711 532 OFFCURVE",
"681 568 OFFCURVE",
"651 586 CURVE",
"534 586 OFFCURVE",
"463 587 OFFCURVE",
"438 589 CURVE",
"438 115 LINE",
"612 96 LINE",
"612 0 LINE",
"84 0 LINE",
"84 96 LINE"
);
},
{
closed = 1;
nodes = (
"637 690 LINE SMOOTH",
"789 690 OFFCURVE",
"876 789 OFFCURVE",
"876 985 CURVE SMOOTH",
"876 1153 OFFCURVE",
"799 1250 OFFCURVE",
"590 1250 CURVE SMOOTH",
"545 1250 OFFCURVE",
"504 1247 OFFCURVE",
"466 1242 CURVE SMOOTH",
"438 1239 LINE",
"438 692 LINE",
"457 690 OFFCURVE",
"486 689 OFFCURVE",
"527 689 CURVE SMOOTH"
);
}
);
width = 1267;
}
);
note = Rcommaaccent;
unicode = 0156;
},
{
glyphname = S;
layers = (
{
layerId = "2D872161-907C-4693-BC79-717BAF554E8F";
name = Regular;
paths = (
{
closed = 1;
nodes = (
"118 387 LINE",
"240 387 LINE",
"275 162 LINE",
"315 119 OFFCURVE",
"413 85 OFFCURVE",
"517 85 CURVE SMOOTH",
"693 85 OFFCURVE",
"781 167 OFFCURVE",
"781 306 CURVE SMOOTH",
"781 397 OFFCURVE",
"729 460 OFFCURVE",
"646 509 CURVE SMOOTH",
"604 534 OFFCURVE",
"547 562 OFFCURVE",
"474 595 CURVE SMOOTH",
"347 652 OFFCURVE",
"246 711 OFFCURVE",
"174 818 CURVE SMOOTH",
"137 871 OFFCURVE",
"119 935 OFFCURVE",
"119 1008 CURVE SMOOTH",
"119 1141 OFFCURVE",
"193 1250 OFFCURVE",
"326 1310 CURVE SMOOTH",
"392 1339 OFFCURVE",
"469 1354 OFFCURVE",
"557 1354 CURVE SMOOTH",
"665 1354 OFFCURVE",
"750 1334 OFFCURVE",
"849 1306 CURVE SMOOTH",
"875 1298 OFFCURVE",
"896 1293 OFFCURVE",
"912 1290 CURVE",
"900 988 LINE",
"782 988 LINE",
"742 1202 LINE",
"719 1227 OFFCURVE",
"639 1251 OFFCURVE",
"555 1251 CURVE SMOOTH",
"397 1251 OFFCURVE",
"318 1187 OFFCURVE",
"318 1060 CURVE SMOOTH",
"318 971 OFFCURVE",
"370 910 OFFCURVE",
"450 862 CURVE SMOOTH",
"490 837 OFFCURVE",
"549 806 OFFCURVE",
"627 767 CURVE SMOOTH",
"782 691 OFFCURVE",
"874 640 OFFCURVE",
"944 542 CURVE SMOOTH",
"979 493 OFFCURVE",
"996 435 OFFCURVE",
"996 368 CURVE SMOOTH",
"996 239 OFFCURVE",
"924 111 OFFCURVE",
"780 36 CURVE SMOOTH",
"707 -1 OFFCURVE",
"619 -20 OFFCURVE",
"516 -20 CURVE SMOOTH",
"389 -20 OFFCURVE",
"292 5 OFFCURVE",
"180 41 CURVE SMOOTH",
"141 54 OFFCURVE",
"115 61 OFFCURVE",
"103 62 CURVE"
);
}
);
width = 1069;
}
);
note = S;
unicode = 0053;
},
{
glyphname = Sacute;
layers = (
{
layerId = "2D872161-907C-4693-BC79-717BAF554E8F";
name = Regular;
paths = (
{
closed = 1;
nodes = (
"118 387 LINE",
"240 387 LINE",
"275 162 LINE",
"315 119 OFFCURVE",
"413 85 OFFCURVE",
"517 85 CURVE SMOOTH",
"693 85 OFFCURVE",
"781 167 OFFCURVE",
"781 306 CURVE SMOOTH",
"781 397 OFFCURVE",
"729 460 OFFCURVE",
"646 509 CURVE SMOOTH",
"604 534 OFFCURVE",
"547 562 OFFCURVE",
"474 595 CURVE SMOOTH",
"347 652 OFFCURVE",
"246 711 OFFCURVE",
"174 818 CURVE SMOOTH",
"137 871 OFFCURVE",
"119 935 OFFCURVE",
"119 1008 CURVE SMOOTH",
"119 1141 OFFCURVE",
"193 1250 OFFCURVE",
"326 1310 CURVE SMOOTH",
"392 1339 OFFCURVE",
"469 1354 OFFCURVE",
"557 1354 CURVE SMOOTH",
"665 1354 OFFCURVE",
"750 1334 OFFCURVE",
"849 1306 CURVE SMOOTH",
"875 1298 OFFCURVE",
"896 1293 OFFCURVE",
"912 1290 CURVE",
"900 988 LINE",
"782 988 LINE",
"742 1202 LINE",
"719 1227 OFFCURVE",
"639 1251 OFFCURVE",
"555 1251 CURVE SMOOTH",
"397 1251 OFFCURVE",
"318 1187 OFFCURVE",
"318 1060 CURVE SMOOTH",
"318 971 OFFCURVE",
"370 910 OFFCURVE",
"450 862 CURVE SMOOTH",
"490 837 OFFCURVE",
"549 806 OFFCURVE",
"627 767 CURVE SMOOTH",
"782 691 OFFCURVE",
"874 640 OFFCURVE",
"944 542 CURVE SMOOTH",
"979 493 OFFCURVE",
"996 435 OFFCURVE",
"996 368 CURVE SMOOTH",
"996 239 OFFCURVE",
"924 111 OFFCURVE",
"780 36 CURVE SMOOTH",
"707 -1 OFFCURVE",
"619 -20 OFFCURVE",
"516 -20 CURVE SMOOTH",
"389 -20 OFFCURVE",
"292 5 OFFCURVE",
"180 41 CURVE SMOOTH",
"141 54 OFFCURVE",
"115 61 OFFCURVE",
"103 62 CURVE"
);
},
{
closed = 1;
nodes = (
"724 1771 LINE",
"725 1771 LINE",
"859 1659 LINE",
"818 1603 OFFCURVE",
"716 1538 OFFCURVE",
"619 1488 CURVE SMOOTH",
"570 1463 OFFCURVE",
"532 1446 OFFCURVE",
"504 1437 CURVE",
"503 1437 LINE",
"433 1497 LINE"
);
}
);
width = 1069;
}
);
note = Sacute;
unicode = 015A;
},
{
glyphname = Scaron;
layers = (
{
layerId = "2D872161-907C-4693-BC79-717BAF554E8F";
name = Regular;
paths = (
{
closed = 1;
nodes = (
"118 387 LINE",
"240 387 LINE",
"275 162 LINE",
"315 119 OFFCURVE",
"413 85 OFFCURVE",
"517 85 CURVE SMOOTH",
"693 85 OFFCURVE",
"781 167 OFFCURVE",
"781 306 CURVE SMOOTH",
"781 397 OFFCURVE",
"729 460 OFFCURVE",
"646 509 CURVE SMOOTH",
"604 534 OFFCURVE",
"547 562 OFFCURVE",
"474 595 CURVE SMOOTH",
"347 652 OFFCURVE",
"246 711 OFFCURVE",
"174 818 CURVE SMOOTH",
"137 871 OFFCURVE",
"119 935 OFFCURVE",
"119 1008 CURVE SMOOTH",
"119 1141 OFFCURVE",
"193 1250 OFFCURVE",
"326 1310 CURVE SMOOTH",
"392 1339 OFFCURVE",
"469 1354 OFFCURVE",
"557 1354 CURVE SMOOTH",
"665 1354 OFFCURVE",
"750 1334 OFFCURVE",
"849 1306 CURVE SMOOTH",
"875 1298 OFFCURVE",
"896 1293 OFFCURVE",
"912 1290 CURVE",
"900 988 LINE",
"782 988 LINE",
"742 1202 LINE",
"719 1227 OFFCURVE",
"639 1251 OFFCURVE",
"555 1251 CURVE SMOOTH",
"397 1251 OFFCURVE",
"318 1187 OFFCURVE",
"318 1060 CURVE SMOOTH",
"318 971 OFFCURVE",
"370 910 OFFCURVE",
"450 862 CURVE SMOOTH",
"490 837 OFFCURVE",
"549 806 OFFCURVE",
"627 767 CURVE SMOOTH",
"782 691 OFFCURVE",
"874 640 OFFCURVE",
"944 542 CURVE SMOOTH",
"979 493 OFFCURVE",
"996 435 OFFCURVE",
"996 368 CURVE SMOOTH",
"996 239 OFFCURVE",
"924 111 OFFCURVE",
"780 36 CURVE SMOOTH",
"707 -1 OFFCURVE",
"619 -20 OFFCURVE",
"516 -20 CURVE SMOOTH",
"389 -20 OFFCURVE",
"292 5 OFFCURVE",
"180 41 CURVE SMOOTH",
"141 54 OFFCURVE",
"115 61 OFFCURVE",
"103 62 CURVE"
);
},
{
closed = 1;
nodes = (
"337 1771 LINE",
"561 1605 LINE",
"794 1771 LINE",
"868 1720 LINE",
"642 1475 LINE",
"481 1475 LINE",
"257 1718 LINE"
);
}
);
width = 1069;
}
);
note = Scaron;
unicode = 0160;
},
{
glyphname = Scedilla;
layers = (
{
layerId = "2D872161-907C-4693-BC79-717BAF554E8F";
name = Regular;
paths = (
{
closed = 1;
nodes = (
"996 247 OFFCURVE",
"932 126 OFFCURVE",
"804 50 CURVE SMOOTH",
"740 11 OFFCURVE",
"662 -11 OFFCURVE",
"570 -18 CURVE",
"619 -77 OFFCURVE",
"666 -163 OFFCURVE",
"666 -246 CURVE SMOOTH",
"666 -382 OFFCURVE",
"589 -435 OFFCURVE",
"434 -435 CURVE SMOOTH",
"433 -435 LINE SMOOTH",
"392 -435 OFFCURVE",
"337 -426 OFFCURVE",
"306 -411 CURVE",
"307 -276 LINE",
"330 -284 OFFCURVE",
"366 -289 OFFCURVE",
"383 -289 CURVE SMOOTH",
"384 -289 LINE SMOOTH",
"444 -289 OFFCURVE",
"476 -281 OFFCURVE",
"495 -245 CURVE SMOOTH",
"504 -227 OFFCURVE",
"509 -200 OFFCURVE",
"509 -165 CURVE SMOOTH",
"509 -117 OFFCURVE",
"489 -62 OFFCURVE",
"466 -18 CURVE",
"358 -13 OFFCURVE",
"276 10 OFFCURVE",
"179 41 CURVE SMOOTH",
"140 54 OFFCURVE",
"114 61 OFFCURVE",
"103 62 CURVE",
"118 387 LINE",
"240 387 LINE",
"275 162 LINE",
"315 119 OFFCURVE",
"413 85 OFFCURVE",
"517 85 CURVE SMOOTH",
"693 85 OFFCURVE",
"781 167 OFFCURVE",
"781 306 CURVE SMOOTH",
"781 397 OFFCURVE",
"729 460 OFFCURVE",
"646 509 CURVE SMOOTH",
"604 534 OFFCURVE",
"547 562 OFFCURVE",
"474 595 CURVE SMOOTH",
"347 652 OFFCURVE",
"246 711 OFFCURVE",
"174 818 CURVE SMOOTH",
"137 871 OFFCURVE",
"119 935 OFFCURVE",
"119 1008 CURVE SMOOTH",
"119 1141 OFFCURVE",
"193 1250 OFFCURVE",
"326 1310 CURVE SMOOTH",
"392 1339 OFFCURVE",
"469 1354 OFFCURVE",
"557 1354 CURVE SMOOTH",
"665 1354 OFFCURVE",
"750 1334 OFFCURVE",
"849 1306 CURVE SMOOTH",
"875 1298 OFFCURVE",
"896 1293 OFFCURVE",
"912 1290 CURVE",
"900 988 LINE",
"782 988 LINE",
"742 1202 LINE",
"719 1227 OFFCURVE",
"639 1251 OFFCURVE",
"555 1251 CURVE SMOOTH",
"397 1251 OFFCURVE",
"318 1187 OFFCURVE",
"318 1060 CURVE SMOOTH",
"318 971 OFFCURVE",
"370 910 OFFCURVE",
"450 862 CURVE SMOOTH",
"490 837 OFFCURVE",
"549 806 OFFCURVE",
"627 767 CURVE SMOOTH",
"782 691 OFFCURVE",
"874 640 OFFCURVE",
"944 542 CURVE SMOOTH",
"979 493 OFFCURVE",
"996 435 OFFCURVE",
"996 368 CURVE SMOOTH"
);
}
);
width = 1069;
}
);
note = Scedilla;
unicode = 015E;
},
{
glyphname = Scircumflex;
layers = (
{
layerId = "2D872161-907C-4693-BC79-717BAF554E8F";
name = Regular;
paths = (
{
closed = 1;
nodes = (
"118 387 LINE",
"240 387 LINE",
"275 162 LINE",
"315 119 OFFCURVE",
"413 85 OFFCURVE",
"517 85 CURVE SMOOTH",
"693 85 OFFCURVE",
"781 167 OFFCURVE",
"781 306 CURVE SMOOTH",
"781 397 OFFCURVE",
"729 460 OFFCURVE",
"646 509 CURVE SMOOTH",
"604 534 OFFCURVE",
"547 562 OFFCURVE",
"474 595 CURVE SMOOTH",
"347 652 OFFCURVE",
"246 711 OFFCURVE",
"174 818 CURVE SMOOTH",
"137 871 OFFCURVE",
"119 935 OFFCURVE",
"119 1008 CURVE SMOOTH",
"119 1141 OFFCURVE",
"193 1250 OFFCURVE",
"326 1310 CURVE SMOOTH",
"392 1339 OFFCURVE",
"469 1354 OFFCURVE",
"557 1354 CURVE SMOOTH",
"665 1354 OFFCURVE",
"750 1334 OFFCURVE",
"849 1306 CURVE SMOOTH",
"875 1298 OFFCURVE",
"896 1293 OFFCURVE",
"912 1290 CURVE",
"900 988 LINE",
"782 988 LINE",
"742 1202 LINE",
"719 1227 OFFCURVE",
"639 1251 OFFCURVE",
"555 1251 CURVE SMOOTH",
"397 1251 OFFCURVE",
"318 1187 OFFCURVE",
"318 1060 CURVE SMOOTH",
"318 971 OFFCURVE",
"370 910 OFFCURVE",
"450 862 CURVE SMOOTH",
"490 837 OFFCURVE",
"549 806 OFFCURVE",
"627 767 CURVE SMOOTH",
"782 691 OFFCURVE",
"874 640 OFFCURVE",
"944 542 CURVE SMOOTH",
"979 493 OFFCURVE",
"996 435 OFFCURVE",
"996 368 CURVE SMOOTH",
"996 239 OFFCURVE",
"924 111 OFFCURVE",
"780 36 CURVE SMOOTH",
"707 -1 OFFCURVE",
"619 -20 OFFCURVE",
"516 -20 CURVE SMOOTH",
"389 -20 OFFCURVE",
"292 5 OFFCURVE",
"180 41 CURVE SMOOTH",
"141 54 OFFCURVE",
"115 61 OFFCURVE",
"103 62 CURVE"
);
},
{
closed = 1;
nodes = (
"478 1771 LINE",
"639 1771 LINE",
"881 1509 LINE",
"800 1456 LINE",
"559 1633 LINE",
"315 1456 LINE",
"240 1507 LINE"
);
}
);
width = 1069;
}
);
note = Scircumflex;
unicode = 015C;
},
{
glyphname = Scommaaccent;
layers = (
{
layerId = "2D872161-907C-4693-BC79-717BAF554E8F";
name = Regular;
paths = (
{
closed = 1;
nodes = (
"530 -493 LINE",
"461 -458 LINE",
"460 -443 LINE",
"492 -428 OFFCURVE",
"512 -378 OFFCURVE",
"512 -330 CURVE SMOOTH",
"512 -301 OFFCURVE",
"497 -285 OFFCURVE",
"473 -268 CURVE",
"450 -255 OFFCURVE",
"438 -233 OFFCURVE",
"438 -192 CURVE SMOOTH",
"438 -144 OFFCURVE",
"467 -117 OFFCURVE",
"500 -105 CURVE",
"516 -100 OFFCURVE",
"531 -97 OFFCURVE",
"545 -97 CURVE SMOOTH",
"554 -97 LINE SMOOTH",
"630 -97 OFFCURVE",
"677 -150 OFFCURVE",
"677 -239 CURVE SMOOTH",
"677 -326 OFFCURVE",
"632 -405 OFFCURVE",
"584 -453 CURVE SMOOTH",
"560 -478 OFFCURVE",
"543 -491 OFFCURVE",
"533 -493 CURVE"
);
},
{
closed = 1;
nodes = (
"118 387 LINE",
"240 387 LINE",
"275 162 LINE",
"315 119 OFFCURVE",
"413 85 OFFCURVE",
"517 85 CURVE SMOOTH",
"693 85 OFFCURVE",
"781 167 OFFCURVE",
"781 306 CURVE SMOOTH",
"781 397 OFFCURVE",
"729 460 OFFCURVE",
"646 509 CURVE SMOOTH",
"604 534 OFFCURVE",
"547 562 OFFCURVE",
"474 595 CURVE SMOOTH",
"347 652 OFFCURVE",
"246 711 OFFCURVE",
"174 818 CURVE SMOOTH",
"137 871 OFFCURVE",
"119 935 OFFCURVE",
"119 1008 CURVE SMOOTH",
"119 1141 OFFCURVE",
"193 1250 OFFCURVE",
"326 1310 CURVE SMOOTH",
"392 1339 OFFCURVE",
"469 1354 OFFCURVE",
"557 1354 CURVE SMOOTH",
"665 1354 OFFCURVE",
"750 1334 OFFCURVE",
"849 1306 CURVE SMOOTH",
"875 1298 OFFCURVE",
"896 1293 OFFCURVE",
"912 1290 CURVE",
"900 988 LINE",
"782 988 LINE",
"742 1202 LINE",
"719 1227 OFFCURVE",
"639 1251 OFFCURVE",
"555 1251 CURVE SMOOTH",
"397 1251 OFFCURVE",
"318 1187 OFFCURVE",
"318 1060 CURVE SMOOTH",
"318 971 OFFCURVE",
"370 910 OFFCURVE",
"450 862 CURVE SMOOTH",
"490 837 OFFCURVE",
"549 806 OFFCURVE",
"627 767 CURVE SMOOTH",
"782 691 OFFCURVE",
"874 640 OFFCURVE",
"944 542 CURVE SMOOTH",
"979 493 OFFCURVE",
"996 435 OFFCURVE",
"996 368 CURVE SMOOTH",
"996 239 OFFCURVE",
"924 111 OFFCURVE",
"780 36 CURVE SMOOTH",
"707 -1 OFFCURVE",
"619 -20 OFFCURVE",
"516 -20 CURVE SMOOTH",
"389 -20 OFFCURVE",
"292 5 OFFCURVE",
"180 41 CURVE SMOOTH",
"141 54 OFFCURVE",
"115 61 OFFCURVE",
"103 62 CURVE"
);
}
);
width = 1069;
}
);
note = Scommaaccent;
unicode = 0218;
},
{
glyphname = uni1E9E;
layers = (
{
layerId = "2D872161-907C-4693-BC79-717BAF554E8F";
name = Regular;
paths = (
{
closed = 1;
nodes = (
"348 832 LINE SMOOTH",
"348 1008 OFFCURVE",
"412 1138 OFFCURVE",
"516 1203 CURVE SMOOTH",
"567 1236 OFFCURVE",
"625 1252 OFFCURVE",
"688 1252 CURVE SMOOTH",
"815 1252 OFFCURVE",
"892 1215 OFFCURVE",
"936 1167 CURVE",
"698 774 LINE",
"698 727 LINE",
"806 688 OFFCURVE",
"936 615 OFFCURVE",
"1021 511 CURVE SMOOTH",
"1063 459 OFFCURVE",
"1084 403 OFFCURVE",
"1084 344 CURVE SMOOTH",
"1084 157 OFFCURVE",
"1001 82 OFFCURVE",
"888 82 CURVE SMOOTH",
"813 82 OFFCURVE",
"740 107 OFFCURVE",
"715 146 CURVE",
"678 372 LINE",
"562 372 LINE",
"551 54 LINE",
"563 53 OFFCURVE",
"586 46 OFFCURVE",
"620 33 CURVE SMOOTH",
"708 1 OFFCURVE",
"783 -20 OFFCURVE",
"884 -20 CURVE SMOOTH",
"1045 -20 OFFCURVE",
"1172 53 OFFCURVE",
"1239 175 CURVE SMOOTH",
"1272 236 OFFCURVE",
"1289 305 OFFCURVE",
"1289 383 CURVE SMOOTH",
"1289 546 OFFCURVE",
"1197 659 OFFCURVE",
"1089 725 CURVE SMOOTH",
"1035 758 OFFCURVE",
"966 793 OFFCURVE",
"883 832 CURVE",
"1118 1174 LINE",
"1119 1260 LINE",
"1004 1319 OFFCURVE",
"897 1354 OFFCURVE",
"736 1354 CURVE SMOOTH",
"512 1354 OFFCURVE",
"323 1251 OFFCURVE",
"219 1080 CURVE SMOOTH",
"167 995 OFFCURVE",
"141 899 OFFCURVE",
"141 794 CURVE SMOOTH",
"140 117 LINE",
"36 95 LINE",
"36 0 LINE",
"348 0 LINE"
);
}
);
width = 1320;
}
);
note = uni1E9E;
unicode = 1E9E;
},
{
glyphname = uni018F;
layers = (
{
layerId = "2D872161-907C-4693-BC79-717BAF554E8F";
name = Regular;
paths = (
{
closed = 1;
nodes = (
"93 600 OFFCURVE",
"97 662 OFFCURVE",
"105 696 CURVE",
"942 695 LINE",
"942 702 LINE",
"934 933 OFFCURVE",
"861 1102 OFFCURVE",
"752 1187 CURVE SMOOTH",
"697 1229 OFFCURVE",
"637 1250 OFFCURVE",
"571 1250 CURVE SMOOTH",
"430 1250 OFFCURVE",
"353 1208 OFFCURVE",
"297 1143 CURVE",
"261 1014 LINE",
"131 1016 LINE",
"139 1284 LINE",
"172 1285 OFFCURVE",
"201 1291 OFFCURVE",
"260 1307 CURVE SMOOTH",
"376 1336 OFFCURVE",
"464 1353 OFFCURVE",
"604 1353 CURVE SMOOTH",
"823 1353 OFFCURVE",
"993 1238 OFFCURVE",
"1084 1035 CURVE SMOOTH",
"1129 933 OFFCURVE",
"1152 814 OFFCURVE",
"1152 678 CURVE SMOOTH",
"1152 403 OFFCURVE",
"1043 183 OFFCURVE",
"864 67 CURVE SMOOTH",
"775 9 OFFCURVE",
"674 -20 OFFCURVE",
"562 -20 CURVE SMOOTH",
"381 -20 OFFCURVE",
"236 62 OFFCURVE",
"156 222 CURVE SMOOTH",
"116 301 OFFCURVE",
"95 397 OFFCURVE",
"93 510 CURVE"
);
},
{
closed = 1;
nodes = (
"310 586 LINE",
"306 548 OFFCURVE",
"304 516 OFFCURVE",
"304 491 CURVE SMOOTH",
"304 363 OFFCURVE",
"345 233 OFFCURVE",
"436 154 CURVE SMOOTH",
"481 115 OFFCURVE",
"538 95 OFFCURVE",
"606 95 CURVE SMOOTH",
"810 95 OFFCURVE",
"936 245 OFFCURVE",
"943 586 CURVE"
);
}
);
width = 1209;
}
);
note = uni018F;
unicode = 018F;
},
{
glyphname = T;
layers = (
{
layerId = "2D872161-907C-4693-BC79-717BAF554E8F";
name = Regular;
paths = (
{
closed = 1;
nodes = (
"515 117 LINE",
"515 1235 LINE",
"222 1226 LINE",
"156 858 LINE",
"28 858 LINE",
"59 1339 LINE",
"1173 1339 LINE",
"1201 858 LINE",
"1075 858 LINE",
"1008 1226 LINE",
"727 1235 LINE",
"727 117 LINE",
"976 96 LINE",
"976 0 LINE",
"285 0 LINE",
"285 96 LINE"
);
}
);
width = 1241;
}
);
note = T;
unicode = 0054;
},
{
glyphname = Tbar;
layers = (
{
layerId = "2D872161-907C-4693-BC79-717BAF554E8F";
name = Regular;
paths = (
{
closed = 1;
nodes = (
"532 687 LINE",
"532 1235 LINE",
"238 1226 LINE",
"172 858 LINE",
"45 858 LINE",
"76 1339 LINE",
"1190 1339 LINE",
"1218 858 LINE",
"1092 858 LINE",
"1025 1226 LINE",
"744 1235 LINE",
"744 687 LINE",
"951 687 LINE",
"951 576 LINE",
"744 576 LINE",
"744 117 LINE",
"993 96 LINE",
"993 0 LINE",
"302 0 LINE",
"302 96 LINE",
"532 117 LINE",
"532 576 LINE",
"321 576 LINE",
"321 687 LINE"
);
}
);
width = 1274;
}
);
note = Tbar;
unicode = 0166;
},
{
glyphname = Tcaron;
layers = (
{
layerId = "2D872161-907C-4693-BC79-717BAF554E8F";
name = Regular;
paths = (
{
closed = 1;
nodes = (
"412 1771 LINE",
"636 1605 LINE",
"869 1771 LINE",
"943 1720 LINE",
"717 1475 LINE",
"556 1475 LINE",
"332 1718 LINE"
);
},
{
closed = 1;
nodes = (
"515 117 LINE",
"515 1235 LINE",
"222 1226 LINE",
"156 858 LINE",
"28 858 LINE",
"59 1339 LINE",
"1173 1339 LINE",
"1201 858 LINE",
"1075 858 LINE",
"1008 1226 LINE",
"727 1235 LINE",
"727 117 LINE",
"976 96 LINE",
"976 0 LINE",
"285 0 LINE",
"285 96 LINE"
);
}
);
width = 1241;
}
);
note = Tcaron;
unicode = 0164;
},
{
glyphname = U;
layers = (
{
layerId = "2D872161-907C-4693-BC79-717BAF554E8F";
name = Regular;
paths = (
{
closed = 1;
nodes = (
"162 1219 LINE",
"35 1242 LINE",
"35 1339 LINE",
"526 1339 LINE",
"526 1242 LINE",
"377 1219 LINE",
"377 546 LINE SMOOTH",
"377 222 OFFCURVE",
"496 91 OFFCURVE",
"707 91 CURVE SMOOTH",
"914 91 OFFCURVE",
"1023 251 OFFCURVE",
"1023 536 CURVE SMOOTH",
"1023 1219 LINE",
"877 1242 LINE",
"877 1339 LINE",
"1299 1339 LINE",
"1299 1242 LINE",
"1169 1219 LINE",
"1169 545 LINE SMOOTH",
"1169 294 OFFCURVE",
"1081 126 OFFCURVE",
"935 46 CURVE SMOOTH",
"862 6 OFFCURVE",
"778 -14 OFFCURVE",
"683 -14 CURVE SMOOTH",
"439 -14 OFFCURVE",
"289 66 OFFCURVE",
"217 236 CURVE SMOOTH",
"180 321 OFFCURVE",
"162 431 OFFCURVE",
"162 566 CURVE SMOOTH"
);
}
);
width = 1327;
}
);
note = U;
unicode = 0055;
},
{
glyphname = Uacute;
layers = (
{
layerId = "2D872161-907C-4693-BC79-717BAF554E8F";
name = Regular;
paths = (
{
closed = 1;
nodes = (
"862 1771 LINE",
"863 1771 LINE",
"997 1659 LINE",
"956 1603 OFFCURVE",
"854 1538 OFFCURVE",
"757 1488 CURVE SMOOTH",
"708 1463 OFFCURVE",
"670 1446 OFFCURVE",
"642 1437 CURVE",
"641 1437 LINE",
"571 1497 LINE"
);
},
{
closed = 1;
nodes = (
"162 1219 LINE",
"35 1242 LINE",
"35 1339 LINE",
"526 1339 LINE",
"526 1242 LINE",
"377 1219 LINE",
"377 546 LINE SMOOTH",
"377 222 OFFCURVE",
"496 91 OFFCURVE",
"707 91 CURVE SMOOTH",
"914 91 OFFCURVE",
"1023 251 OFFCURVE",
"1023 536 CURVE SMOOTH",
"1023 1219 LINE",
"877 1242 LINE",
"877 1339 LINE",
"1299 1339 LINE",
"1299 1242 LINE",
"1169 1219 LINE",
"1169 545 LINE SMOOTH",
"1169 294 OFFCURVE",
"1081 126 OFFCURVE",
"935 46 CURVE SMOOTH",
"862 6 OFFCURVE",
"778 -14 OFFCURVE",
"683 -14 CURVE SMOOTH",
"439 -14 OFFCURVE",
"289 66 OFFCURVE",
"217 236 CURVE SMOOTH",
"180 321 OFFCURVE",
"162 431 OFFCURVE",
"162 566 CURVE SMOOTH"
);
}
);
width = 1327;
}
);
note = Uacute;
unicode = 00DA;
},
{
glyphname = Ubreve;
layers = (
{
layerId = "2D872161-907C-4693-BC79-717BAF554E8F";
name = Regular;
paths = (
{
closed = 1;
nodes = (
"395 1738 OFFCURVE",
"396 1750 OFFCURVE",
"397 1758 CURVE",
"503 1758 LINE",
"503 1749 OFFCURVE",
"504 1741 OFFCURVE",
"506 1734 CURVE",
"517 1665 OFFCURVE",
"572 1595 OFFCURVE",
"700 1595 CURVE SMOOTH",
"828 1595 OFFCURVE",
"880 1664 OFFCURVE",
"889 1735 CURVE SMOOTH",
"890 1742 OFFCURVE",
"890 1750 OFFCURVE",
"890 1758 CURVE",
"995 1758 LINE",
"996 1750 OFFCURVE",
"997 1738 OFFCURVE",
"997 1722 CURVE SMOOTH",
"997 1619 OFFCURVE",
"949 1531 OFFCURVE",
"859 1483 CURVE SMOOTH",
"814 1458 OFFCURVE",
"760 1446 OFFCURVE",
"699 1446 CURVE SMOOTH",
"571 1446 OFFCURVE",
"477 1497 OFFCURVE",
"430 1581 CURVE SMOOTH",
"407 1623 OFFCURVE",
"395 1670 OFFCURVE",
"395 1721 CURVE SMOOTH"
);
},
{
closed = 1;
nodes = (
"162 1219 LINE",
"35 1242 LINE",
"35 1339 LINE",
"526 1339 LINE",
"526 1242 LINE",
"377 1219 LINE",
"377 546 LINE SMOOTH",
"377 222 OFFCURVE",
"496 91 OFFCURVE",
"707 91 CURVE SMOOTH",
"914 91 OFFCURVE",
"1023 251 OFFCURVE",
"1023 536 CURVE SMOOTH",
"1023 1219 LINE",
"877 1242 LINE",
"877 1339 LINE",
"1299 1339 LINE",
"1299 1242 LINE",
"1169 1219 LINE",
"1169 545 LINE SMOOTH",
"1169 294 OFFCURVE",
"1081 126 OFFCURVE",
"935 46 CURVE SMOOTH",
"862 6 OFFCURVE",
"778 -14 OFFCURVE",
"683 -14 CURVE SMOOTH",
"439 -14 OFFCURVE",
"289 66 OFFCURVE",
"217 236 CURVE SMOOTH",
"180 321 OFFCURVE",
"162 431 OFFCURVE",
"162 566 CURVE SMOOTH"
);
}
);
width = 1327;
}
);
note = Ubreve;
unicode = 016C;
},
{
glyphname = Ucircumflex;
layers = (
{
layerId = "2D872161-907C-4693-BC79-717BAF554E8F";
name = Regular;
paths = (
{
closed = 1;
nodes = (
"162 1219 LINE",
"35 1242 LINE",
"35 1339 LINE",
"526 1339 LINE",
"526 1242 LINE",
"377 1219 LINE",
"377 546 LINE SMOOTH",
"377 222 OFFCURVE",
"496 91 OFFCURVE",
"707 91 CURVE SMOOTH",
"914 91 OFFCURVE",
"1023 251 OFFCURVE",
"1023 536 CURVE SMOOTH",
"1023 1219 LINE",
"877 1242 LINE",
"877 1339 LINE",
"1299 1339 LINE",
"1299 1242 LINE",
"1169 1219 LINE",
"1169 545 LINE SMOOTH",
"1169 294 OFFCURVE",
"1081 126 OFFCURVE",
"935 46 CURVE SMOOTH",
"862 6 OFFCURVE",
"778 -14 OFFCURVE",
"683 -14 CURVE SMOOTH",
"439 -14 OFFCURVE",
"289 66 OFFCURVE",
"217 236 CURVE SMOOTH",
"180 321 OFFCURVE",
"162 431 OFFCURVE",
"162 566 CURVE SMOOTH"
);
},
{
closed = 1;
nodes = (
"615 1771 LINE",
"776 1771 LINE",
"1018 1509 LINE",
"937 1456 LINE",
"696 1633 LINE",
"452 1456 LINE",
"377 1507 LINE"
);
}
);
width = 1327;
}
);
note = Ucircumflex;
unicode = 00DB;
},
{
glyphname = Udieresis;
layers = (
{
layerId = "2D872161-907C-4693-BC79-717BAF554E8F";
name = Regular;
paths = (
{
closed = 1;
nodes = (
"355 1684 OFFCURVE",
"401 1745 OFFCURVE",
"484 1745 CURVE SMOOTH",
"485 1745 LINE SMOOTH",
"533 1745 OFFCURVE",
"570 1720 OFFCURVE",
"588 1683 CURVE SMOOTH",
"597 1664 OFFCURVE",
"601 1645 OFFCURVE",
"601 1624 CURVE SMOOTH",
"601 1543 OFFCURVE",
"553 1485 OFFCURVE",
"465 1485 CURVE SMOOTH",
"465 1485 LINE SMOOTH",
"400 1485 OFFCURVE",
"355 1537 OFFCURVE",
"355 1604 CURVE SMOOTH"
);
},
{
closed = 1;
nodes = (
"795 1684 OFFCURVE",
"842 1745 OFFCURVE",
"923 1745 CURVE SMOOTH",
"924 1745 LINE SMOOTH",
"973 1745 OFFCURVE",
"1010 1720 OFFCURVE",
"1028 1683 CURVE SMOOTH",
"1037 1664 OFFCURVE",
"1041 1645 OFFCURVE",
"1041 1624 CURVE SMOOTH",
"1041 1543 OFFCURVE",
"994 1485 OFFCURVE",
"906 1485 CURVE SMOOTH",
"905 1485 LINE SMOOTH",
"840 1485 OFFCURVE",
"795 1537 OFFCURVE",
"795 1604 CURVE SMOOTH"
);
},
{
closed = 1;
nodes = (
"162 1219 LINE",
"35 1242 LINE",
"35 1339 LINE",
"526 1339 LINE",
"526 1242 LINE",
"377 1219 LINE",
"377 546 LINE SMOOTH",
"377 222 OFFCURVE",
"496 91 OFFCURVE",
"707 91 CURVE SMOOTH",
"914 91 OFFCURVE",
"1023 251 OFFCURVE",
"1023 536 CURVE SMOOTH",
"1023 1219 LINE",
"877 1242 LINE",
"877 1339 LINE",
"1299 1339 LINE",
"1299 1242 LINE",
"1169 1219 LINE",
"1169 545 LINE SMOOTH",
"1169 294 OFFCURVE",
"1081 126 OFFCURVE",
"935 46 CURVE SMOOTH",
"862 6 OFFCURVE",
"778 -14 OFFCURVE",
"683 -14 CURVE SMOOTH",
"439 -14 OFFCURVE",
"289 66 OFFCURVE",
"217 236 CURVE SMOOTH",
"180 321 OFFCURVE",
"162 431 OFFCURVE",
"162 566 CURVE SMOOTH"
);
}
);
width = 1327;
}
);
note = Udieresis;
unicode = 00DC;
},
{
glyphname = Ugrave;
layers = (
{
layerId = "2D872161-907C-4693-BC79-717BAF554E8F";
name = Regular;
paths = (
{
closed = 1;
nodes = (
"553 1771 LINE",
"554 1771 LINE",
"846 1497 LINE",
"775 1437 LINE",
"774 1437 LINE",
"717 1456 OFFCURVE",
"604 1512 OFFCURVE",
"515 1573 CURVE SMOOTH",
"470 1604 OFFCURVE",
"439 1632 OFFCURVE",
"420 1659 CURVE"
);
},
{
closed = 1;
nodes = (
"162 1219 LINE",
"35 1242 LINE",
"35 1339 LINE",
"526 1339 LINE",
"526 1242 LINE",
"377 1219 LINE",
"377 546 LINE SMOOTH",
"377 222 OFFCURVE",
"496 91 OFFCURVE",
"707 91 CURVE SMOOTH",
"914 91 OFFCURVE",
"1023 251 OFFCURVE",
"1023 536 CURVE SMOOTH",
"1023 1219 LINE",
"877 1242 LINE",
"877 1339 LINE",
"1299 1339 LINE",
"1299 1242 LINE",
"1169 1219 LINE",
"1169 545 LINE SMOOTH",
"1169 294 OFFCURVE",
"1081 126 OFFCURVE",
"935 46 CURVE SMOOTH",
"862 6 OFFCURVE",
"778 -14 OFFCURVE",
"683 -14 CURVE SMOOTH",
"439 -14 OFFCURVE",
"289 66 OFFCURVE",
"217 236 CURVE SMOOTH",
"180 321 OFFCURVE",
"162 431 OFFCURVE",
"162 566 CURVE SMOOTH"
);
}
);
width = 1327;
}
);
note = Ugrave;
unicode = 00D9;
},
{
glyphname = Uhungarumlaut;
layers = (
{
layerId = "2D872161-907C-4693-BC79-717BAF554E8F";
name = Regular;
paths = (
{
closed = 1;
nodes = (
"162 1219 LINE",
"35 1242 LINE",
"35 1339 LINE",
"526 1339 LINE",
"526 1242 LINE",
"377 1219 LINE",
"377 546 LINE SMOOTH",
"377 222 OFFCURVE",
"496 91 OFFCURVE",
"707 91 CURVE SMOOTH",
"914 91 OFFCURVE",
"1023 251 OFFCURVE",
"1023 536 CURVE SMOOTH",
"1023 1219 LINE",
"877 1242 LINE",
"877 1339 LINE",
"1299 1339 LINE",
"1299 1242 LINE",
"1169 1219 LINE",
"1169 545 LINE SMOOTH",
"1169 294 OFFCURVE",
"1081 126 OFFCURVE",
"935 46 CURVE SMOOTH",
"862 6 OFFCURVE",
"778 -14 OFFCURVE",
"683 -14 CURVE SMOOTH",
"439 -14 OFFCURVE",
"289 66 OFFCURVE",
"217 236 CURVE SMOOTH",
"180 321 OFFCURVE",
"162 431 OFFCURVE",
"162 566 CURVE SMOOTH"
);
},
{
closed = 1;
nodes = (
"607 1772 LINE",
"735 1667 LINE",
"659 1580 OFFCURVE",
"541 1493 OFFCURVE",
"446 1441 CURVE",
"362 1513 LINE"
);
},
{
closed = 1;
nodes = (
"1066 1771 LINE",
"1184 1665 LINE",
"1117 1586 OFFCURVE",
"988 1492 OFFCURVE",
"891 1441 CURVE",
"808 1513 LINE"
);
}
);
width = 1327;
}
);
note = Uhungarumlaut;
unicode = 0170;
},
{
glyphname = Umacron;
layers = (
{
layerId = "2D872161-907C-4693-BC79-717BAF554E8F";
name = Regular;
paths = (
{
closed = 1;
nodes = (
"952 1676 LINE",
"952 1536 LINE",
"450 1536 LINE",
"450 1676 LINE"
);
},
{
closed = 1;
nodes = (
"162 1219 LINE",
"35 1242 LINE",
"35 1339 LINE",
"526 1339 LINE",
"526 1242 LINE",
"377 1219 LINE",
"377 546 LINE SMOOTH",
"377 222 OFFCURVE",
"496 91 OFFCURVE",
"707 91 CURVE SMOOTH",
"914 91 OFFCURVE",
"1023 251 OFFCURVE",
"1023 536 CURVE SMOOTH",
"1023 1219 LINE",
"877 1242 LINE",
"877 1339 LINE",
"1299 1339 LINE",
"1299 1242 LINE",
"1169 1219 LINE",
"1169 545 LINE SMOOTH",
"1169 294 OFFCURVE",
"1081 126 OFFCURVE",
"935 46 CURVE SMOOTH",
"862 6 OFFCURVE",
"778 -14 OFFCURVE",
"683 -14 CURVE SMOOTH",
"439 -14 OFFCURVE",
"289 66 OFFCURVE",
"217 236 CURVE SMOOTH",
"180 321 OFFCURVE",
"162 431 OFFCURVE",
"162 566 CURVE SMOOTH"
);
}
);
width = 1327;
}
);
note = Umacron;
unicode = 016A;
},
{
glyphname = Uogonek;
layers = (
{
layerId = "2D872161-907C-4693-BC79-717BAF554E8F";
name = Regular;
paths = (
{
closed = 1;
nodes = (
"162 1219 LINE",
"35 1242 LINE",
"35 1339 LINE",
"526 1339 LINE",
"526 1242 LINE",
"377 1219 LINE",
"377 546 LINE SMOOTH",
"377 222 OFFCURVE",
"496 91 OFFCURVE",
"707 91 CURVE SMOOTH",
"914 91 OFFCURVE",
"1023 251 OFFCURVE",
"1023 536 CURVE SMOOTH",
"1023 1219 LINE",
"877 1242 LINE",
"877 1339 LINE",
"1299 1339 LINE",
"1299 1242 LINE",
"1169 1219 LINE",
"1169 545 LINE SMOOTH",
"1169 256 OFFCURVE",
"1052 78 OFFCURVE",
"861 13 CURVE",
"750 -54 OFFCURVE",
"672 -143 OFFCURVE",
"672 -211 CURVE SMOOTH",
"672 -284 OFFCURVE",
"725 -321 OFFCURVE",
"802 -321 CURVE SMOOTH",
"840 -321 OFFCURVE",
"881 -311 OFFCURVE",
"926 -292 CURVE",
"926 -388 LINE",
"877 -425 OFFCURVE",
"793 -450 OFFCURVE",
"717 -450 CURVE SMOOTH",
"588 -450 OFFCURVE",
"489 -397 OFFCURVE",
"489 -277 CURVE SMOOTH",
"489 -216 OFFCURVE",
"533 -145 OFFCURVE",
"599 -86 CURVE SMOOTH",
"632 -57 OFFCURVE",
"667 -32 OFFCURVE",
"706 -13 CURVE",
"701 -14 OFFCURVE",
"693 -14 OFFCURVE",
"683 -14 CURVE SMOOTH",
"439 -14 OFFCURVE",
"289 66 OFFCURVE",
"217 236 CURVE SMOOTH",
"180 321 OFFCURVE",
"162 431 OFFCURVE",
"162 566 CURVE SMOOTH"
);
}
);
width = 1327;
}
);
note = Uogonek;
unicode = 0172;
},
{
glyphname = Uring;
layers = (
{
layerId = "2D872161-907C-4693-BC79-717BAF554E8F";
name = Regular;
paths = (
{
closed = 1;
nodes = (
"162 1219 LINE",
"35 1242 LINE",
"35 1339 LINE",
"526 1339 LINE",
"526 1242 LINE",
"377 1219 LINE",
"377 546 LINE SMOOTH",
"377 222 OFFCURVE",
"496 91 OFFCURVE",
"707 91 CURVE SMOOTH",
"914 91 OFFCURVE",
"1023 251 OFFCURVE",
"1023 536 CURVE SMOOTH",
"1023 1219 LINE",
"877 1242 LINE",
"877 1339 LINE",
"1299 1339 LINE",
"1299 1242 LINE",
"1169 1219 LINE",
"1169 545 LINE SMOOTH",
"1169 294 OFFCURVE",
"1081 126 OFFCURVE",
"935 46 CURVE SMOOTH",
"862 6 OFFCURVE",
"778 -14 OFFCURVE",
"683 -14 CURVE SMOOTH",
"439 -14 OFFCURVE",
"289 66 OFFCURVE",
"217 236 CURVE SMOOTH",
"180 321 OFFCURVE",
"162 431 OFFCURVE",
"162 566 CURVE SMOOTH"
);
},
{
closed = 1;
nodes = (
"405 1729 OFFCURVE",
"467 1799 OFFCURVE",
"559 1834 CURVE SMOOTH",
"605 1851 OFFCURVE",
"655 1860 OFFCURVE",
"708 1860 CURVE SMOOTH",
"709 1860 LINE SMOOTH",
"830 1860 OFFCURVE",
"918 1820 OFFCURVE",
"960 1753 CURVE SMOOTH",
"981 1719 OFFCURVE",
"991 1680 OFFCURVE",
"991 1636 CURVE SMOOTH",
"991 1543 OFFCURVE",
"935 1474 OFFCURVE",
"845 1439 CURVE SMOOTH",
"800 1421 OFFCURVE",
"750 1412 OFFCURVE",
"697 1412 CURVE SMOOTH",
"696 1412 LINE SMOOTH",
"567 1412 OFFCURVE",
"479 1453 OFFCURVE",
"437 1521 CURVE SMOOTH",
"416 1554 OFFCURVE",
"405 1592 OFFCURVE",
"405 1634 CURVE SMOOTH"
);
},
{
closed = 1;
nodes = (
"701 1500 LINE SMOOTH",
"806 1500 OFFCURVE",
"851 1544 OFFCURVE",
"851 1628 CURVE SMOOTH",
"851 1713 OFFCURVE",
"803 1772 OFFCURVE",
"702 1772 CURVE SMOOTH",
"701 1772 LINE SMOOTH",
"598 1772 OFFCURVE",
"547 1728 OFFCURVE",
"547 1639 CURVE SMOOTH",
"547 1560 OFFCURVE",
"597 1500 OFFCURVE",
"700 1500 CURVE SMOOTH"
);
}
);
width = 1327;
}
);
note = Uring;
unicode = 016E;
},
{
glyphname = Utilde;
layers = (
{
layerId = "2D872161-907C-4693-BC79-717BAF554E8F";
name = Regular;
paths = (
{
closed = 1;
nodes = (
"479 1629 OFFCURVE",
"442 1583 OFFCURVE",
"423 1552 CURVE",
"413 1537 OFFCURVE",
"407 1527 OFFCURVE",
"405 1524 CURVE",
"320 1580 LINE",
"337 1636 OFFCURVE",
"385 1699 OFFCURVE",
"456 1738 CURVE SMOOTH",
"491 1757 OFFCURVE",
"530 1767 OFFCURVE",
"573 1767 CURVE SMOOTH",
"622 1767 OFFCURVE",
"663 1748 OFFCURVE",
"693 1727 CURVE SMOOTH",
"708 1716 OFFCURVE",
"725 1702 OFFCURVE",
"745 1683 CURVE SMOOTH",
"793 1640 OFFCURVE",
"819 1621 OFFCURVE",
"860 1621 CURVE SMOOTH",
"921 1621 OFFCURVE",
"955 1664 OFFCURVE",
"972 1696 CURVE SMOOTH",
"981 1712 OFFCURVE",
"986 1722 OFFCURVE",
"989 1727 CURVE",
"1075 1670 LINE",
"1035 1562 OFFCURVE",
"956 1482 OFFCURVE",
"841 1482 CURVE SMOOTH",
"772 1482 OFFCURVE",
"729 1511 OFFCURVE",
"669 1564 CURVE SMOOTH",
"616 1608 OFFCURVE",
"586 1629 OFFCURVE",
"542 1629 CURVE SMOOTH"
);
},
{
closed = 1;
nodes = (
"162 1219 LINE",
"35 1242 LINE",
"35 1339 LINE",
"526 1339 LINE",
"526 1242 LINE",
"377 1219 LINE",
"377 546 LINE SMOOTH",
"377 222 OFFCURVE",
"496 91 OFFCURVE",
"707 91 CURVE SMOOTH",
"914 91 OFFCURVE",
"1023 251 OFFCURVE",
"1023 536 CURVE SMOOTH",
"1023 1219 LINE",
"877 1242 LINE",
"877 1339 LINE",
"1299 1339 LINE",
"1299 1242 LINE",
"1169 1219 LINE",
"1169 545 LINE SMOOTH",
"1169 294 OFFCURVE",
"1081 126 OFFCURVE",
"935 46 CURVE SMOOTH",
"862 6 OFFCURVE",
"778 -14 OFFCURVE",
"683 -14 CURVE SMOOTH",
"439 -14 OFFCURVE",
"289 66 OFFCURVE",
"217 236 CURVE SMOOTH",
"180 321 OFFCURVE",
"162 431 OFFCURVE",
"162 566 CURVE SMOOTH"
);
}
);
width = 1327;
}
);
note = Utilde;
unicode = 0168;
},
{
glyphname = V;
layers = (
{
layerId = "2D872161-907C-4693-BC79-717BAF554E8F";
name = Regular;
paths = (
{
closed = 1;
nodes = (
"-30 1242 LINE",
"-30 1339 LINE",
"464 1339 LINE",
"464 1242 LINE",
"302 1220 LINE",
"591 381 LINE",
"651 176 LINE",
"703 384 LINE",
"970 1219 LINE",
"832 1242 LINE",
"832 1339 LINE",
"1239 1339 LINE",
"1239 1242 LINE",
"1123 1219 LINE",
"699 -13 LINE",
"533 -13 LINE",
"82 1219 LINE"
);
}
);
width = 1202;
}
);
note = V;
unicode = 0056;
},
{
glyphname = W;
layers = (
{
layerId = "2D872161-907C-4693-BC79-717BAF554E8F";
name = Regular;
paths = (
{
closed = 1;
nodes = (
"-39 1242 LINE",
"-39 1339 LINE",
"453 1339 LINE",
"453 1242 LINE",
"292 1218 LINE",
"538 385 LINE",
"583 147 LINE",
"637 385 LINE",
"839 1064 LINE",
"789 1219 LINE",
"665 1242 LINE",
"665 1339 LINE",
"1174 1339 LINE",
"1174 1242 LINE",
"1005 1219 LINE",
"1246 385 LINE",
"1300 127 LINE",
"1346 385 LINE",
"1576 1218 LINE",
"1398 1242 LINE",
"1398 1339 LINE",
"1837 1339 LINE",
"1837 1242 LINE",
"1720 1218 LINE",
"1356 -9 LINE",
"1166 -9 LINE",
"900 868 LINE",
"641 -9 LINE",
"459 -9 LINE",
"79 1218 LINE"
);
}
);
width = 1800;
}
);
note = W;
unicode = 0057;
},
{
glyphname = Wacute;
layers = (
{
layerId = "2D872161-907C-4693-BC79-717BAF554E8F";
name = Regular;
paths = (
{
closed = 1;
nodes = (
"1066 1771 LINE",
"1067 1771 LINE",
"1201 1659 LINE",
"1160 1603 OFFCURVE",
"1058 1538 OFFCURVE",
"961 1488 CURVE SMOOTH",
"912 1463 OFFCURVE",
"874 1446 OFFCURVE",
"846 1437 CURVE",
"845 1437 LINE",
"775 1497 LINE"
);
},
{
closed = 1;
nodes = (
"-39 1242 LINE",
"-39 1339 LINE",
"453 1339 LINE",
"453 1242 LINE",
"292 1218 LINE",
"538 385 LINE",
"583 147 LINE",
"637 385 LINE",
"839 1064 LINE",
"789 1219 LINE",
"665 1242 LINE",
"665 1339 LINE",
"1174 1339 LINE",
"1174 1242 LINE",
"1005 1219 LINE",
"1246 385 LINE",
"1300 127 LINE",
"1346 385 LINE",
"1576 1218 LINE",
"1398 1242 LINE",
"1398 1339 LINE",
"1837 1339 LINE",
"1837 1242 LINE",
"1720 1218 LINE",
"1356 -9 LINE",
"1166 -9 LINE",
"900 868 LINE",
"641 -9 LINE",
"459 -9 LINE",
"79 1218 LINE"
);
}
);
width = 1800;
}
);
note = Wacute;
unicode = 1E82;
},
{
glyphname = Wcircumflex;
layers = (
{
layerId = "2D872161-907C-4693-BC79-717BAF554E8F";
name = Regular;
paths = (
{
closed = 1;
nodes = (
"-39 1242 LINE",
"-39 1339 LINE",
"453 1339 LINE",
"453 1242 LINE",
"292 1218 LINE",
"538 385 LINE",
"583 147 LINE",
"637 385 LINE",
"839 1064 LINE",
"789 1219 LINE",
"665 1242 LINE",
"665 1339 LINE",
"1174 1339 LINE",
"1174 1242 LINE",
"1005 1219 LINE",
"1246 385 LINE",
"1300 127 LINE",
"1346 385 LINE",
"1576 1218 LINE",
"1398 1242 LINE",
"1398 1339 LINE",
"1837 1339 LINE",
"1837 1242 LINE",
"1720 1218 LINE",
"1356 -9 LINE",
"1166 -9 LINE",
"900 868 LINE",
"641 -9 LINE",
"459 -9 LINE",
"79 1218 LINE"
);
},
{
closed = 1;
nodes = (
"820 1771 LINE",
"981 1771 LINE",
"1223 1509 LINE",
"1142 1456 LINE",
"901 1633 LINE",
"657 1456 LINE",
"582 1507 LINE"
);
}
);
width = 1800;
}
);
note = Wcircumflex;
unicode = 0174;
},
{
glyphname = Wdieresis;
layers = (
{
layerId = "2D872161-907C-4693-BC79-717BAF554E8F";
name = Regular;
paths = (
{
closed = 1;
nodes = (
"559 1684 OFFCURVE",
"605 1745 OFFCURVE",
"688 1745 CURVE SMOOTH",
"689 1745 LINE SMOOTH",
"737 1745 OFFCURVE",
"774 1720 OFFCURVE",
"792 1683 CURVE SMOOTH",
"801 1664 OFFCURVE",
"805 1645 OFFCURVE",
"805 1624 CURVE SMOOTH",
"805 1543 OFFCURVE",
"757 1485 OFFCURVE",
"669 1485 CURVE SMOOTH",
"669 1485 LINE SMOOTH",
"604 1485 OFFCURVE",
"559 1537 OFFCURVE",
"559 1604 CURVE SMOOTH"
);
},
{
closed = 1;
nodes = (
"999 1684 OFFCURVE",
"1046 1745 OFFCURVE",
"1127 1745 CURVE SMOOTH",
"1128 1745 LINE SMOOTH",
"1177 1745 OFFCURVE",
"1214 1720 OFFCURVE",
"1232 1683 CURVE SMOOTH",
"1241 1664 OFFCURVE",
"1245 1645 OFFCURVE",
"1245 1624 CURVE SMOOTH",
"1245 1543 OFFCURVE",
"1198 1485 OFFCURVE",
"1110 1485 CURVE SMOOTH",
"1109 1485 LINE SMOOTH",
"1044 1485 OFFCURVE",
"999 1537 OFFCURVE",
"999 1604 CURVE SMOOTH"
);
},
{
closed = 1;
nodes = (
"-39 1242 LINE",
"-39 1339 LINE",
"453 1339 LINE",
"453 1242 LINE",
"292 1218 LINE",
"538 385 LINE",
"583 147 LINE",
"637 385 LINE",
"839 1064 LINE",
"789 1219 LINE",
"665 1242 LINE",
"665 1339 LINE",
"1174 1339 LINE",
"1174 1242 LINE",
"1005 1219 LINE",
"1246 385 LINE",
"1300 127 LINE",
"1346 385 LINE",
"1576 1218 LINE",
"1398 1242 LINE",
"1398 1339 LINE",
"1837 1339 LINE",
"1837 1242 LINE",
"1720 1218 LINE",
"1356 -9 LINE",
"1166 -9 LINE",
"900 868 LINE",
"641 -9 LINE",
"459 -9 LINE",
"79 1218 LINE"
);
}
);
width = 1800;
}
);
note = Wdieresis;
unicode = 1E84;
},
{
glyphname = Wgrave;
layers = (
{
layerId = "2D872161-907C-4693-BC79-717BAF554E8F";
name = Regular;
paths = (
{
closed = 1;
nodes = (
"755 1771 LINE",
"756 1771 LINE",
"1048 1497 LINE",
"977 1437 LINE",
"976 1437 LINE",
"919 1456 OFFCURVE",
"806 1512 OFFCURVE",
"717 1573 CURVE SMOOTH",
"672 1604 OFFCURVE",
"641 1632 OFFCURVE",
"622 1659 CURVE"
);
},
{
closed = 1;
nodes = (
"-39 1242 LINE",
"-39 1339 LINE",
"453 1339 LINE",
"453 1242 LINE",
"292 1218 LINE",
"538 385 LINE",
"583 147 LINE",
"637 385 LINE",
"839 1064 LINE",
"789 1219 LINE",
"665 1242 LINE",
"665 1339 LINE",
"1174 1339 LINE",
"1174 1242 LINE",
"1005 1219 LINE",
"1246 385 LINE",
"1300 127 LINE",
"1346 385 LINE",
"1576 1218 LINE",
"1398 1242 LINE",
"1398 1339 LINE",
"1837 1339 LINE",
"1837 1242 LINE",
"1720 1218 LINE",
"1356 -9 LINE",
"1166 -9 LINE",
"900 868 LINE",
"641 -9 LINE",
"459 -9 LINE",
"79 1218 LINE"
);
}
);
width = 1800;
}
);
note = Wgrave;
unicode = 1E80;
},
{
glyphname = X;
layers = (
{
layerId = "2D872161-907C-4693-BC79-717BAF554E8F";
name = Regular;
paths = (
{
closed = 1;
nodes = (
"165 116 LINE",
"538 669 LINE",
"169 1219 LINE",
"37 1242 LINE",
"37 1339 LINE",
"576 1339 LINE",
"576 1242 LINE",
"417 1219 LINE",
"689 779 LINE",
"958 1219 LINE",
"806 1242 LINE",
"806 1339 LINE",
"1253 1339 LINE",
"1253 1242 LINE",
"1112 1219 LINE",
"752 704 LINE",
"1150 116 LINE",
"1287 96 LINE",
"1287 0 LINE",
"748 0 LINE",
"748 96 LINE",
"901 117 LINE",
"603 592 LINE",
"324 116 LINE",
"496 96 LINE",
"496 0 LINE",
"11 0 LINE",
"11 96 LINE"
);
}
);
width = 1286;
}
);
note = X;
unicode = 0058;
},
{
glyphname = Y;
layers = (
{
layerId = "2D872161-907C-4693-BC79-717BAF554E8F";
name = Regular;
paths = (
{
closed = 1;
nodes = (
"486 117 LINE",
"486 521 LINE",
"88 1218 LINE",
"-25 1242 LINE",
"-25 1339 LINE",
"458 1339 LINE",
"458 1242 LINE",
"321 1219 LINE",
"569 741 LINE",
"620 613 LINE",
"677 739 LINE",
"913 1220 LINE",
"770 1242 LINE",
"770 1339 LINE",
"1186 1339 LINE",
"1186 1242 LINE",
"1069 1220 LINE",
"700 525 LINE",
"700 116 LINE",
"897 96 LINE",
"897 0 LINE",
"293 0 LINE",
"293 96 LINE"
);
}
);
width = 1158;
}
);
note = Y;
unicode = 0059;
},
{
glyphname = Yacute;
layers = (
{
layerId = "2D872161-907C-4693-BC79-717BAF554E8F";
name = Regular;
paths = (
{
closed = 1;
nodes = (
"486 117 LINE",
"486 521 LINE",
"88 1218 LINE",
"-25 1242 LINE",
"-25 1339 LINE",
"458 1339 LINE",
"458 1242 LINE",
"321 1219 LINE",
"569 741 LINE",
"620 613 LINE",
"677 739 LINE",
"913 1220 LINE",
"770 1242 LINE",
"770 1339 LINE",
"1186 1339 LINE",
"1186 1242 LINE",
"1069 1220 LINE",
"700 525 LINE",
"700 116 LINE",
"897 96 LINE",
"897 0 LINE",
"293 0 LINE",
"293 96 LINE"
);
},
{
closed = 1;
nodes = (
"767 1771 LINE",
"768 1771 LINE",
"902 1659 LINE",
"861 1603 OFFCURVE",
"759 1538 OFFCURVE",
"662 1488 CURVE SMOOTH",
"613 1463 OFFCURVE",
"575 1446 OFFCURVE",
"547 1437 CURVE",
"546 1437 LINE",
"476 1497 LINE"
);
}
);
width = 1158;
}
);
note = Yacute;
unicode = 00DD;
},
{
glyphname = Ycircumflex;
layers = (
{
layerId = "2D872161-907C-4693-BC79-717BAF554E8F";
name = Regular;
paths = (
{
closed = 1;
nodes = (
"486 117 LINE",
"486 521 LINE",
"88 1218 LINE",
"-25 1242 LINE",
"-25 1339 LINE",
"458 1339 LINE",
"458 1242 LINE",
"321 1219 LINE",
"569 741 LINE",
"620 613 LINE",
"677 739 LINE",
"913 1220 LINE",
"770 1242 LINE",
"770 1339 LINE",
"1186 1339 LINE",
"1186 1242 LINE",
"1069 1220 LINE",
"700 525 LINE",
"700 116 LINE",
"897 96 LINE",
"897 0 LINE",
"293 0 LINE",
"293 96 LINE"
);
},
{
closed = 1;
nodes = (
"521 1771 LINE",
"682 1771 LINE",
"924 1509 LINE",
"843 1456 LINE",
"602 1633 LINE",
"358 1456 LINE",
"283 1507 LINE"
);
}
);
width = 1158;
}
);
note = Ycircumflex;
unicode = 0176;
},
{
glyphname = Ydieresis;
layers = (
{
layerId = "2D872161-907C-4693-BC79-717BAF554E8F";
name = Regular;
paths = (
{
closed = 1;
nodes = (
"486 117 LINE",
"486 521 LINE",
"88 1218 LINE",
"-25 1242 LINE",
"-25 1339 LINE",
"458 1339 LINE",
"458 1242 LINE",
"321 1219 LINE",
"569 741 LINE",
"620 613 LINE",
"677 739 LINE",
"913 1220 LINE",
"770 1242 LINE",
"770 1339 LINE",
"1186 1339 LINE",
"1186 1242 LINE",
"1069 1220 LINE",
"700 525 LINE",
"700 116 LINE",
"897 96 LINE",
"897 0 LINE",
"293 0 LINE",
"293 96 LINE"
);
},
{
closed = 1;
nodes = (
"260 1684 OFFCURVE",
"306 1745 OFFCURVE",
"389 1745 CURVE SMOOTH",
"390 1745 LINE SMOOTH",
"438 1745 OFFCURVE",
"475 1720 OFFCURVE",
"493 1683 CURVE SMOOTH",
"502 1664 OFFCURVE",
"506 1645 OFFCURVE",
"506 1624 CURVE SMOOTH",
"506 1543 OFFCURVE",
"458 1485 OFFCURVE",
"370 1485 CURVE SMOOTH",
"370 1485 LINE SMOOTH",
"305 1485 OFFCURVE",
"260 1537 OFFCURVE",
"260 1604 CURVE SMOOTH"
);
},
{
closed = 1;
nodes = (
"700 1684 OFFCURVE",
"747 1745 OFFCURVE",
"828 1745 CURVE SMOOTH",
"829 1745 LINE SMOOTH",
"878 1745 OFFCURVE",
"915 1720 OFFCURVE",
"933 1683 CURVE SMOOTH",
"942 1664 OFFCURVE",
"946 1645 OFFCURVE",
"946 1624 CURVE SMOOTH",
"946 1543 OFFCURVE",
"899 1485 OFFCURVE",
"811 1485 CURVE SMOOTH",
"810 1485 LINE SMOOTH",
"745 1485 OFFCURVE",
"700 1537 OFFCURVE",
"700 1604 CURVE SMOOTH"
);
}
);
width = 1158;
}
);
note = Ydieresis;
unicode = 0178;
},
{
glyphname = Ygrave;
layers = (
{
layerId = "2D872161-907C-4693-BC79-717BAF554E8F";
name = Regular;
paths = (
{
closed = 1;
nodes = (
"486 117 LINE",
"486 521 LINE",
"88 1218 LINE",
"-25 1242 LINE",
"-25 1339 LINE",
"458 1339 LINE",
"458 1242 LINE",
"321 1219 LINE",
"569 741 LINE",
"620 613 LINE",
"677 739 LINE",
"913 1220 LINE",
"770 1242 LINE",
"770 1339 LINE",
"1186 1339 LINE",
"1186 1242 LINE",
"1069 1220 LINE",
"700 525 LINE",
"700 116 LINE",
"897 96 LINE",
"897 0 LINE",
"293 0 LINE",
"293 96 LINE"
);
},
{
closed = 1;
nodes = (
"456 1771 LINE",
"457 1771 LINE",
"749 1497 LINE",
"678 1437 LINE",
"677 1437 LINE",
"620 1456 OFFCURVE",
"507 1512 OFFCURVE",
"418 1573 CURVE SMOOTH",
"373 1604 OFFCURVE",
"342 1632 OFFCURVE",
"323 1659 CURVE"
);
}
);
width = 1158;
}
);
note = Ygrave;
unicode = 1EF2;
},
{
glyphname = Z;
layers = (
{
layerId = "2D872161-907C-4693-BC79-717BAF554E8F";
name = Regular;
paths = (
{
closed = 1;
nodes = (
"755 1125 LINE",
"854 1244 LINE",
"349 1225 LINE",
"251 992 LINE",
"141 1007 LINE",
"180 1345 LINE",
"1053 1345 LINE",
"1098 1260 LINE",
"412 224 LINE",
"299 103 LINE",
"891 137 LINE",
"991 410 LINE",
"1105 387 LINE",
"1063 0 LINE",
"109 0 LINE",
"57 86 LINE"
);
}
);
width = 1184;
}
);
note = Z;
unicode = 005A;
},
{
glyphname = Zacute;
layers = (
{
layerId = "2D872161-907C-4693-BC79-717BAF554E8F";
name = Regular;
paths = (
{
closed = 1;
nodes = (
"755 1125 LINE",
"854 1244 LINE",
"349 1225 LINE",
"251 992 LINE",
"141 1007 LINE",
"180 1345 LINE",
"1053 1345 LINE",
"1098 1260 LINE",
"412 224 LINE",
"299 103 LINE",
"891 137 LINE",
"991 410 LINE",
"1105 387 LINE",
"1063 0 LINE",
"109 0 LINE",
"57 86 LINE"
);
},
{
closed = 1;
nodes = (
"790 1771 LINE",
"791 1771 LINE",
"925 1659 LINE",
"884 1603 OFFCURVE",
"782 1538 OFFCURVE",
"685 1488 CURVE SMOOTH",
"636 1463 OFFCURVE",
"598 1446 OFFCURVE",
"570 1437 CURVE",
"569 1437 LINE",
"499 1497 LINE"
);
}
);
width = 1184;
}
);
note = Zacute;
unicode = 0179;
},
{
glyphname = Zcaron;
layers = (
{
layerId = "2D872161-907C-4693-BC79-717BAF554E8F";
name = Regular;
paths = (
{
closed = 1;
nodes = (
"402 1771 LINE",
"626 1605 LINE",
"859 1771 LINE",
"933 1720 LINE",
"707 1475 LINE",
"546 1475 LINE",
"322 1718 LINE"
);
},
{
closed = 1;
nodes = (
"755 1125 LINE",
"854 1244 LINE",
"349 1225 LINE",
"251 992 LINE",
"141 1007 LINE",
"180 1345 LINE",
"1053 1345 LINE",
"1098 1260 LINE",
"412 224 LINE",
"299 103 LINE",
"891 137 LINE",
"991 410 LINE",
"1105 387 LINE",
"1063 0 LINE",
"109 0 LINE",
"57 86 LINE"
);
}
);
width = 1184;
}
);
note = Zcaron;
unicode = 017D;
},
{
glyphname = Zdotaccent;
layers = (
{
layerId = "2D872161-907C-4693-BC79-717BAF554E8F";
name = Regular;
paths = (
{
closed = 1;
nodes = (
"500 1688 OFFCURVE",
"549 1748 OFFCURVE",
"630 1748 CURVE SMOOTH",
"631 1748 LINE SMOOTH",
"706 1748 OFFCURVE",
"752 1692 OFFCURVE",
"752 1627 CURVE SMOOTH",
"752 1546 OFFCURVE",
"704 1490 OFFCURVE",
"616 1490 CURVE SMOOTH",
"615 1490 LINE SMOOTH",
"547 1490 OFFCURVE",
"500 1541 OFFCURVE",
"500 1609 CURVE SMOOTH"
);
},
{
closed = 1;
nodes = (
"755 1125 LINE",
"854 1244 LINE",
"349 1225 LINE",
"251 992 LINE",
"141 1007 LINE",
"180 1345 LINE",
"1053 1345 LINE",
"1098 1260 LINE",
"412 224 LINE",
"299 103 LINE",
"891 137 LINE",
"991 410 LINE",
"1105 387 LINE",
"1063 0 LINE",
"109 0 LINE",
"57 86 LINE"
);
}
);
width = 1184;
}
);
note = Zdotaccent;
unicode = 017B;
},
{
glyphname = uni0162;
layers = (
{
layerId = "2D872161-907C-4693-BC79-717BAF554E8F";
name = Regular;
paths = (
{
closed = 1;
nodes = (
"1201 858 LINE",
"1075 858 LINE",
"1008 1226 LINE",
"727 1235 LINE",
"727 117 LINE",
"976 96 LINE",
"976 0 LINE",
"655 0 LINE",
"684 -28 OFFCURVE",
"724 -82 OFFCURVE",
"749 -147 CURVE SMOOTH",
"761 -180 OFFCURVE",
"767 -213 OFFCURVE",
"767 -246 CURVE SMOOTH",
"767 -382 OFFCURVE",
"690 -435 OFFCURVE",
"535 -435 CURVE SMOOTH",
"534 -435 LINE SMOOTH",
"493 -435 OFFCURVE",
"438 -426 OFFCURVE",
"407 -411 CURVE",
"408 -276 LINE",
"431 -284 OFFCURVE",
"467 -289 OFFCURVE",
"484 -289 CURVE SMOOTH",
"485 -289 LINE SMOOTH",
"546 -289 OFFCURVE",
"579 -281 OFFCURVE",
"597 -245 CURVE SMOOTH",
"606 -227 OFFCURVE",
"610 -200 OFFCURVE",
"610 -165 CURVE SMOOTH",
"610 -108 OFFCURVE",
"582 -39 OFFCURVE",
"557 0 CURVE",
"285 0 LINE",
"285 96 LINE",
"515 117 LINE",
"515 1235 LINE",
"222 1226 LINE",
"156 858 LINE",
"28 858 LINE",
"59 1339 LINE",
"1173 1339 LINE"
);
}
);
width = 1241;
}
);
note = uni0162;
unicode = 0162;
},
{
glyphname = uni01C4;
layers = (
{
layerId = "2D872161-907C-4693-BC79-717BAF554E8F";
name = Regular;
paths = (
{
closed = 1;
nodes = (
"1775 1771 LINE",
"1999 1605 LINE",
"2232 1771 LINE",
"2306 1720 LINE",
"2080 1475 LINE",
"1919 1475 LINE",
"1695 1718 LINE"
);
},
{
closed = 1;
nodes = (
"2132 1125 LINE",
"2231 1244 LINE",
"1726 1225 LINE",
"1628 992 LINE",
"1518 1007 LINE",
"1557 1345 LINE",
"2430 1345 LINE",
"2475 1260 LINE",
"1789 224 LINE",
"1676 103 LINE",
"2268 137 LINE",
"2368 410 LINE",
"2482 387 LINE",
"2440 0 LINE",
"1486 0 LINE",
"1434 86 LINE"
);
},
{
closed = 1;
nodes = (
"232 117 LINE",
"232 1219 LINE",
"93 1242 LINE",
"93 1339 LINE",
"328 1339 LINE SMOOTH",
"387 1339 OFFCURVE",
"465 1345 OFFCURVE",
"485 1346 CURVE SMOOTH",
"554 1351 OFFCURVE",
"608 1353 OFFCURVE",
"645 1353 CURVE SMOOTH",
"1094 1353 OFFCURVE",
"1310 1117 OFFCURVE",
"1310 712 CURVE SMOOTH",
"1310 427 OFFCURVE",
"1193 200 OFFCURVE",
"992 78 CURVE SMOOTH",
"891 17 OFFCURVE",
"776 -14 OFFCURVE",
"645 -14 CURVE SMOOTH",
"615 -14 OFFCURVE",
"565 -12 OFFCURVE",
"495 -7 CURVE SMOOTH",
"422 -2 OFFCURVE",
"369 0 OFFCURVE",
"337 0 CURVE SMOOTH",
"84 0 LINE",
"84 96 LINE"
);
},
{
closed = 1;
nodes = (
"438 108 LINE",
"487 96 OFFCURVE",
"538 92 OFFCURVE",
"605 92 CURVE SMOOTH",
"646 92 LINE SMOOTH",
"819 95 OFFCURVE",
"955 184 OFFCURVE",
"1030 357 CURVE SMOOTH",
"1067 444 OFFCURVE",
"1086 549 OFFCURVE",
"1086 674 CURVE SMOOTH",
"1086 1053 OFFCURVE",
"925 1249 OFFCURVE",
"598 1249 CURVE SMOOTH",
"563 1249 OFFCURVE",
"519 1246 OFFCURVE",
"466 1240 CURVE SMOOTH",
"438 1237 LINE"
);
}
);
width = 2561;
}
);
note = uni01C4;
unicode = 01C4;
},
{
glyphname = uni01C5;
layers = (
{
layerId = "2D872161-907C-4693-BC79-717BAF554E8F";
name = Regular;
paths = (
{
closed = 1;
nodes = (
"1657 1583 LINE",
"1907 1335 LINE",
"2161 1584 LINE",
"2234 1531 LINE",
"1985 1181 LINE",
"1826 1181 LINE",
"1578 1530 LINE"
);
},
{
closed = 1;
nodes = (
"2070 893 LINE",
"1660 880 LINE",
"1626 713 LINE",
"1505 713 LINE",
"1505 1001 LINE",
"2265 1001 LINE",
"2302 920 LINE",
"1787 219 LINE",
"1672 106 LINE",
"2126 126 LINE",
"2193 317 LINE",
"2307 304 LINE",
"2281 0 LINE",
"1471 0 LINE",
"1432 83 LINE",
"1954 777 LINE"
);
},
{
closed = 1;
nodes = (
"232 117 LINE",
"232 1219 LINE",
"93 1242 LINE",
"93 1339 LINE",
"328 1339 LINE SMOOTH",
"387 1339 OFFCURVE",
"465 1345 OFFCURVE",
"485 1346 CURVE SMOOTH",
"554 1351 OFFCURVE",
"608 1353 OFFCURVE",
"645 1353 CURVE SMOOTH",
"1094 1353 OFFCURVE",
"1310 1117 OFFCURVE",
"1310 712 CURVE SMOOTH",
"1310 427 OFFCURVE",
"1193 200 OFFCURVE",
"992 78 CURVE SMOOTH",
"891 17 OFFCURVE",
"776 -14 OFFCURVE",
"645 -14 CURVE SMOOTH",
"615 -14 OFFCURVE",
"565 -12 OFFCURVE",
"495 -7 CURVE SMOOTH",
"422 -2 OFFCURVE",
"369 0 OFFCURVE",
"337 0 CURVE SMOOTH",
"84 0 LINE",
"84 96 LINE"
);
},
{
closed = 1;
nodes = (
"438 108 LINE",
"487 96 OFFCURVE",
"538 92 OFFCURVE",
"605 92 CURVE SMOOTH",
"646 92 LINE SMOOTH",
"819 95 OFFCURVE",
"955 184 OFFCURVE",
"1030 357 CURVE SMOOTH",
"1067 444 OFFCURVE",
"1086 549 OFFCURVE",
"1086 674 CURVE SMOOTH",
"1086 1053 OFFCURVE",
"925 1249 OFFCURVE",
"598 1249 CURVE SMOOTH",
"563 1249 OFFCURVE",
"519 1246 OFFCURVE",
"466 1240 CURVE SMOOTH",
"438 1237 LINE"
);
}
);
width = 2381;
}
);
note = uni01C5;
unicode = 01C5;
},
{
glyphname = uni01C7;
layers = (
{
layerId = "2D872161-907C-4693-BC79-717BAF554E8F";
name = Regular;
paths = (
{
closed = 1;
nodes = (
"234 117 LINE",
"234 1220 LINE",
"89 1242 LINE",
"89 1339 LINE",
"612 1339 LINE",
"612 1242 LINE",
"443 1219 LINE",
"443 116 LINE",
"887 134 LINE",
"994 428 LINE",
"1112 407 LINE",
"1052 0 LINE",
"86 0 LINE",
"86 96 LINE"
);
},
{
closed = 1;
nodes = (
"1134 -243 LINE",
"1193 -227 OFFCURVE",
"1256 -182 OFFCURVE",
"1306 -114 CURVE SMOOTH",
"1356 -47 OFFCURVE",
"1380 38 OFFCURVE",
"1391 157 CURVE SMOOTH",
"1396 216 OFFCURVE",
"1399 306 OFFCURVE",
"1399 427 CURVE SMOOTH",
"1399 1219 LINE",
"1234 1242 LINE",
"1234 1339 LINE",
"1764 1339 LINE",
"1764 1242 LINE",
"1604 1219 LINE",
"1604 497 LINE",
"1604 396 LINE SMOOTH",
"1604 221 OFFCURVE",
"1600 120 OFFCURVE",
"1583 40 CURVE SMOOTH",
"1554 -96 OFFCURVE",
"1466 -198 OFFCURVE",
"1356 -259 CURVE SMOOTH",
"1301 -290 OFFCURVE",
"1244 -311 OFFCURVE",
"1185 -324 CURVE"
);
}
);
width = 1831;
}
);
note = uni01C7;
unicode = 01C7;
},
{
glyphname = uni01C8;
layers = (
{
layerId = "2D872161-907C-4693-BC79-717BAF554E8F";
name = Regular;
paths = (
{
closed = 1;
nodes = (
"234 117 LINE",
"234 1220 LINE",
"89 1242 LINE",
"89 1339 LINE",
"612 1339 LINE",
"612 1242 LINE",
"443 1219 LINE",
"443 116 LINE",
"887 134 LINE",
"994 428 LINE",
"1112 407 LINE",
"1052 0 LINE",
"86 0 LINE",
"86 96 LINE"
);
},
{
closed = 1;
nodes = (
"1224 878 LINE",
"1226 988 LINE",
"1505 1024 LINE",
"1509 1024 LINE",
"1553 990 LINE",
"1553 16 LINE SMOOTH",
"1553 -175 OFFCURVE",
"1492 -308 OFFCURVE",
"1399 -377 CURVE SMOOTH",
"1352 -412 OFFCURVE",
"1301 -432 OFFCURVE",
"1244 -438 CURVE",
"1241 -439 OFFCURVE",
"1235 -439 OFFCURVE",
"1224 -439 CURVE SMOOTH",
"1192 -439 OFFCURVE",
"1150 -436 OFFCURVE",
"1141 -431 CURVE",
"1131 -336 LINE",
"1148 -339 OFFCURVE",
"1192 -330 OFFCURVE",
"1227 -318 CURVE SMOOTH",
"1322 -282 OFFCURVE",
"1354 -152 OFFCURVE",
"1354 53 CURVE",
"1353 842 LINE"
);
},
{
closed = 1;
nodes = (
"1315 1390 OFFCURVE",
"1364 1453 OFFCURVE",
"1447 1453 CURVE SMOOTH",
"1448 1453 LINE SMOOTH",
"1497 1453 OFFCURVE",
"1535 1429 OFFCURVE",
"1555 1391 CURVE",
"1564 1372 OFFCURVE",
"1569 1352 OFFCURVE",
"1569 1331 CURVE SMOOTH",
"1569 1248 OFFCURVE",
"1521 1190 OFFCURVE",
"1432 1190 CURVE SMOOTH",
"1431 1190 LINE SMOOTH",
"1363 1190 OFFCURVE",
"1315 1241 OFFCURVE",
"1315 1310 CURVE SMOOTH"
);
}
);
width = 1722;
}
);
note = uni01C8;
unicode = 01C8;
},
{
glyphname = uni01CA;
layers = (
{
layerId = "2D872161-907C-4693-BC79-717BAF554E8F";
name = Regular;
paths = (
{
closed = 1;
nodes = (
"231 116 LINE",
"231 1219 LINE",
"86 1242 LINE",
"86 1339 LINE",
"434 1339 LINE",
"1026 474 LINE",
"1119 300 LINE",
"1119 1220 LINE",
"962 1242 LINE",
"962 1339 LINE",
"1398 1339 LINE",
"1398 1242 LINE",
"1252 1219 LINE",
"1252 0 LINE",
"1108 0 LINE",
"502 883 LINE",
"364 1122 LINE",
"364 117 LINE",
"532 96 LINE",
"532 0 LINE",
"86 0 LINE",
"86 96 LINE"
);
},
{
closed = 1;
nodes = (
"1430 -243 LINE",
"1489 -227 OFFCURVE",
"1552 -182 OFFCURVE",
"1602 -114 CURVE SMOOTH",
"1652 -47 OFFCURVE",
"1676 38 OFFCURVE",
"1687 157 CURVE SMOOTH",
"1692 216 OFFCURVE",
"1695 306 OFFCURVE",
"1695 427 CURVE SMOOTH",
"1695 1219 LINE",
"1530 1242 LINE",
"1530 1339 LINE",
"2060 1339 LINE",
"2060 1242 LINE",
"1900 1219 LINE",
"1900 497 LINE",
"1900 396 LINE SMOOTH",
"1900 221 OFFCURVE",
"1896 120 OFFCURVE",
"1879 40 CURVE SMOOTH",
"1850 -96 OFFCURVE",
"1762 -198 OFFCURVE",
"1652 -259 CURVE SMOOTH",
"1597 -290 OFFCURVE",
"1540 -311 OFFCURVE",
"1481 -324 CURVE"
);
}
);
width = 2127;
}
);
note = uni01CA;
unicode = 01CA;
},
{
glyphname = uni01CB;
layers = (
{
layerId = "2D872161-907C-4693-BC79-717BAF554E8F";
name = Regular;
paths = (
{
closed = 1;
nodes = (
"231 116 LINE",
"231 1219 LINE",
"86 1242 LINE",
"86 1339 LINE",
"434 1339 LINE",
"1026 474 LINE",
"1119 300 LINE",
"1119 1220 LINE",
"962 1242 LINE",
"962 1339 LINE",
"1398 1339 LINE",
"1398 1242 LINE",
"1252 1219 LINE",
"1252 0 LINE",
"1108 0 LINE",
"502 883 LINE",
"364 1122 LINE",
"364 117 LINE",
"532 96 LINE",
"532 0 LINE",
"86 0 LINE",
"86 96 LINE"
);
},
{
closed = 1;
nodes = (
"1520 878 LINE",
"1522 988 LINE",
"1801 1024 LINE",
"1805 1024 LINE",
"1849 990 LINE",
"1849 16 LINE SMOOTH",
"1849 -175 OFFCURVE",
"1788 -308 OFFCURVE",
"1695 -377 CURVE SMOOTH",
"1648 -412 OFFCURVE",
"1597 -432 OFFCURVE",
"1540 -438 CURVE",
"1537 -439 OFFCURVE",
"1531 -439 OFFCURVE",
"1520 -439 CURVE SMOOTH",
"1488 -439 OFFCURVE",
"1446 -436 OFFCURVE",
"1437 -431 CURVE",
"1427 -336 LINE",
"1444 -339 OFFCURVE",
"1488 -330 OFFCURVE",
"1523 -318 CURVE SMOOTH",
"1618 -282 OFFCURVE",
"1650 -152 OFFCURVE",
"1650 53 CURVE",
"1649 842 LINE"
);
},
{
closed = 1;
nodes = (
"1612 1390 OFFCURVE",
"1661 1453 OFFCURVE",
"1744 1453 CURVE SMOOTH",
"1745 1453 LINE SMOOTH",
"1794 1453 OFFCURVE",
"1832 1429 OFFCURVE",
"1852 1391 CURVE",
"1861 1372 OFFCURVE",
"1866 1352 OFFCURVE",
"1866 1331 CURVE SMOOTH",
"1866 1248 OFFCURVE",
"1818 1190 OFFCURVE",
"1729 1190 CURVE SMOOTH",
"1728 1190 LINE SMOOTH",
"1660 1190 OFFCURVE",
"1612 1241 OFFCURVE",
"1612 1310 CURVE SMOOTH"
);
}
);
width = 2018;
}
);
note = uni01CB;
unicode = 01CB;
},
{
glyphname = uni01CD;
layers = (
{
layerId = "2D872161-907C-4693-BC79-717BAF554E8F";
name = Regular;
paths = (
{
closed = 1;
nodes = (
"82 117 LINE",
"516 1350 LINE",
"725 1350 LINE",
"1162 117 LINE",
"1274 96 LINE",
"1274 0 LINE",
"791 0 LINE",
"791 96 LINE",
"935 117 LINE",
"851 374 LINE",
"334 374 LINE",
"253 117 LINE",
"404 96 LINE",
"404 0 LINE",
"-29 0 LINE",
"-30 96 LINE"
);
},
{
closed = 1;
nodes = (
"815 486 LINE",
"627 1064 LINE",
"588 1212 LINE",
"549 1062 LINE",
"369 486 LINE"
);
},
{
closed = 1;
nodes = (
"545 1771 LINE",
"706 1771 LINE",
"948 1509 LINE",
"867 1456 LINE",
"626 1633 LINE",
"382 1456 LINE",
"307 1507 LINE"
);
}
);
width = 1246;
}
);
note = uni01CD;
unicode = 01CD;
},
{
glyphname = uni01CF;
layers = (
{
layerId = "2D872161-907C-4693-BC79-717BAF554E8F";
name = Regular;
paths = (
{
closed = 1;
nodes = (
"260 117 LINE",
"260 1219 LINE",
"99 1242 LINE",
"99 1339 LINE",
"628 1339 LINE",
"628 1242 LINE",
"467 1220 LINE",
"467 117 LINE",
"631 93 LINE",
"631 0 LINE",
"99 0 LINE",
"99 96 LINE"
);
},
{
closed = 1;
nodes = (
"143 1771 LINE",
"367 1605 LINE",
"600 1771 LINE",
"674 1720 LINE",
"448 1475 LINE",
"287 1475 LINE",
"63 1718 LINE"
);
}
);
width = 727;
}
);
note = uni01CF;
unicode = 01CF;
},
{
glyphname = uni01D1;
layers = (
{
layerId = "2D872161-907C-4693-BC79-717BAF554E8F";
name = Regular;
paths = (
{
closed = 1;
nodes = (
"58 937 OFFCURVE",
"170 1155 OFFCURVE",
"355 1269 CURVE SMOOTH",
"448 1326 OFFCURVE",
"552 1354 OFFCURVE",
"667 1354 CURVE SMOOTH",
"918 1354 OFFCURVE",
"1093 1240 OFFCURVE",
"1179 1040 CURVE SMOOTH",
"1222 939 OFFCURVE",
"1243 821 OFFCURVE",
"1243 684 CURVE SMOOTH",
"1243 403 OFFCURVE",
"1131 183 OFFCURVE",
"944 67 CURVE SMOOTH",
"850 9 OFFCURVE",
"744 -20 OFFCURVE",
"627 -20 CURVE SMOOTH",
"383 -20 OFFCURVE",
"210 99 OFFCURVE",
"123 304 CURVE SMOOTH",
"80 406 OFFCURVE",
"58 525 OFFCURVE",
"58 660 CURVE SMOOTH"
);
},
{
closed = 1;
nodes = (
"287 426 OFFCURVE",
"346 247 OFFCURVE",
"455 154 CURVE SMOOTH",
"510 107 OFFCURVE",
"575 84 OFFCURVE",
"651 84 CURVE SMOOTH",
"800 84 OFFCURVE",
"911 172 OFFCURVE",
"971 352 CURVE SMOOTH",
"1001 441 OFFCURVE",
"1016 552 OFFCURVE",
"1016 683 CURVE SMOOTH",
"1016 918 OFFCURVE",
"957 1092 OFFCURVE",
"848 1183 CURVE SMOOTH",
"793 1228 OFFCURVE",
"728 1251 OFFCURVE",
"652 1251 CURVE SMOOTH",
"501 1251 OFFCURVE",
"391 1166 OFFCURVE",
"332 990 CURVE SMOOTH",
"302 902 OFFCURVE",
"287 792 OFFCURVE",
"287 661 CURVE SMOOTH"
);
},
{
closed = 1;
nodes = (
"432 1771 LINE",
"656 1605 LINE",
"889 1771 LINE",
"963 1720 LINE",
"737 1475 LINE",
"576 1475 LINE",
"352 1718 LINE"
);
}
);
width = 1302;
}
);
note = uni01D1;
unicode = 01D1;
},
{
glyphname = uni01D3;
layers = (
{
layerId = "2D872161-907C-4693-BC79-717BAF554E8F";
name = Regular;
paths = (
{
closed = 1;
nodes = (
"162 1219 LINE",
"35 1242 LINE",
"35 1339 LINE",
"526 1339 LINE",
"526 1242 LINE",
"377 1219 LINE",
"377 546 LINE SMOOTH",
"377 222 OFFCURVE",
"496 91 OFFCURVE",
"707 91 CURVE SMOOTH",
"914 91 OFFCURVE",
"1023 251 OFFCURVE",
"1023 536 CURVE SMOOTH",
"1023 1219 LINE",
"877 1242 LINE",
"877 1339 LINE",
"1299 1339 LINE",
"1299 1242 LINE",
"1169 1219 LINE",
"1169 545 LINE SMOOTH",
"1169 294 OFFCURVE",
"1081 126 OFFCURVE",
"935 46 CURVE SMOOTH",
"862 6 OFFCURVE",
"778 -14 OFFCURVE",
"683 -14 CURVE SMOOTH",
"439 -14 OFFCURVE",
"289 66 OFFCURVE",
"217 236 CURVE SMOOTH",
"180 321 OFFCURVE",
"162 431 OFFCURVE",
"162 566 CURVE SMOOTH"
);
},
{
closed = 1;
nodes = (
"474 1771 LINE",
"698 1605 LINE",
"931 1771 LINE",
"1005 1720 LINE",
"779 1475 LINE",
"618 1475 LINE",
"394 1718 LINE"
);
}
);
width = 1327;
}
);
note = uni01D3;
unicode = 01D3;
},
{
glyphname = uni01F1;
layers = (
{
layerId = "2D872161-907C-4693-BC79-717BAF554E8F";
name = Regular;
paths = (
{
closed = 1;
nodes = (
"232 117 LINE",
"232 1219 LINE",
"93 1242 LINE",
"93 1339 LINE",
"328 1339 LINE SMOOTH",
"387 1339 OFFCURVE",
"465 1345 OFFCURVE",
"485 1346 CURVE SMOOTH",
"554 1351 OFFCURVE",
"608 1353 OFFCURVE",
"645 1353 CURVE SMOOTH",
"1094 1353 OFFCURVE",
"1310 1117 OFFCURVE",
"1310 712 CURVE SMOOTH",
"1310 427 OFFCURVE",
"1193 200 OFFCURVE",
"992 78 CURVE SMOOTH",
"891 17 OFFCURVE",
"776 -14 OFFCURVE",
"645 -14 CURVE SMOOTH",
"615 -14 OFFCURVE",
"565 -12 OFFCURVE",
"495 -7 CURVE SMOOTH",
"422 -2 OFFCURVE",
"369 0 OFFCURVE",
"337 0 CURVE SMOOTH",
"84 0 LINE",
"84 96 LINE"
);
},
{
closed = 1;
nodes = (
"438 108 LINE",
"487 96 OFFCURVE",
"538 92 OFFCURVE",
"605 92 CURVE SMOOTH",
"646 92 LINE SMOOTH",
"819 95 OFFCURVE",
"955 184 OFFCURVE",
"1030 357 CURVE SMOOTH",
"1067 444 OFFCURVE",
"1086 549 OFFCURVE",
"1086 674 CURVE SMOOTH",
"1086 1053 OFFCURVE",
"925 1249 OFFCURVE",
"598 1249 CURVE SMOOTH",
"563 1249 OFFCURVE",
"519 1246 OFFCURVE",
"466 1240 CURVE SMOOTH",
"438 1237 LINE"
);
},
{
closed = 1;
nodes = (
"2129 1125 LINE",
"2228 1244 LINE",
"1723 1225 LINE",
"1625 992 LINE",
"1515 1007 LINE",
"1554 1345 LINE",
"2427 1345 LINE",
"2472 1260 LINE",
"1786 224 LINE",
"1673 103 LINE",
"2265 137 LINE",
"2365 410 LINE",
"2479 387 LINE",
"2437 0 LINE",
"1483 0 LINE",
"1431 86 LINE"
);
}
);
width = 2558;
}
);
note = uni01F1;
unicode = 01F1;
},
{
glyphname = uni01F2;
layers = (
{
layerId = "2D872161-907C-4693-BC79-717BAF554E8F";
name = Regular;
paths = (
{
closed = 1;
nodes = (
"232 117 LINE",
"232 1219 LINE",
"93 1242 LINE",
"93 1339 LINE",
"328 1339 LINE SMOOTH",
"387 1339 OFFCURVE",
"465 1345 OFFCURVE",
"485 1346 CURVE SMOOTH",
"554 1351 OFFCURVE",
"608 1353 OFFCURVE",
"645 1353 CURVE SMOOTH",
"1094 1353 OFFCURVE",
"1310 1117 OFFCURVE",
"1310 712 CURVE SMOOTH",
"1310 427 OFFCURVE",
"1193 200 OFFCURVE",
"992 78 CURVE SMOOTH",
"891 17 OFFCURVE",
"776 -14 OFFCURVE",
"645 -14 CURVE SMOOTH",
"615 -14 OFFCURVE",
"565 -12 OFFCURVE",
"495 -7 CURVE SMOOTH",
"422 -2 OFFCURVE",
"369 0 OFFCURVE",
"337 0 CURVE SMOOTH",
"84 0 LINE",
"84 96 LINE"
);
},
{
closed = 1;
nodes = (
"438 108 LINE",
"487 96 OFFCURVE",
"538 92 OFFCURVE",
"605 92 CURVE SMOOTH",
"646 92 LINE SMOOTH",
"819 95 OFFCURVE",
"955 184 OFFCURVE",
"1030 357 CURVE SMOOTH",
"1067 444 OFFCURVE",
"1086 549 OFFCURVE",
"1086 674 CURVE SMOOTH",
"1086 1053 OFFCURVE",
"925 1249 OFFCURVE",
"598 1249 CURVE SMOOTH",
"563 1249 OFFCURVE",
"519 1246 OFFCURVE",
"466 1240 CURVE SMOOTH",
"438 1237 LINE"
);
},
{
closed = 1;
nodes = (
"2067 893 LINE",
"1657 880 LINE",
"1623 713 LINE",
"1502 713 LINE",
"1502 1001 LINE",
"2262 1001 LINE",
"2299 920 LINE",
"1784 219 LINE",
"1669 106 LINE",
"2123 126 LINE",
"2190 317 LINE",
"2304 304 LINE",
"2278 0 LINE",
"1468 0 LINE",
"1429 83 LINE",
"1951 777 LINE"
);
}
);
width = 2375;
}
);
note = uni01F2;
unicode = 01F2;
},
{
glyphname = uni01F4;
layers = (
{
layerId = "2D872161-907C-4693-BC79-717BAF554E8F";
name = Regular;
paths = (
{
closed = 1;
nodes = (
"77 940 OFFCURVE",
"204 1157 OFFCURVE",
"412 1270 CURVE SMOOTH",
"516 1326 OFFCURVE",
"633 1354 OFFCURVE",
"762 1354 CURVE SMOOTH",
"925 1354 OFFCURVE",
"1064 1327 OFFCURVE",
"1184 1298 CURVE",
"1167 986 LINE",
"1031 986 LINE",
"984 1194 LINE",
"969 1209 OFFCURVE",
"943 1222 OFFCURVE",
"906 1234 CURVE SMOOTH",
"868 1245 OFFCURVE",
"815 1251 OFFCURVE",
"748 1251 CURVE SMOOTH",
"577 1251 OFFCURVE",
"442 1168 OFFCURVE",
"369 1001 CURVE SMOOTH",
"332 918 OFFCURVE",
"314 816 OFFCURVE",
"314 697 CURVE SMOOTH",
"314 477 OFFCURVE",
"375 282 OFFCURVE",
"503 169 CURVE SMOOTH",
"566 112 OFFCURVE",
"644 84 OFFCURVE",
"737 84 CURVE SMOOTH",
"842 84 OFFCURVE",
"942 110 OFFCURVE",
"993 159 CURVE",
"993 545 LINE",
"777 565 LINE",
"777 678 LINE",
"1302 678 LINE",
"1302 565 LINE",
"1199 546 LINE",
"1199 72 LINE",
"1170 71 OFFCURVE",
"1133 61 OFFCURVE",
"1074 42 CURVE SMOOTH",
"949 3 OFFCURVE",
"851 -20 OFFCURVE",
"719 -20 CURVE SMOOTH",
"455 -20 OFFCURVE",
"257 102 OFFCURVE",
"154 306 CURVE SMOOTH",
"103 407 OFFCURVE",
"77 522 OFFCURVE",
"77 649 CURVE SMOOTH"
);
},
{
closed = 1;
nodes = (
"899 1771 LINE",
"900 1771 LINE",
"1034 1659 LINE",
"993 1603 OFFCURVE",
"891 1538 OFFCURVE",
"794 1488 CURVE SMOOTH",
"745 1463 OFFCURVE",
"707 1446 OFFCURVE",
"679 1437 CURVE",
"678 1437 LINE",
"608 1497 LINE"
);
}
);
width = 1339;
}
);
note = uni01F4;
unicode = 01F4;
},
{
glyphname = uni021A;
layers = (
{
layerId = "2D872161-907C-4693-BC79-717BAF554E8F";
name = Regular;
paths = (
{
closed = 1;
nodes = (
"627 -493 LINE",
"558 -458 LINE",
"557 -443 LINE",
"589 -428 OFFCURVE",
"609 -378 OFFCURVE",
"609 -330 CURVE SMOOTH",
"609 -301 OFFCURVE",
"594 -285 OFFCURVE",
"570 -268 CURVE",
"547 -255 OFFCURVE",
"535 -233 OFFCURVE",
"535 -192 CURVE SMOOTH",
"535 -144 OFFCURVE",
"564 -117 OFFCURVE",
"597 -105 CURVE",
"613 -100 OFFCURVE",
"628 -97 OFFCURVE",
"642 -97 CURVE SMOOTH",
"651 -97 LINE SMOOTH",
"727 -97 OFFCURVE",
"774 -150 OFFCURVE",
"774 -239 CURVE SMOOTH",
"774 -326 OFFCURVE",
"729 -405 OFFCURVE",
"681 -453 CURVE SMOOTH",
"657 -478 OFFCURVE",
"640 -491 OFFCURVE",
"630 -493 CURVE"
);
},
{
closed = 1;
nodes = (
"515 117 LINE",
"515 1235 LINE",
"222 1226 LINE",
"156 858 LINE",
"28 858 LINE",
"59 1339 LINE",
"1173 1339 LINE",
"1201 858 LINE",
"1075 858 LINE",
"1008 1226 LINE",
"727 1235 LINE",
"727 117 LINE",
"976 96 LINE",
"976 0 LINE",
"285 0 LINE",
"285 96 LINE"
);
}
);
width = 1241;
}
);
note = uni021A;
unicode = 021A;
},
{
glyphname = uni1E02;
layers = (
{
layerId = "2D872161-907C-4693-BC79-717BAF554E8F";
name = Regular;
paths = (
{
closed = 1;
nodes = (
"528 1688 OFFCURVE",
"577 1748 OFFCURVE",
"658 1748 CURVE SMOOTH",
"659 1748 LINE SMOOTH",
"734 1748 OFFCURVE",
"780 1692 OFFCURVE",
"780 1627 CURVE SMOOTH",
"780 1546 OFFCURVE",
"732 1490 OFFCURVE",
"644 1490 CURVE SMOOTH",
"643 1490 LINE SMOOTH",
"575 1490 OFFCURVE",
"528 1541 OFFCURVE",
"528 1609 CURVE SMOOTH"
);
},
{
closed = 1;
nodes = (
"232 117 LINE",
"232 1220 LINE",
"87 1242 LINE",
"87 1339 LINE",
"326 1339 LINE SMOOTH",
"366 1339 OFFCURVE",
"417 1341 OFFCURVE",
"480 1346 CURVE SMOOTH",
"528 1351 OFFCURVE",
"569 1353 OFFCURVE",
"604 1353 CURVE SMOOTH",
"933 1353 OFFCURVE",
"1074 1249 OFFCURVE",
"1074 1049 CURVE SMOOTH",
"1074 937 OFFCURVE",
"1029 842 OFFCURVE",
"949 781 CURVE SMOOTH",
"908 750 OFFCURVE",
"860 729 OFFCURVE",
"804 718 CURVE",
"951 722 OFFCURVE",
"1064 667 OFFCURVE",
"1124 570 CURVE SMOOTH",
"1154 521 OFFCURVE",
"1169 465 OFFCURVE",
"1169 400 CURVE SMOOTH",
"1169 157 OFFCURVE",
"1012 -11 OFFCURVE",
"617 -11 CURVE SMOOTH",
"573 -11 OFFCURVE",
"517 -7 OFFCURVE",
"497 -6 CURVE SMOOTH",
"426 -2 OFFCURVE",
"370 0 OFFCURVE",
"328 0 CURVE SMOOTH",
"84 0 LINE",
"84 96 LINE"
);
},
{
closed = 1;
nodes = (
"438 758 LINE",
"468 755 OFFCURVE",
"528 754 OFFCURVE",
"619 754 CURVE SMOOTH",
"785 754 OFFCURVE",
"868 840 OFFCURVE",
"868 1012 CURVE SMOOTH",
"868 1123 OFFCURVE",
"835 1190 OFFCURVE",
"755 1225 CURVE SMOOTH",
"715 1242 OFFCURVE",
"661 1251 OFFCURVE",
"593 1251 CURVE SMOOTH",
"551 1251 OFFCURVE",
"516 1250 OFFCURVE",
"488 1247 CURVE SMOOTH",
"459 1244 OFFCURVE",
"443 1242 OFFCURVE",
"438 1241 CURVE"
);
},
{
closed = 1;
nodes = (
"437 108 LINE",
"465 96 OFFCURVE",
"529 92 OFFCURVE",
"612 92 CURVE SMOOTH",
"847 92 OFFCURVE",
"945 190 OFFCURVE",
"945 370 CURVE SMOOTH",
"945 501 OFFCURVE",
"906 579 OFFCURVE",
"818 616 CURVE SMOOTH",
"773 634 OFFCURVE",
"715 643 OFFCURVE",
"642 643 CURVE SMOOTH",
"557 643 LINE SMOOTH",
"496 643 OFFCURVE",
"456 643 OFFCURVE",
"437 642 CURVE"
);
}
);
width = 1232;
}
);
note = uni1E02;
unicode = 1E02;
},
{
glyphname = uni1E0A;
layers = (
{
layerId = "2D872161-907C-4693-BC79-717BAF554E8F";
name = Regular;
paths = (
{
closed = 1;
nodes = (
"581 1688 OFFCURVE",
"630 1748 OFFCURVE",
"711 1748 CURVE SMOOTH",
"712 1748 LINE SMOOTH",
"787 1748 OFFCURVE",
"833 1692 OFFCURVE",
"833 1627 CURVE SMOOTH",
"833 1546 OFFCURVE",
"785 1490 OFFCURVE",
"697 1490 CURVE SMOOTH",
"696 1490 LINE SMOOTH",
"628 1490 OFFCURVE",
"581 1541 OFFCURVE",
"581 1609 CURVE SMOOTH"
);
},
{
closed = 1;
nodes = (
"232 117 LINE",
"232 1219 LINE",
"93 1242 LINE",
"93 1339 LINE",
"328 1339 LINE SMOOTH",
"387 1339 OFFCURVE",
"465 1345 OFFCURVE",
"485 1346 CURVE SMOOTH",
"554 1351 OFFCURVE",
"608 1353 OFFCURVE",
"645 1353 CURVE SMOOTH",
"1094 1353 OFFCURVE",
"1310 1117 OFFCURVE",
"1310 712 CURVE SMOOTH",
"1310 427 OFFCURVE",
"1193 200 OFFCURVE",
"992 78 CURVE SMOOTH",
"891 17 OFFCURVE",
"776 -14 OFFCURVE",
"645 -14 CURVE SMOOTH",
"615 -14 OFFCURVE",
"565 -12 OFFCURVE",
"495 -7 CURVE SMOOTH",
"422 -2 OFFCURVE",
"369 0 OFFCURVE",
"337 0 CURVE SMOOTH",
"84 0 LINE",
"84 96 LINE"
);
},
{
closed = 1;
nodes = (
"438 108 LINE",
"487 96 OFFCURVE",
"538 92 OFFCURVE",
"605 92 CURVE SMOOTH",
"646 92 LINE SMOOTH",
"819 95 OFFCURVE",
"955 184 OFFCURVE",
"1030 357 CURVE SMOOTH",
"1067 444 OFFCURVE",
"1086 549 OFFCURVE",
"1086 674 CURVE SMOOTH",
"1086 1053 OFFCURVE",
"925 1249 OFFCURVE",
"598 1249 CURVE SMOOTH",
"563 1249 OFFCURVE",
"519 1246 OFFCURVE",
"466 1240 CURVE SMOOTH",
"438 1237 LINE"
);
}
);
width = 1373;
}
);
note = uni1E0A;
unicode = 1E0A;
},
{
glyphname = uni1E1E;
layers = (
{
layerId = "2D872161-907C-4693-BC79-717BAF554E8F";
name = Regular;
paths = (
{
closed = 1;
nodes = (
"446 1688 OFFCURVE",
"495 1748 OFFCURVE",
"576 1748 CURVE SMOOTH",
"577 1748 LINE SMOOTH",
"652 1748 OFFCURVE",
"698 1692 OFFCURVE",
"698 1627 CURVE SMOOTH",
"698 1546 OFFCURVE",
"650 1490 OFFCURVE",
"562 1490 CURVE SMOOTH",
"561 1490 LINE SMOOTH",
"493 1490 OFFCURVE",
"446 1541 OFFCURVE",
"446 1609 CURVE SMOOTH"
);
},
{
closed = 1;
nodes = (
"232 117 LINE",
"232 1220 LINE",
"84 1242 LINE",
"84 1339 LINE",
"1045 1339 LINE",
"1064 1031 LINE",
"936 1031 LINE",
"878 1227 LINE",
"439 1239 LINE",
"439 726 LINE",
"745 730 LINE",
"781 877 LINE",
"889 877 LINE",
"889 458 LINE",
"781 458 LINE",
"745 608 LINE",
"439 616 LINE",
"439 117 LINE",
"707 96 LINE",
"707 0 LINE",
"87 0 LINE",
"87 96 LINE"
);
}
);
width = 1117;
}
);
note = uni1E1E;
unicode = 1E1E;
},
{
glyphname = uni1E20;
layers = (
{
layerId = "2D872161-907C-4693-BC79-717BAF554E8F";
name = Regular;
paths = (
{
closed = 1;
nodes = (
"77 940 OFFCURVE",
"204 1157 OFFCURVE",
"412 1270 CURVE SMOOTH",
"516 1326 OFFCURVE",
"633 1354 OFFCURVE",
"762 1354 CURVE SMOOTH",
"925 1354 OFFCURVE",
"1064 1327 OFFCURVE",
"1184 1298 CURVE",
"1167 986 LINE",
"1031 986 LINE",
"984 1194 LINE",
"969 1209 OFFCURVE",
"943 1222 OFFCURVE",
"906 1234 CURVE SMOOTH",
"868 1245 OFFCURVE",
"815 1251 OFFCURVE",
"748 1251 CURVE SMOOTH",
"577 1251 OFFCURVE",
"442 1168 OFFCURVE",
"369 1001 CURVE SMOOTH",
"332 918 OFFCURVE",
"314 816 OFFCURVE",
"314 697 CURVE SMOOTH",
"314 477 OFFCURVE",
"375 282 OFFCURVE",
"503 169 CURVE SMOOTH",
"566 112 OFFCURVE",
"644 84 OFFCURVE",
"737 84 CURVE SMOOTH",
"842 84 OFFCURVE",
"942 110 OFFCURVE",
"993 159 CURVE",
"993 545 LINE",
"777 565 LINE",
"777 678 LINE",
"1302 678 LINE",
"1302 565 LINE",
"1199 546 LINE",
"1199 72 LINE",
"1170 71 OFFCURVE",
"1133 61 OFFCURVE",
"1074 42 CURVE SMOOTH",
"949 3 OFFCURVE",
"851 -20 OFFCURVE",
"719 -20 CURVE SMOOTH",
"455 -20 OFFCURVE",
"257 102 OFFCURVE",
"154 306 CURVE SMOOTH",
"103 407 OFFCURVE",
"77 522 OFFCURVE",
"77 649 CURVE SMOOTH"
);
},
{
closed = 1;
nodes = (
"990 1676 LINE",
"990 1536 LINE",
"488 1536 LINE",
"488 1676 LINE"
);
}
);
width = 1339;
}
);
note = uni1E20;
unicode = 1E20;
},
{
glyphname = uni1E40;
layers = (
{
layerId = "2D872161-907C-4693-BC79-717BAF554E8F";
name = Regular;
paths = (
{
closed = 1;
nodes = (
"768 1688 OFFCURVE",
"817 1748 OFFCURVE",
"898 1748 CURVE SMOOTH",
"899 1748 LINE SMOOTH",
"974 1748 OFFCURVE",
"1020 1692 OFFCURVE",
"1020 1627 CURVE SMOOTH",
"1020 1546 OFFCURVE",
"972 1490 OFFCURVE",
"884 1490 CURVE SMOOTH",
"883 1490 LINE SMOOTH",
"815 1490 OFFCURVE",
"768 1541 OFFCURVE",
"768 1609 CURVE SMOOTH"
);
},
{
closed = 1;
nodes = (
"158 116 LINE",
"290 1220 LINE",
"101 1242 LINE",
"101 1339 LINE",
"582 1339 LINE",
"858 532 LINE",
"904 330 LINE",
"943 532 LINE",
"1187 1339 LINE",
"1668 1339 LINE",
"1668 1242 LINE",
"1472 1219 LINE",
"1643 117 LINE",
"1800 96 LINE",
"1800 0 LINE",
"1278 0 LINE",
"1278 96 LINE",
"1434 116 LINE",
"1323 915 LINE",
"1284 1266 LINE",
"1223 1025 LINE",
"936 60 LINE",
"823 60 LINE",
"505 927 LINE",
"407 1265 LINE",
"379 916 LINE",
"308 117 LINE",
"481 96 LINE",
"481 0 LINE",
"1 0 LINE",
"1 96 LINE"
);
}
);
width = 1809;
}
);
note = uni1E40;
unicode = 1E40;
},
{
glyphname = uni1E44;
layers = (
{
layerId = "2D872161-907C-4693-BC79-717BAF554E8F";
name = Regular;
paths = (
{
closed = 1;
nodes = (
"231 116 LINE",
"231 1219 LINE",
"86 1242 LINE",
"86 1339 LINE",
"434 1339 LINE",
"1026 474 LINE",
"1119 300 LINE",
"1119 1220 LINE",
"962 1242 LINE",
"962 1339 LINE",
"1398 1339 LINE",
"1398 1242 LINE",
"1252 1219 LINE",
"1252 0 LINE",
"1108 0 LINE",
"502 883 LINE",
"364 1122 LINE",
"364 117 LINE",
"532 96 LINE",
"532 0 LINE",
"86 0 LINE",
"86 96 LINE"
);
},
{
closed = 1;
nodes = (
"618 1688 OFFCURVE",
"667 1748 OFFCURVE",
"748 1748 CURVE SMOOTH",
"749 1748 LINE SMOOTH",
"824 1748 OFFCURVE",
"870 1692 OFFCURVE",
"870 1627 CURVE SMOOTH",
"870 1546 OFFCURVE",
"822 1490 OFFCURVE",
"734 1490 CURVE SMOOTH",
"733 1490 LINE SMOOTH",
"665 1490 OFFCURVE",
"618 1541 OFFCURVE",
"618 1609 CURVE SMOOTH"
);
}
);
width = 1441;
}
);
note = uni1E44;
unicode = 1E44;
},
{
glyphname = uni1E56;
layers = (
{
layerId = "2D872161-907C-4693-BC79-717BAF554E8F";
name = Regular;
paths = (
{
closed = 1;
nodes = (
"471 1688 OFFCURVE",
"520 1748 OFFCURVE",
"601 1748 CURVE SMOOTH",
"602 1748 LINE SMOOTH",
"677 1748 OFFCURVE",
"723 1692 OFFCURVE",
"723 1627 CURVE SMOOTH",
"723 1546 OFFCURVE",
"675 1490 OFFCURVE",
"587 1490 CURVE SMOOTH",
"586 1490 LINE SMOOTH",
"518 1490 OFFCURVE",
"471 1541 OFFCURVE",
"471 1609 CURVE SMOOTH"
);
},
{
closed = 1;
nodes = (
"234 116 LINE",
"234 1219 LINE",
"96 1242 LINE",
"96 1339 LINE",
"313 1339 LINE SMOOTH",
"345 1339 OFFCURVE",
"388 1341 OFFCURVE",
"442 1345 CURVE SMOOTH",
"505 1350 OFFCURVE",
"566 1352 OFFCURVE",
"624 1352 CURVE SMOOTH",
"872 1352 OFFCURVE",
"1014 1291 OFFCURVE",
"1077 1179 CURVE SMOOTH",
"1108 1122 OFFCURVE",
"1124 1051 OFFCURVE",
"1124 966 CURVE SMOOTH",
"1124 773 OFFCURVE",
"1030 627 OFFCURVE",
"872 552 CURVE SMOOTH",
"793 515 OFFCURVE",
"702 496 OFFCURVE",
"601 496 CURVE SMOOTH",
"538 496 OFFCURVE",
"457 501 OFFCURVE",
"441 504 CURVE",
"441 116 LINE",
"678 96 LINE",
"678 0 LINE",
"86 0 LINE",
"86 96 LINE"
);
},
{
closed = 1;
nodes = (
"778 600 OFFCURVE",
"902 703 OFFCURVE",
"902 964 CURVE SMOOTH",
"902 1168 OFFCURVE",
"806 1250 OFFCURVE",
"598 1250 CURVE SMOOTH",
"562 1250 OFFCURVE",
"526 1248 OFFCURVE",
"489 1243 CURVE SMOOTH",
"470 1240 OFFCURVE",
"453 1239 OFFCURVE",
"440 1239 CURVE",
"440 608 LINE",
"468 603 OFFCURVE",
"522 600 OFFCURVE",
"601 600 CURVE SMOOTH"
);
}
);
width = 1168;
}
);
note = uni1E56;
unicode = 1E56;
},
{
glyphname = uni1E60;
layers = (
{
layerId = "2D872161-907C-4693-BC79-717BAF554E8F";
name = Regular;
paths = (
{
closed = 1;
nodes = (
"434 1688 OFFCURVE",
"483 1748 OFFCURVE",
"564 1748 CURVE SMOOTH",
"565 1748 LINE SMOOTH",
"640 1748 OFFCURVE",
"686 1692 OFFCURVE",
"686 1627 CURVE SMOOTH",
"686 1546 OFFCURVE",
"638 1490 OFFCURVE",
"550 1490 CURVE SMOOTH",
"549 1490 LINE SMOOTH",
"481 1490 OFFCURVE",
"434 1541 OFFCURVE",
"434 1609 CURVE SMOOTH"
);
},
{
closed = 1;
nodes = (
"118 387 LINE",
"240 387 LINE",
"275 162 LINE",
"315 119 OFFCURVE",
"413 85 OFFCURVE",
"517 85 CURVE SMOOTH",
"693 85 OFFCURVE",
"781 167 OFFCURVE",
"781 306 CURVE SMOOTH",
"781 397 OFFCURVE",
"729 460 OFFCURVE",
"646 509 CURVE SMOOTH",
"604 534 OFFCURVE",
"547 562 OFFCURVE",
"474 595 CURVE SMOOTH",
"347 652 OFFCURVE",
"246 711 OFFCURVE",
"174 818 CURVE SMOOTH",
"137 871 OFFCURVE",
"119 935 OFFCURVE",
"119 1008 CURVE SMOOTH",
"119 1141 OFFCURVE",
"193 1250 OFFCURVE",
"326 1310 CURVE SMOOTH",
"392 1339 OFFCURVE",
"469 1354 OFFCURVE",
"557 1354 CURVE SMOOTH",
"665 1354 OFFCURVE",
"750 1334 OFFCURVE",
"849 1306 CURVE SMOOTH",
"875 1298 OFFCURVE",
"896 1293 OFFCURVE",
"912 1290 CURVE",
"900 988 LINE",
"782 988 LINE",
"742 1202 LINE",
"719 1227 OFFCURVE",
"639 1251 OFFCURVE",
"555 1251 CURVE SMOOTH",
"397 1251 OFFCURVE",
"318 1187 OFFCURVE",
"318 1060 CURVE SMOOTH",
"318 971 OFFCURVE",
"370 910 OFFCURVE",
"450 862 CURVE SMOOTH",
"490 837 OFFCURVE",
"549 806 OFFCURVE",
"627 767 CURVE SMOOTH",
"782 691 OFFCURVE",
"874 640 OFFCURVE",
"944 542 CURVE SMOOTH",
"979 493 OFFCURVE",
"996 435 OFFCURVE",
"996 368 CURVE SMOOTH",
"996 239 OFFCURVE",
"924 111 OFFCURVE",
"780 36 CURVE SMOOTH",
"707 -1 OFFCURVE",
"619 -20 OFFCURVE",
"516 -20 CURVE SMOOTH",
"389 -20 OFFCURVE",
"292 5 OFFCURVE",
"180 41 CURVE SMOOTH",
"141 54 OFFCURVE",
"115 61 OFFCURVE",
"103 62 CURVE"
);
}
);
width = 1069;
}
);
note = uni1E60;
unicode = 1E60;
},
{
glyphname = uni1E6A;
layers = (
{
layerId = "2D872161-907C-4693-BC79-717BAF554E8F";
name = Regular;
paths = (
{
closed = 1;
nodes = (
"507 1688 OFFCURVE",
"556 1748 OFFCURVE",
"637 1748 CURVE SMOOTH",
"638 1748 LINE SMOOTH",
"713 1748 OFFCURVE",
"759 1692 OFFCURVE",
"759 1627 CURVE SMOOTH",
"759 1546 OFFCURVE",
"711 1490 OFFCURVE",
"623 1490 CURVE SMOOTH",
"622 1490 LINE SMOOTH",
"554 1490 OFFCURVE",
"507 1541 OFFCURVE",
"507 1609 CURVE SMOOTH"
);
},
{
closed = 1;
nodes = (
"515 117 LINE",
"515 1235 LINE",
"222 1226 LINE",
"156 858 LINE",
"28 858 LINE",
"59 1339 LINE",
"1173 1339 LINE",
"1201 858 LINE",
"1075 858 LINE",
"1008 1226 LINE",
"727 1235 LINE",
"727 117 LINE",
"976 96 LINE",
"976 0 LINE",
"285 0 LINE",
"285 96 LINE"
);
}
);
width = 1241;
}
);
note = uni1E6A;
unicode = 1E6A;
},
{
glyphname = uni1E8E;
layers = (
{
layerId = "2D872161-907C-4693-BC79-717BAF554E8F";
name = Regular;
paths = (
{
closed = 1;
nodes = (
"486 117 LINE",
"486 521 LINE",
"88 1218 LINE",
"-25 1242 LINE",
"-25 1339 LINE",
"458 1339 LINE",
"458 1242 LINE",
"321 1219 LINE",
"569 741 LINE",
"620 613 LINE",
"677 739 LINE",
"913 1220 LINE",
"770 1242 LINE",
"770 1339 LINE",
"1186 1339 LINE",
"1186 1242 LINE",
"1069 1220 LINE",
"700 525 LINE",
"700 116 LINE",
"897 96 LINE",
"897 0 LINE",
"293 0 LINE",
"293 96 LINE"
);
},
{
closed = 1;
nodes = (
"478 1688 OFFCURVE",
"527 1748 OFFCURVE",
"608 1748 CURVE SMOOTH",
"609 1748 LINE SMOOTH",
"684 1748 OFFCURVE",
"730 1692 OFFCURVE",
"730 1627 CURVE SMOOTH",
"730 1546 OFFCURVE",
"682 1490 OFFCURVE",
"594 1490 CURVE SMOOTH",
"593 1490 LINE SMOOTH",
"525 1490 OFFCURVE",
"478 1541 OFFCURVE",
"478 1609 CURVE SMOOTH"
);
}
);
width = 1158;
}
);
note = uni1E8E;
unicode = 1E8E;
},
{
glyphname = I.uc;
layers = (
{
layerId = "2D872161-907C-4693-BC79-717BAF554E8F";
name = Regular;
paths = (
{
closed = 1;
nodes = (
"260 117 LINE",
"260 1219 LINE",
"99 1242 LINE",
"99 1339 LINE",
"628 1339 LINE",
"628 1242 LINE",
"467 1220 LINE",
"467 117 LINE",
"631 93 LINE",
"631 0 LINE",
"99 0 LINE",
"99 96 LINE"
);
},
{
closed = 1;
nodes = (
"241 1688 OFFCURVE",
"290 1748 OFFCURVE",
"371 1748 CURVE SMOOTH",
"372 1748 LINE SMOOTH",
"447 1748 OFFCURVE",
"493 1692 OFFCURVE",
"493 1627 CURVE SMOOTH",
"493 1546 OFFCURVE",
"445 1490 OFFCURVE",
"357 1490 CURVE SMOOTH",
"356 1490 LINE SMOOTH",
"288 1490 OFFCURVE",
"241 1541 OFFCURVE",
"241 1609 CURVE SMOOTH"
);
}
);
width = 727;
}
);
note = I.uc;
},
{
glyphname = a;
layers = (
{
layerId = "2D872161-907C-4693-BC79-717BAF554E8F";
name = Regular;
paths = (
{
closed = 1;
nodes = (
"664 654 LINE SMOOTH",
"664 765 OFFCURVE",
"644 825 OFFCURVE",
"588 854 CURVE SMOOTH",
"560 869 OFFCURVE",
"520 876 OFFCURVE",
"468 876 CURVE SMOOTH",
"369 876 OFFCURVE",
"264 848 OFFCURVE",
"155 792 CURVE",
"154 792 LINE",
"110 884 LINE",
"142 912 OFFCURVE",
"239 964 OFFCURVE",
"354 997 CURVE SMOOTH",
"411 1014 OFFCURVE",
"466 1022 OFFCURVE",
"517 1022 CURVE SMOOTH",
"689 1022 OFFCURVE",
"782 978 OFFCURVE",
"826 876 CURVE SMOOTH",
"847 825 OFFCURVE",
"858 756 OFFCURVE",
"858 669 CURVE SMOOTH",
"858 97 LINE",
"965 97 LINE",
"965 11 LINE",
"880 -10 OFFCURVE",
"815 -20 OFFCURVE",
"772 -20 CURVE SMOOTH",
"723 -20 OFFCURVE",
"699 -14 OFFCURVE",
"687 11 CURVE SMOOTH",
"681 24 OFFCURVE",
"678 43 OFFCURVE",
"678 70 CURVE SMOOTH",
"678 112 LINE",
"614 49 OFFCURVE",
"507 -20 OFFCURVE",
"379 -20 CURVE SMOOTH",
"267 -20 OFFCURVE",
"171 20 OFFCURVE",
"116 106 CURVE SMOOTH",
"89 149 OFFCURVE",
"75 202 OFFCURVE",
"75 266 CURVE SMOOTH",
"75 422 OFFCURVE",
"194 522 OFFCURVE",
"370 570 CURVE SMOOTH",
"458 593 OFFCURVE",
"556 606 OFFCURVE",
"664 608 CURVE"
);
},
{
closed = 1;
nodes = (
"664 509 LINE",
"492 509 OFFCURVE",
"382 466 OFFCURVE",
"332 402 CURVE SMOOTH",
"307 369 OFFCURVE",
"294 332 OFFCURVE",
"294 291 CURVE SMOOTH",
"294 168 OFFCURVE",
"359 113 OFFCURVE",
"463 113 CURVE SMOOTH",
"518 113 OFFCURVE",
"607 148 OFFCURVE",
"664 193 CURVE"
);
}
);
width = 1010;
}
);
note = a;
unicode = 0061;
},
{
glyphname = aacute;
layers = (
{
layerId = "2D872161-907C-4693-BC79-717BAF554E8F";
name = Regular;
paths = (
{
closed = 1;
nodes = (
"664 654 LINE SMOOTH",
"664 765 OFFCURVE",
"644 825 OFFCURVE",
"588 854 CURVE SMOOTH",
"560 869 OFFCURVE",
"520 876 OFFCURVE",
"468 876 CURVE SMOOTH",
"369 876 OFFCURVE",
"264 848 OFFCURVE",
"155 792 CURVE",
"154 792 LINE",
"110 884 LINE",
"142 912 OFFCURVE",
"239 964 OFFCURVE",
"354 997 CURVE SMOOTH",
"411 1014 OFFCURVE",
"466 1022 OFFCURVE",
"517 1022 CURVE SMOOTH",
"689 1022 OFFCURVE",
"782 978 OFFCURVE",
"826 876 CURVE SMOOTH",
"847 825 OFFCURVE",
"858 756 OFFCURVE",
"858 669 CURVE SMOOTH",
"858 97 LINE",
"965 97 LINE",
"965 11 LINE",
"880 -10 OFFCURVE",
"815 -20 OFFCURVE",
"772 -20 CURVE SMOOTH",
"723 -20 OFFCURVE",
"699 -14 OFFCURVE",
"687 11 CURVE SMOOTH",
"681 24 OFFCURVE",
"678 43 OFFCURVE",
"678 70 CURVE SMOOTH",
"678 112 LINE",
"614 49 OFFCURVE",
"507 -20 OFFCURVE",
"379 -20 CURVE SMOOTH",
"267 -20 OFFCURVE",
"171 20 OFFCURVE",
"116 106 CURVE SMOOTH",
"89 149 OFFCURVE",
"75 202 OFFCURVE",
"75 266 CURVE SMOOTH",
"75 422 OFFCURVE",
"194 522 OFFCURVE",
"370 570 CURVE SMOOTH",
"458 593 OFFCURVE",
"556 606 OFFCURVE",
"664 608 CURVE"
);
},
{
closed = 1;
nodes = (
"664 509 LINE",
"492 509 OFFCURVE",
"382 466 OFFCURVE",
"332 402 CURVE SMOOTH",
"307 369 OFFCURVE",
"294 332 OFFCURVE",
"294 291 CURVE SMOOTH",
"294 168 OFFCURVE",
"359 113 OFFCURVE",
"463 113 CURVE SMOOTH",
"518 113 OFFCURVE",
"607 148 OFFCURVE",
"664 193 CURVE"
);
},
{
closed = 1;
nodes = (
"666 1596 LINE",
"667 1596 LINE",
"807 1474 LINE",
"776 1422 OFFCURVE",
"669 1323 OFFCURVE",
"566 1247 CURVE SMOOTH",
"514 1209 OFFCURVE",
"475 1185 OFFCURVE",
"449 1174 CURVE",
"447 1174 LINE",
"376 1239 LINE"
);
}
);
width = 1010;
}
);
note = aacute;
unicode = 00E1;
},
{
glyphname = abreve;
layers = (
{
layerId = "2D872161-907C-4693-BC79-717BAF554E8F";
name = Regular;
paths = (
{
closed = 1;
nodes = (
"664 654 LINE SMOOTH",
"664 765 OFFCURVE",
"644 825 OFFCURVE",
"588 854 CURVE SMOOTH",
"560 869 OFFCURVE",
"520 876 OFFCURVE",
"468 876 CURVE SMOOTH",
"369 876 OFFCURVE",
"264 848 OFFCURVE",
"155 792 CURVE",
"154 792 LINE",
"110 884 LINE",
"142 912 OFFCURVE",
"239 964 OFFCURVE",
"354 997 CURVE SMOOTH",
"411 1014 OFFCURVE",
"466 1022 OFFCURVE",
"517 1022 CURVE SMOOTH",
"689 1022 OFFCURVE",
"782 978 OFFCURVE",
"826 876 CURVE SMOOTH",
"847 825 OFFCURVE",
"858 756 OFFCURVE",
"858 669 CURVE SMOOTH",
"858 97 LINE",
"965 97 LINE",
"965 11 LINE",
"880 -10 OFFCURVE",
"815 -20 OFFCURVE",
"772 -20 CURVE SMOOTH",
"723 -20 OFFCURVE",
"699 -14 OFFCURVE",
"687 11 CURVE SMOOTH",
"681 24 OFFCURVE",
"678 43 OFFCURVE",
"678 70 CURVE SMOOTH",
"678 112 LINE",
"614 49 OFFCURVE",
"507 -20 OFFCURVE",
"379 -20 CURVE SMOOTH",
"267 -20 OFFCURVE",
"171 20 OFFCURVE",
"116 106 CURVE SMOOTH",
"89 149 OFFCURVE",
"75 202 OFFCURVE",
"75 266 CURVE SMOOTH",
"75 422 OFFCURVE",
"194 522 OFFCURVE",
"370 570 CURVE SMOOTH",
"458 593 OFFCURVE",
"556 606 OFFCURVE",
"664 608 CURVE"
);
},
{
closed = 1;
nodes = (
"664 509 LINE",
"492 509 OFFCURVE",
"382 466 OFFCURVE",
"332 402 CURVE SMOOTH",
"307 369 OFFCURVE",
"294 332 OFFCURVE",
"294 291 CURVE SMOOTH",
"294 168 OFFCURVE",
"359 113 OFFCURVE",
"463 113 CURVE SMOOTH",
"518 113 OFFCURVE",
"607 148 OFFCURVE",
"664 193 CURVE"
);
},
{
closed = 1;
nodes = (
"195 1516 OFFCURVE",
"196 1534 OFFCURVE",
"198 1543 CURVE",
"302 1543 LINE",
"302 1530 OFFCURVE",
"303 1519 OFFCURVE",
"305 1510 CURVE",
"317 1426 OFFCURVE",
"373 1347 OFFCURVE",
"498 1347 CURVE SMOOTH",
"623 1347 OFFCURVE",
"675 1425 OFFCURVE",
"687 1510 CURVE",
"688 1524 OFFCURVE",
"689 1535 OFFCURVE",
"689 1543 CURVE",
"790 1543 LINE",
"791 1532 OFFCURVE",
"793 1506 OFFCURVE",
"793 1491 CURVE SMOOTH",
"793 1384 OFFCURVE",
"742 1286 OFFCURVE",
"652 1231 CURVE SMOOTH",
"607 1203 OFFCURVE",
"555 1189 OFFCURVE",
"497 1189 CURVE SMOOTH",
"376 1189 OFFCURVE",
"281 1249 OFFCURVE",
"232 1341 CURVE SMOOTH",
"207 1386 OFFCURVE",
"195 1436 OFFCURVE",
"195 1490 CURVE SMOOTH"
);
}
);
width = 1010;
}
);
note = abreve;
unicode = 0103;
},
{
glyphname = acircumflex;
layers = (
{
layerId = "2D872161-907C-4693-BC79-717BAF554E8F";
name = Regular;
paths = (
{
closed = 1;
nodes = (
"664 654 LINE SMOOTH",
"664 765 OFFCURVE",
"644 825 OFFCURVE",
"588 854 CURVE SMOOTH",
"560 869 OFFCURVE",
"520 876 OFFCURVE",
"468 876 CURVE SMOOTH",
"369 876 OFFCURVE",
"264 848 OFFCURVE",
"155 792 CURVE",
"154 792 LINE",
"110 884 LINE",
"142 912 OFFCURVE",
"239 964 OFFCURVE",
"354 997 CURVE SMOOTH",
"411 1014 OFFCURVE",
"466 1022 OFFCURVE",
"517 1022 CURVE SMOOTH",
"689 1022 OFFCURVE",
"782 978 OFFCURVE",
"826 876 CURVE SMOOTH",
"847 825 OFFCURVE",
"858 756 OFFCURVE",
"858 669 CURVE SMOOTH",
"858 97 LINE",
"965 97 LINE",
"965 11 LINE",
"880 -10 OFFCURVE",
"815 -20 OFFCURVE",
"772 -20 CURVE SMOOTH",
"723 -20 OFFCURVE",
"699 -14 OFFCURVE",
"687 11 CURVE SMOOTH",
"681 24 OFFCURVE",
"678 43 OFFCURVE",
"678 70 CURVE SMOOTH",
"678 112 LINE",
"614 49 OFFCURVE",
"507 -20 OFFCURVE",
"379 -20 CURVE SMOOTH",
"267 -20 OFFCURVE",
"171 20 OFFCURVE",
"116 106 CURVE SMOOTH",
"89 149 OFFCURVE",
"75 202 OFFCURVE",
"75 266 CURVE SMOOTH",
"75 422 OFFCURVE",
"194 522 OFFCURVE",
"370 570 CURVE SMOOTH",
"458 593 OFFCURVE",
"556 606 OFFCURVE",
"664 608 CURVE"
);
},
{
closed = 1;
nodes = (
"664 509 LINE",
"492 509 OFFCURVE",
"382 466 OFFCURVE",
"332 402 CURVE SMOOTH",
"307 369 OFFCURVE",
"294 332 OFFCURVE",
"294 291 CURVE SMOOTH",
"294 168 OFFCURVE",
"359 113 OFFCURVE",
"463 113 CURVE SMOOTH",
"518 113 OFFCURVE",
"607 148 OFFCURVE",
"664 193 CURVE"
);
},
{
closed = 1;
nodes = (
"417 1567 LINE",
"575 1567 LINE",
"822 1217 LINE",
"743 1166 LINE",
"496 1413 LINE",
"235 1165 LINE",
"163 1216 LINE"
);
}
);
width = 1010;
}
);
note = acircumflex;
unicode = 00E2;
},
{
glyphname = adieresis;
layers = (
{
layerId = "2D872161-907C-4693-BC79-717BAF554E8F";
name = Regular;
paths = (
{
closed = 1;
nodes = (
"664 654 LINE SMOOTH",
"664 765 OFFCURVE",
"644 825 OFFCURVE",
"588 854 CURVE SMOOTH",
"560 869 OFFCURVE",
"520 876 OFFCURVE",
"468 876 CURVE SMOOTH",
"369 876 OFFCURVE",
"264 848 OFFCURVE",
"155 792 CURVE",
"154 792 LINE",
"110 884 LINE",
"142 912 OFFCURVE",
"239 964 OFFCURVE",
"354 997 CURVE SMOOTH",
"411 1014 OFFCURVE",
"466 1022 OFFCURVE",
"517 1022 CURVE SMOOTH",
"689 1022 OFFCURVE",
"782 978 OFFCURVE",
"826 876 CURVE SMOOTH",
"847 825 OFFCURVE",
"858 756 OFFCURVE",
"858 669 CURVE SMOOTH",
"858 97 LINE",
"965 97 LINE",
"965 11 LINE",
"880 -10 OFFCURVE",
"815 -20 OFFCURVE",
"772 -20 CURVE SMOOTH",
"723 -20 OFFCURVE",
"699 -14 OFFCURVE",
"687 11 CURVE SMOOTH",
"681 24 OFFCURVE",
"678 43 OFFCURVE",
"678 70 CURVE SMOOTH",
"678 112 LINE",
"614 49 OFFCURVE",
"507 -20 OFFCURVE",
"379 -20 CURVE SMOOTH",
"267 -20 OFFCURVE",
"171 20 OFFCURVE",
"116 106 CURVE SMOOTH",
"89 149 OFFCURVE",
"75 202 OFFCURVE",
"75 266 CURVE SMOOTH",
"75 422 OFFCURVE",
"194 522 OFFCURVE",
"370 570 CURVE SMOOTH",
"458 593 OFFCURVE",
"556 606 OFFCURVE",
"664 608 CURVE"
);
},
{
closed = 1;
nodes = (
"664 509 LINE",
"492 509 OFFCURVE",
"382 466 OFFCURVE",
"332 402 CURVE SMOOTH",
"307 369 OFFCURVE",
"294 332 OFFCURVE",
"294 291 CURVE SMOOTH",
"294 168 OFFCURVE",
"359 113 OFFCURVE",
"463 113 CURVE SMOOTH",
"518 113 OFFCURVE",
"607 148 OFFCURVE",
"664 193 CURVE"
);
},
{
closed = 1;
nodes = (
"169 1392 OFFCURVE",
"215 1454 OFFCURVE",
"299 1454 CURVE SMOOTH",
"300 1454 LINE SMOOTH",
"371 1454 OFFCURVE",
"416 1399 OFFCURVE",
"416 1332 CURVE SMOOTH",
"416 1251 OFFCURVE",
"368 1192 OFFCURVE",
"281 1192 CURVE SMOOTH",
"280 1192 LINE SMOOTH",
"213 1192 OFFCURVE",
"169 1244 OFFCURVE",
"169 1313 CURVE SMOOTH"
);
},
{
closed = 1;
nodes = (
"581 1392 OFFCURVE",
"628 1454 OFFCURVE",
"711 1454 CURVE",
"711 1454 LINE",
"784 1454 OFFCURVE",
"828 1399 OFFCURVE",
"828 1332 CURVE SMOOTH",
"828 1251 OFFCURVE",
"781 1192 OFFCURVE",
"692 1192 CURVE SMOOTH",
"691 1192 LINE SMOOTH",
"627 1192 OFFCURVE",
"581 1246 OFFCURVE",
"581 1313 CURVE SMOOTH"
);
}
);
width = 1010;
}
);
note = adieresis;
unicode = 00E4;
},
{
glyphname = agrave;
layers = (
{
layerId = "2D872161-907C-4693-BC79-717BAF554E8F";
name = Regular;
paths = (
{
closed = 1;
nodes = (
"664 654 LINE SMOOTH",
"664 765 OFFCURVE",
"644 825 OFFCURVE",
"588 854 CURVE SMOOTH",
"560 869 OFFCURVE",
"520 876 OFFCURVE",
"468 876 CURVE SMOOTH",
"369 876 OFFCURVE",
"264 848 OFFCURVE",
"155 792 CURVE",
"154 792 LINE",
"110 884 LINE",
"142 912 OFFCURVE",
"239 964 OFFCURVE",
"354 997 CURVE SMOOTH",
"411 1014 OFFCURVE",
"466 1022 OFFCURVE",
"517 1022 CURVE SMOOTH",
"689 1022 OFFCURVE",
"782 978 OFFCURVE",
"826 876 CURVE SMOOTH",
"847 825 OFFCURVE",
"858 756 OFFCURVE",
"858 669 CURVE SMOOTH",
"858 97 LINE",
"965 97 LINE",
"965 11 LINE",
"880 -10 OFFCURVE",
"815 -20 OFFCURVE",
"772 -20 CURVE SMOOTH",
"723 -20 OFFCURVE",
"699 -14 OFFCURVE",
"687 11 CURVE SMOOTH",
"681 24 OFFCURVE",
"678 43 OFFCURVE",
"678 70 CURVE SMOOTH",
"678 112 LINE",
"614 49 OFFCURVE",
"507 -20 OFFCURVE",
"379 -20 CURVE SMOOTH",
"267 -20 OFFCURVE",
"171 20 OFFCURVE",
"116 106 CURVE SMOOTH",
"89 149 OFFCURVE",
"75 202 OFFCURVE",
"75 266 CURVE SMOOTH",
"75 422 OFFCURVE",
"194 522 OFFCURVE",
"370 570 CURVE SMOOTH",
"458 593 OFFCURVE",
"556 606 OFFCURVE",
"664 608 CURVE"
);
},
{
closed = 1;
nodes = (
"664 509 LINE",
"492 509 OFFCURVE",
"382 466 OFFCURVE",
"332 402 CURVE SMOOTH",
"307 369 OFFCURVE",
"294 332 OFFCURVE",
"294 291 CURVE SMOOTH",
"294 168 OFFCURVE",
"359 113 OFFCURVE",
"463 113 CURVE SMOOTH",
"518 113 OFFCURVE",
"607 148 OFFCURVE",
"664 193 CURVE"
);
},
{
closed = 1;
nodes = (
"324 1596 LINE",
"324 1596 LINE",
"615 1239 LINE",
"543 1174 LINE",
"542 1174 LINE",
"490 1193 OFFCURVE",
"373 1280 OFFCURVE",
"278 1368 CURVE SMOOTH",
"231 1412 OFFCURVE",
"199 1447 OFFCURVE",
"184 1474 CURVE"
);
}
);
width = 1010;
}
);
note = agrave;
unicode = 00E0;
},
{
glyphname = amacron;
layers = (
{
layerId = "2D872161-907C-4693-BC79-717BAF554E8F";
name = Regular;
paths = (
{
closed = 1;
nodes = (
"664 654 LINE SMOOTH",
"664 765 OFFCURVE",
"644 825 OFFCURVE",
"588 854 CURVE SMOOTH",
"560 869 OFFCURVE",
"520 876 OFFCURVE",
"468 876 CURVE SMOOTH",
"369 876 OFFCURVE",
"264 848 OFFCURVE",
"155 792 CURVE",
"154 792 LINE",
"110 884 LINE",
"142 912 OFFCURVE",
"239 964 OFFCURVE",
"354 997 CURVE SMOOTH",
"411 1014 OFFCURVE",
"466 1022 OFFCURVE",
"517 1022 CURVE SMOOTH",
"689 1022 OFFCURVE",
"782 978 OFFCURVE",
"826 876 CURVE SMOOTH",
"847 825 OFFCURVE",
"858 756 OFFCURVE",
"858 669 CURVE SMOOTH",
"858 97 LINE",
"965 97 LINE",
"965 11 LINE",
"880 -10 OFFCURVE",
"815 -20 OFFCURVE",
"772 -20 CURVE SMOOTH",
"723 -20 OFFCURVE",
"699 -14 OFFCURVE",
"687 11 CURVE SMOOTH",
"681 24 OFFCURVE",
"678 43 OFFCURVE",
"678 70 CURVE SMOOTH",
"678 112 LINE",
"614 49 OFFCURVE",
"507 -20 OFFCURVE",
"379 -20 CURVE SMOOTH",
"267 -20 OFFCURVE",
"171 20 OFFCURVE",
"116 106 CURVE SMOOTH",
"89 149 OFFCURVE",
"75 202 OFFCURVE",
"75 266 CURVE SMOOTH",
"75 422 OFFCURVE",
"194 522 OFFCURVE",
"370 570 CURVE SMOOTH",
"458 593 OFFCURVE",
"556 606 OFFCURVE",
"664 608 CURVE"
);
},
{
closed = 1;
nodes = (
"664 509 LINE",
"492 509 OFFCURVE",
"382 466 OFFCURVE",
"332 402 CURVE SMOOTH",
"307 369 OFFCURVE",
"294 332 OFFCURVE",
"294 291 CURVE SMOOTH",
"294 168 OFFCURVE",
"359 113 OFFCURVE",
"463 113 CURVE SMOOTH",
"518 113 OFFCURVE",
"607 148 OFFCURVE",
"664 193 CURVE"
);
},
{
closed = 1;
nodes = (
"741 1396 LINE",
"741 1257 LINE",
"250 1257 LINE",
"250 1396 LINE"
);
}
);
width = 1010;
}
);
note = amacron;
unicode = 0101;
},
{
glyphname = aogonek;
layers = (
{
layerId = "2D872161-907C-4693-BC79-717BAF554E8F";
name = Regular;
paths = (
{
closed = 1;
nodes = (
"664 654 LINE SMOOTH",
"664 765 OFFCURVE",
"644 825 OFFCURVE",
"588 854 CURVE SMOOTH",
"560 869 OFFCURVE",
"520 876 OFFCURVE",
"468 876 CURVE SMOOTH",
"369 876 OFFCURVE",
"264 848 OFFCURVE",
"155 792 CURVE",
"154 792 LINE",
"110 884 LINE",
"142 912 OFFCURVE",
"239 964 OFFCURVE",
"354 997 CURVE SMOOTH",
"411 1014 OFFCURVE",
"466 1022 OFFCURVE",
"517 1022 CURVE SMOOTH",
"689 1022 OFFCURVE",
"782 978 OFFCURVE",
"826 876 CURVE SMOOTH",
"847 825 OFFCURVE",
"858 756 OFFCURVE",
"858 669 CURVE SMOOTH",
"858 97 LINE",
"965 97 LINE",
"965 11 LINE",
"953 7 OFFCURVE",
"938 3 OFFCURVE",
"920 0 CURVE",
"837 -29 OFFCURVE",
"762 -83 OFFCURVE",
"721 -138 CURVE SMOOTH",
"700 -166 OFFCURVE",
"690 -192 OFFCURVE",
"690 -215 CURVE SMOOTH",
"690 -286 OFFCURVE",
"742 -321 OFFCURVE",
"819 -321 CURVE SMOOTH",
"857 -321 OFFCURVE",
"898 -311 OFFCURVE",
"943 -292 CURVE",
"943 -389 LINE",
"894 -426 OFFCURVE",
"810 -450 OFFCURVE",
"735 -450 CURVE SMOOTH",
"604 -450 OFFCURVE",
"507 -394 OFFCURVE",
"507 -277 CURVE SMOOTH",
"507 -220 OFFCURVE",
"552 -152 OFFCURVE",
"624 -93 CURVE SMOOTH",
"659 -64 OFFCURVE",
"698 -39 OFFCURVE",
"740 -18 CURVE",
"695 -14 OFFCURVE",
"678 6 OFFCURVE",
"678 70 CURVE SMOOTH",
"678 112 LINE",
"614 49 OFFCURVE",
"507 -20 OFFCURVE",
"379 -20 CURVE SMOOTH",
"267 -20 OFFCURVE",
"171 20 OFFCURVE",
"116 106 CURVE SMOOTH",
"89 149 OFFCURVE",
"75 202 OFFCURVE",
"75 266 CURVE SMOOTH",
"75 422 OFFCURVE",
"194 522 OFFCURVE",
"370 570 CURVE SMOOTH",
"458 593 OFFCURVE",
"556 606 OFFCURVE",
"664 608 CURVE"
);
},
{
closed = 1;
nodes = (
"664 509 LINE",
"492 509 OFFCURVE",
"382 466 OFFCURVE",
"332 402 CURVE SMOOTH",
"307 369 OFFCURVE",
"294 332 OFFCURVE",
"294 291 CURVE SMOOTH",
"294 168 OFFCURVE",
"359 113 OFFCURVE",
"463 113 CURVE SMOOTH",
"518 113 OFFCURVE",
"607 148 OFFCURVE",
"664 193 CURVE"
);
}
);
width = 1010;
}
);
note = aogonek;
unicode = 0105;
},
{
glyphname = aring;
layers = (
{
layerId = "2D872161-907C-4693-BC79-717BAF554E8F";
name = Regular;
paths = (
{
closed = 1;
nodes = (
"664 654 LINE SMOOTH",
"664 765 OFFCURVE",
"644 825 OFFCURVE",
"588 854 CURVE SMOOTH",
"560 869 OFFCURVE",
"520 876 OFFCURVE",
"468 876 CURVE SMOOTH",
"369 876 OFFCURVE",
"264 848 OFFCURVE",
"155 792 CURVE",
"154 792 LINE",
"110 884 LINE",
"142 912 OFFCURVE",
"239 964 OFFCURVE",
"354 997 CURVE SMOOTH",
"411 1014 OFFCURVE",
"466 1022 OFFCURVE",
"517 1022 CURVE SMOOTH",
"689 1022 OFFCURVE",
"782 978 OFFCURVE",
"826 876 CURVE SMOOTH",
"847 825 OFFCURVE",
"858 756 OFFCURVE",
"858 669 CURVE SMOOTH",
"858 97 LINE",
"965 97 LINE",
"965 11 LINE",
"880 -10 OFFCURVE",
"815 -20 OFFCURVE",
"772 -20 CURVE SMOOTH",
"723 -20 OFFCURVE",
"699 -14 OFFCURVE",
"687 11 CURVE SMOOTH",
"681 24 OFFCURVE",
"678 43 OFFCURVE",
"678 70 CURVE SMOOTH",
"678 112 LINE",
"614 49 OFFCURVE",
"507 -20 OFFCURVE",
"379 -20 CURVE SMOOTH",
"267 -20 OFFCURVE",
"171 20 OFFCURVE",
"116 106 CURVE SMOOTH",
"89 149 OFFCURVE",
"75 202 OFFCURVE",
"75 266 CURVE SMOOTH",
"75 422 OFFCURVE",
"194 522 OFFCURVE",
"370 570 CURVE SMOOTH",
"458 593 OFFCURVE",
"556 606 OFFCURVE",
"664 608 CURVE"
);
},
{
closed = 1;
nodes = (
"664 509 LINE",
"492 509 OFFCURVE",
"382 466 OFFCURVE",
"332 402 CURVE SMOOTH",
"307 369 OFFCURVE",
"294 332 OFFCURVE",
"294 291 CURVE SMOOTH",
"294 168 OFFCURVE",
"359 113 OFFCURVE",
"463 113 CURVE SMOOTH",
"518 113 OFFCURVE",
"607 148 OFFCURVE",
"664 193 CURVE"
);
},
{
closed = 1;
nodes = (
"201 1503 OFFCURVE",
"264 1579 OFFCURVE",
"357 1618 CURVE SMOOTH",
"404 1637 OFFCURVE",
"453 1647 OFFCURVE",
"504 1647 CURVE SMOOTH",
"505 1647 LINE SMOOTH",
"625 1647 OFFCURVE",
"711 1603 OFFCURVE",
"755 1529 CURVE SMOOTH",
"776 1492 OFFCURVE",
"787 1450 OFFCURVE",
"787 1403 CURVE SMOOTH",
"787 1299 OFFCURVE",
"730 1222 OFFCURVE",
"640 1182 CURVE SMOOTH",
"595 1162 OFFCURVE",
"545 1152 OFFCURVE",
"492 1152 CURVE SMOOTH",
"491 1152 LINE SMOOTH",
"362 1152 OFFCURVE",
"275 1198 OFFCURVE",
"233 1274 CURVE SMOOTH",
"212 1312 OFFCURVE",
"201 1355 OFFCURVE",
"201 1402 CURVE SMOOTH"
);
},
{
closed = 1;
nodes = (
"605 1245 OFFCURVE",
"649 1294 OFFCURVE",
"649 1395 CURVE SMOOTH",
"649 1486 OFFCURVE",
"601 1551 OFFCURVE",
"498 1551 CURVE SMOOTH",
"497 1551 LINE SMOOTH",
"393 1551 OFFCURVE",
"341 1498 OFFCURVE",
"341 1406 CURVE SMOOTH",
"341 1315 OFFCURVE",
"394 1245 OFFCURVE",
"497 1245 CURVE SMOOTH"
);
}
);
width = 1010;
}
);
note = aring;
unicode = 00E5;
},
{
glyphname = atilde;
layers = (
{
layerId = "2D872161-907C-4693-BC79-717BAF554E8F";
name = Regular;
paths = (
{
closed = 1;
nodes = (
"664 654 LINE SMOOTH",
"664 765 OFFCURVE",
"644 825 OFFCURVE",
"588 854 CURVE SMOOTH",
"560 869 OFFCURVE",
"520 876 OFFCURVE",
"468 876 CURVE SMOOTH",
"369 876 OFFCURVE",
"264 848 OFFCURVE",
"155 792 CURVE",
"154 792 LINE",
"110 884 LINE",
"142 912 OFFCURVE",
"239 964 OFFCURVE",
"354 997 CURVE SMOOTH",
"411 1014 OFFCURVE",
"466 1022 OFFCURVE",
"517 1022 CURVE SMOOTH",
"689 1022 OFFCURVE",
"782 978 OFFCURVE",
"826 876 CURVE SMOOTH",
"847 825 OFFCURVE",
"858 756 OFFCURVE",
"858 669 CURVE SMOOTH",
"858 97 LINE",
"965 97 LINE",
"965 11 LINE",
"880 -10 OFFCURVE",
"815 -20 OFFCURVE",
"772 -20 CURVE SMOOTH",
"723 -20 OFFCURVE",
"699 -14 OFFCURVE",
"687 11 CURVE SMOOTH",
"681 24 OFFCURVE",
"678 43 OFFCURVE",
"678 70 CURVE SMOOTH",
"678 112 LINE",
"614 49 OFFCURVE",
"507 -20 OFFCURVE",
"379 -20 CURVE SMOOTH",
"267 -20 OFFCURVE",
"171 20 OFFCURVE",
"116 106 CURVE SMOOTH",
"89 149 OFFCURVE",
"75 202 OFFCURVE",
"75 266 CURVE SMOOTH",
"75 422 OFFCURVE",
"194 522 OFFCURVE",
"370 570 CURVE SMOOTH",
"458 593 OFFCURVE",
"556 606 OFFCURVE",
"664 608 CURVE"
);
},
{
closed = 1;
nodes = (
"664 509 LINE",
"492 509 OFFCURVE",
"382 466 OFFCURVE",
"332 402 CURVE SMOOTH",
"307 369 OFFCURVE",
"294 332 OFFCURVE",
"294 291 CURVE SMOOTH",
"294 168 OFFCURVE",
"359 113 OFFCURVE",
"463 113 CURVE SMOOTH",
"518 113 OFFCURVE",
"607 148 OFFCURVE",
"664 193 CURVE"
);
},
{
closed = 1;
nodes = (
"121 1274 LINE",
"138 1330 OFFCURVE",
"188 1394 OFFCURVE",
"258 1434 CURVE SMOOTH",
"293 1453 OFFCURVE",
"331 1463 OFFCURVE",
"373 1463 CURVE SMOOTH",
"422 1463 OFFCURVE",
"464 1445 OFFCURVE",
"493 1423 CURVE SMOOTH",
"507 1412 OFFCURVE",
"524 1397 OFFCURVE",
"544 1379 CURVE SMOOTH",
"592 1335 OFFCURVE",
"618 1316 OFFCURVE",
"658 1316 CURVE SMOOTH",
"707 1316 OFFCURVE",
"743 1346 OFFCURVE",
"759 1371 CURVE SMOOTH",
"767 1383 OFFCURVE",
"777 1399 OFFCURVE",
"788 1419 CURVE",
"874 1365 LINE",
"833 1257 OFFCURVE",
"754 1176 OFFCURVE",
"638 1176 CURVE SMOOTH",
"590 1176 OFFCURVE",
"549 1194 OFFCURVE",
"520 1215 CURVE",
"505 1225 OFFCURVE",
"488 1239 OFFCURVE",
"468 1257 CURVE SMOOTH",
"417 1301 OFFCURVE",
"387 1323 OFFCURVE",
"343 1323 CURVE SMOOTH",
"295 1323 OFFCURVE",
"258 1293 OFFCURVE",
"240 1269 CURVE SMOOTH",
"231 1257 OFFCURVE",
"219 1241 OFFCURVE",
"206 1220 CURVE"
);
}
);
width = 1010;
}
);
note = atilde;
unicode = 00E3;
},
